<svg xmlns="http://www.w3.org/2000/svg" xmlns:xlink="http://www.w3.org/1999/xlink" width="1920" height="744" viewBox="0 0 1920 744">
    <defs>
        <path id="prefix__a" d="M0 0H1920V803H0z"/>
        <path id="prefix__d" d="M0 0H74V76H0z"/>
        <path id="prefix__f" d="M0 0H42V43H0z"/>
        <linearGradient id="prefix__c" x1="4.762%" x2="89.777%" y1="45.867%" y2="53.103%">
            <stop offset="0%" stop-color="#F6FCFF"/>
            <stop offset="100%" stop-color="#F4F7FF"/>
        </linearGradient>
    </defs>
    <g fill="none" fill-rule="evenodd" transform="translate(0 -28)">
        <mask id="prefix__b" fill="#fff">
            <use xlink:href="#prefix__a"/>
        </mask>
        <g mask="url(#prefix__b)">
            <g>
                <g>
                    <path fill="url(#prefix__c)" d="M1804.498 238.98c232.477-92.878-468.528-71.162-770.357 105.103-301.83 176.265-383.69 219.52-507.884 267.726-82.796 32.137-220.593 71.01-413.39 116.62-97.192 136.613-81.874 210.215 45.953 220.805 191.741 15.886 214.844-83.684 586.942-128.396 372.099-44.713 581.82-158.08 929.475-122.276 347.655 35.803 553.025-131.367 567.436-326.209 14.41-194.842-670.651-40.495-438.175-133.373z" transform="translate(-256 -621) scale(-1 1) rotate(30 -995 -3706.824) rotate(170 1146.397 567.934)"/>
                    <path fill="#75BCEA" d="M1121.393 913.324l4.717 17.597c1.144 4.268-1.388 8.655-5.656 9.798l-17.606 4.716c-4.267 1.142-8.654-1.39-9.798-5.657l-4.717-17.598c-1.144-4.267 1.388-8.654 5.656-9.798l17.606-4.716c4.267-1.142 8.654 1.39 9.798 5.658z" transform="translate(-256 -621) scale(-1 1) rotate(30 -995 -3706.824)"/>
                </g>
                <g transform="translate(-256 -621) translate(1332.633 918.793)">
                    <mask id="prefix__e" fill="#fff">
                        <use xlink:href="#prefix__d"/>
                    </mask>
                    <rect width="57" height="57" x="10.405" y="11.799" fill="#FFE7B9" mask="url(#prefix__e)" rx="8" transform="rotate(75 38.905 40.299)"/>
                </g>
                <g transform="translate(-256 -621) translate(1490 774)">
                    <mask id="prefix__g" fill="#fff">
                        <use xlink:href="#prefix__f"/>
                    </mask>
                    <rect width="28" height="28" x="8.038" y="9.592" fill="#FFDADB" mask="url(#prefix__g)" rx="6" transform="rotate(135 22.038 23.592)"/>
                </g>
            </g>
        </g>
    </g>
</svg>
