<svg xmlns="http://www.w3.org/2000/svg" xmlns:xlink="http://www.w3.org/1999/xlink" width="375" height="494" viewBox="0 0 375 494">
    <defs>
        <linearGradient id="prefix__c" x1="4.762%" x2="89.777%" y1="45.866%" y2="53.104%">
            <stop offset="0%" stop-color="#F6FCFF"/>
            <stop offset="100%" stop-color="#F4F7FF"/>
        </linearGradient>
        <path id="prefix__a" d="M0 0.73H375V531.73H0z"/>
    </defs>
    <g fill="none" fill-rule="evenodd" transform="translate(0 -25.73)">
        <mask id="prefix__b" fill="#fff">
            <use xlink:href="#prefix__a"/>
        </mask>
        <g mask="url(#prefix__b)">
            <g transform="translate(-461 -170)">
                <path fill="url(#prefix__c)" d="M1166.73 154.925c150.214-60.019-302.738-45.985-497.764 67.92C473.94 336.749 421.046 364.7 340.798 395.853 287.3 416.62 198.263 441.74 73.688 471.214c-62.8 88.282-52.903 135.844 29.692 142.688 123.893 10.265 138.82-54.078 379.251-82.972 240.43-28.894 375.941-102.153 600.577-79.016 224.637 23.137 357.336-84.891 366.647-210.801 9.311-125.91-433.34-26.169-283.125-86.188z" transform="rotate(170 741.5 367.5)"/>
                <path fill="#75BCEA" d="M522.86 410.876l-3.106 11.59c-.43 1.6.52 3.246 2.12 3.674h.001l11.59 3.105c1.6.428 3.246-.521 3.675-2.121l3.106-11.59c.43-1.6-.52-3.246-2.12-3.674h-.001l-11.59-3.105c-1.6-.428-3.246.521-3.675 2.121z"/>
                <rect width="30" height="30" x="790" y="448" fill="#FFE7B9" rx="7" transform="rotate(75 805 463)"/>
            </g>
        </g>
    </g>
</svg>
