<svg xmlns="http://www.w3.org/2000/svg" width="1920" height="643" viewBox="0 0 1920 643">
  <defs>
    <linearGradient id="волна-a" x1="4.762%" x2="89.777%" y1="45.867%" y2="53.103%">
      <stop offset="0%" stop-color="#F6FCFF"/>
      <stop offset="100%" stop-color="#F4F7FF"/>
    </linearGradient>
  </defs>
  <path fill="url(#волна-a)" fill-rule="evenodd" d="M1804.49805,238.97988 C2036.9746,146.102044 1335.97044,167.818433 1034.14077,344.083 C732.31109,520.347566 650.450226,563.602675 526.256619,611.808634 C443.460881,643.945941 305.664076,682.819257 112.866202,728.428583 C15.674859,865.042196 30.9928959,938.644108 158.820313,949.23432 C350.561439,965.119637 373.663934,865.55048 745.762453,820.837733 C1117.86097,776.124985 1327.58212,662.758505 1675.23725,698.561958 C2022.89238,734.365412 2228.26219,567.194954 2242.67261,372.35305 C2257.08303,177.511145 1572.02151,331.857716 1804.49805,238.97988 Z" transform="scale(1 -1) rotate(20 3780.426 -260.595)"/>
</svg>
