<svg xmlns="http://www.w3.org/2000/svg" xmlns:xlink="http://www.w3.org/1999/xlink" width="892" height="786" viewBox="0 0 892 786">
    <defs>
        <linearGradient id="prefix__c" x1="23.59%" x2="63.542%" y1="24.089%" y2="85.898%">
            <stop offset="0%" stop-color="#F8F6FD" stop-opacity=".381"/>
            <stop offset="100%" stop-color="#FDF6FF"/>
        </linearGradient>
        <path id="prefix__a" d="M0 0H892V835H0z"/>
    </defs>
    <g fill="none" fill-rule="evenodd" transform="translate(6 4)">
        <mask id="prefix__b" fill="#fff">
            <use xlink:href="#prefix__a"/>
        </mask>
        <g mask="url(#prefix__b)">
            <g transform="translate(11 11)">
                <path fill="url(#prefix__c)" d="M0 252.275C0 62.208 215.271-33.684 356.87 10.738c141.6 44.422 115.694 114.855 191.331 165.783 75.637 50.928 162.87 31.353 233.16 88.13 70.292 56.779 123.007 250.786 14.883 355.428C688.12 724.72 473.234 754.39 318.308 700.953 163.383 647.515 0 442.342 0 252.275z"/>
                <circle cx="331" cy="711" r="45" fill="#C8EEFF"/>
                <g fill-rule="nonzero">
                    <path fill="#6A99FF" d="M1 0H104V21H1z" transform="rotate(10 -2640.514 2747.363) rotate(-180 52.5 10.5)"/>
                    <path fill="#FFE2D8" d="M1 4H53V18H1z" transform="rotate(10 -2640.514 2747.363) rotate(-180 27 11)"/>
                    <path fill="#FFB8A0" d="M1 15H53V16H1z" transform="rotate(10 -2640.514 2747.363) rotate(-180 27 15.5)"/>
                    <path fill="#FFB8A0" d="M1 12H53V13H1z" transform="rotate(10 -2640.514 2747.363) rotate(-180 27 12.5)"/>
                </g>
                <g fill-rule="nonzero">
                    <path fill="#E464A1" d="M0 0H171V29H0z" transform="rotate(10 -2464.494 2542.052) rotate(-180 85.5 14.5)"/>
                    <path fill="#FFE2D8" d="M0 4H69V24H0z" transform="rotate(10 -2464.494 2542.052) rotate(-180 34.5 14)"/>
                    <path fill="#FFB8A0" d="M0 20H69V21H0z" transform="rotate(10 -2464.494 2542.052) rotate(-180 34.5 20.5)"/>
                    <path fill="#FFB8A0" d="M0 16H69V17H0z" transform="rotate(10 -2464.494 2542.052) rotate(-180 34.5 16.5)"/>
                </g>
                <g fill-rule="nonzero">
                    <path fill="#FFEAA9" d="M0 0H198V29H0z" transform="rotate(10 -3171.447 2869.944) rotate(-180 99 14.5)"/>
                    <path fill="#FFE2D8" d="M0 4H99V24H0z" transform="rotate(10 -3171.447 2869.944) rotate(-180 49.5 14)"/>
                    <path fill="#FFB8A0" d="M0 20H99V21H0z" transform="rotate(10 -3171.447 2869.944) rotate(-180 49.5 20.5)"/>
                    <path fill="#FFB8A0" d="M0 16H99V17H0z" transform="rotate(10 -3171.447 2869.944) rotate(-180 49.5 16.5)"/>
                </g>
                <g fill-rule="nonzero">
                    <path fill="#A9C8FF" d="M2 2H200V31H2z" transform="scale(-1 1) rotate(10 -2012.424 -2662.788) rotate(-180 101 16.5)"/>
                    <path fill="#FFE2D8" d="M2 6H101V26H2z" transform="scale(-1 1) rotate(10 -2012.424 -2662.788) rotate(-180 51.5 16)"/>
                    <path fill="#FFB8A0" d="M2 22H101V23H2z" transform="scale(-1 1) rotate(10 -2012.424 -2662.788) rotate(-180 51.5 22.5)"/>
                    <path fill="#FFB8A0" d="M2 18H101V19H2z" transform="scale(-1 1) rotate(10 -2012.424 -2662.788) rotate(-180 51.5 18.5)"/>
                </g>
            </g>
        </g>
    </g>
</svg>
