<svg xmlns="http://www.w3.org/2000/svg" xmlns:xlink="http://www.w3.org/1999/xlink" width="32" height="32" viewBox="0 0 32 32">
    <defs>
        <path id="prefix__a" d="M0 0H30V30H0z"/>
    </defs>
    <g fill="none" fill-rule="evenodd" transform="translate(1 1)">
        <mask id="prefix__b" fill="#fff">
            <use xlink:href="#prefix__a"/>
        </mask>
        <g mask="url(#prefix__b)">
            <circle cx="15" cy="15" r="15" fill="#FED4D5"/>
            <path fill="#FE6B6F" d="M21.132 12.965l-4.079-.59-1.822-3.68c-.108-.183-.304-.295-.517-.295-.212 0-.408.112-.516.294l-1.826 3.68-4.078.59c-.217.032-.398.183-.466.39-.068.209-.011.437.145.59l2.952 2.865-.696 4.048c-.037.216.052.433.23.561.177.129.412.146.606.044l3.648-1.91 3.647 1.91c.195.102.43.085.607-.044.177-.128.266-.345.23-.56l-.697-4.049 2.952-2.866c.157-.152.213-.38.145-.588-.067-.207-.247-.359-.464-.39h-.001z"/>
        </g>
    </g>
</svg>
