<?xml version="1.0" standalone="no"?>
<!DOCTYPE svg PUBLIC "-//W3C//DTD SVG 1.1//EN" "http://www.w3.org/Graphics/SVG/1.1/DTD/svg11.dtd" >
<svg xmlns="http://www.w3.org/2000/svg" xmlns:xlink="http://www.w3.org/1999/xlink" version="1.1">
<metadata>
Created by FontForge 20190801 at Mon Sep  5 15:47:50 2011
 By Jimmy Wärting
Modern and elegant sans serif font family.
</metadata>
<defs>
<font id="Solomon-Sans-SemiBold" horiz-adv-x="613" >
  <font-face 
    font-family="Solomon Sans SemiBold"
    font-weight="600"
    font-stretch="normal"
    units-per-em="1000"
    panose-1="2 0 0 0 0 0 0 0 0 0"
    ascent="750"
    descent="-250"
    x-height="507"
    cap-height="703"
    bbox="-153 -225.656 1676 920.212"
    underline-thickness="50"
    underline-position="-100"
    stemh="84"
    stemv="99"
    unicode-range="U+0020-FB04"
  />
<missing-glyph horiz-adv-x="582" 
d="M35 0v700h512v-700h-512zM291 426l129 192h-259c48 -71 81 -118 130 -192zM340 350l123 -183v366c-43 -64 -79 -116 -123 -183zM119 167l122 183c-47 71 -72 107 -122 183v-366zM161 82h259c-47 71 -81 118 -129 192c-48 -71 -80 -117 -130 -192z" />
    <glyph glyph-name="fi" unicode="fi" horiz-adv-x="521" 
d="M279 702v-95c-62 4 -91 -17 -91 -62v-38h250v-507h-109v414h-141v-414h-109v414h-55v93h55v38c0 116 82 169 200 157zM328 595h111v108h-111v-108z" />
    <glyph glyph-name="fl" unicode="fl" horiz-adv-x="555" 
d="M278 700v-95c-62 4 -90 -15 -90 -60v-38h90v-93h-90v-414h-109v414h-55v93h55v38c0 116 81 167 199 155zM537 -1v98c-61 -5 -75 18 -75 59v544h-109v-544c0 -117 64 -170 184 -157z" />
    <glyph glyph-name="f_f_i" unicode="ffi" horiz-adv-x="826" 
d="M572 700v-95c-62 4 -93 -15 -93 -60v-38h257v-507h-109v414h-148v-414h-109v414h-176v-414h-109v414h-55v93h55v38c0 116 83 167 201 155v-95c-62 4 -92 -15 -92 -60v-38h176v38c0 116 84 167 202 155zM626 599h111v101h-111v-101z" />
    <glyph glyph-name="f_f_l" unicode="ffl" horiz-adv-x="838" 
d="M573 700v-95c-62 4 -93 -15 -93 -60v-38h89l1 -93h-90v-414h-109v414h-176v-414h-109v414h-55v93h55v38c0 116 83 167 201 155v-95c-62 4 -92 -15 -92 -60v-38h176v38c0 116 84 167 202 155zM815 97v-98c-120 -13 -184 40 -184 157v544h109v-544c0 -41 14 -64 75 -59z
" />
    <glyph glyph-name="f_j" unicode="fj" horiz-adv-x="560" 
d="M289 -191l1 92c61 -5 74 25 74 66v443h-164v-410h-109v410h-53v97h53v38c0 116 84 167 202 155v-95c-62 4 -93 -15 -93 -60v-38h273v-540c0 -117 -64 -171 -184 -158zM365 598h109v102h-109v-102z" />
    <glyph glyph-name="f_f" unicode="ff" horiz-adv-x="609" 
d="M572 700v-95c-62 4 -96 -15 -96 -60v-38h96v-93h-96v-414h-109v414h-176v-414h-109v414h-55v93h55v38c0 116 87 167 205 155v-95c-62 4 -96 -15 -96 -60v-38h176v38c0 116 87 167 205 155z" />
    <glyph glyph-name=".notdef" horiz-adv-x="582" 
d="M35 0v700h512v-700h-512zM291 426l129 192h-259c48 -71 81 -118 130 -192zM340 350l123 -183v366c-43 -64 -79 -116 -123 -183zM119 167l122 183c-47 71 -72 107 -122 183v-366zM161 82h259c-47 71 -81 118 -129 192c-48 -71 -80 -117 -130 -192z" />
    <glyph glyph-name="space" unicode=" " horiz-adv-x="257" 
 />
    <glyph glyph-name="exclam" unicode="!" horiz-adv-x="319" 
d="M211 166h-112l-7 534h125zM216 0h-120v115h120v-115z" />
    <glyph glyph-name="quotedbl" unicode="&#x22;" horiz-adv-x="376" 
d="M52 484v217h101v-217h-101zM224 484v217h102v-217h-102z" />
    <glyph glyph-name="numbersign" unicode="#" horiz-adv-x="596" 
d="M556 497v-98h-88l-18 -109h73l-1 -99h-87l-30 -191h-103l29 191h-97l-30 -191h-104l29 191h-82l1 99h96l16 109h-81l1 98h96l30 204h106l-30 -204h96l31 204h104l-30 -204h73zM372 406h-110l-19 -123h109z" />
    <glyph glyph-name="dollar" unicode="$" horiz-adv-x="562" 
d="M168 503c-4 -66 69 -86 118 -100c105 -27 217 -74 211 -228c-6 -111 -87 -171 -177 -187v-87h-101v87c-75 15 -147 68 -182 160l92 47c26 -67 81 -109 140 -109c67 -1 114 34 118 94c5 84 -73 112 -130 127c-86 23 -204 64 -199 201c3 106 76 170 161 188v87h101v-86
c70 -16 129 -58 159 -140l-90 -41c-26 63 -71 83 -116 83c-52 0 -101 -29 -105 -96z" />
    <glyph glyph-name="percent" unicode="%" horiz-adv-x="865" 
d="M377 533c0 -97 -82 -176 -179 -176s-178 79 -178 176c0 98 81 176 178 176s179 -78 179 -176zM819 153c0 -97 -81 -175 -178 -175c-98 0 -179 78 -179 175s81 176 179 176c97 0 178 -79 178 -176zM723 153c0 56 -38 87 -82 87c-45 0 -82 -31 -82 -87c0 -55 37 -85 82 -85
c44 0 82 30 82 85zM580 726h120l-444 -761h-119zM281 533c0 56 -38 87 -82 87c-45 0 -82 -31 -82 -87c0 -55 37 -85 82 -85c44 0 82 30 82 85z" />
    <glyph glyph-name="ampersand" unicode="&#x26;" horiz-adv-x="662" 
d="M342 366l100 -107l41 76l90 -47l-60 -112c40 -43 98 -111 133 -151h-143l-52 61c-49 -55 -107 -98 -189 -98c-119 0 -216 85 -216 212c0 87 58 145 125 188c-32 40 -59 84 -59 140c0 107 88 169 182 169c87 0 167 -64 167 -159c0 -90 -57 -136 -119 -172zM379 164
l-137 148c-45 -20 -86 -64 -86 -110c0 -123 150 -148 223 -38zM291 600c-39 0 -71 -29 -71 -70c0 -31 24 -70 49 -99c40 21 89 56 89 106c0 36 -30 63 -67 63z" />
    <glyph glyph-name="quotesingle" unicode="'" horiz-adv-x="221" 
d="M54 488v213h101v-213h-101z" />
    <glyph glyph-name="parenleft" unicode="(" horiz-adv-x="395" 
d="M172 351c0 -150 74 -297 201 -373v-124c-412 206 -410 790 0 996v-123c-126 -69 -201 -215 -201 -376z" />
    <glyph glyph-name="parenright" unicode=")" horiz-adv-x="408" 
d="M224 345c0 146 -75 302 -201 378v121c412 -209 414 -787 0 -996v121c126 76 201 226 201 376z" />
    <glyph glyph-name="asterisk" unicode="*" horiz-adv-x="470" 
d="M417 521l-125 -35l82 -104l-83 -58l-71 108l-72 -108l-82 58l82 104l-125 35l31 92l120 -45l-3 131h100l-6 -131l121 45z" />
    <glyph glyph-name="plus" unicode="+" horiz-adv-x="652" 
d="M70 273v103h196v193h107v-193h188v-103h-188v-195h-107v195h-196z" />
    <glyph glyph-name="comma" unicode="," horiz-adv-x="263" 
d="M9 -131l71 236h124l-90 -236h-105z" />
    <glyph glyph-name="hyphen" unicode="-" horiz-adv-x="458" 
d="M79 256v105h287v-105h-287z" />
    <glyph glyph-name="period" unicode="." horiz-adv-x="264" 
d="M184 -2h-122v119h122v-119z" />
    <glyph glyph-name="slash" unicode="/" horiz-adv-x="422" 
d="M406 760l-279 -821h-114l280 821h113z" />
    <glyph glyph-name="zero" unicode="0" horiz-adv-x="611" 
d="M167 203c0 -70 65 -110 129 -110c63 0 128 40 128 110v296c0 70 -67 110 -132 109c-63 -1 -125 -41 -125 -109v-296zM55 499c0 140 117 211 236 212c122 2 245 -68 245 -212v-296c0 -65 -23 -113 -61 -148c-45 -43 -112 -65 -179 -65c-67 -1 -135 21 -181 65
c-37 36 -60 84 -60 148v296z" />
    <glyph glyph-name="one" unicode="1" horiz-adv-x="336" 
d="M121 598h-85v102h198v-700h-113v598z" />
    <glyph glyph-name="two" unicode="2" horiz-adv-x="569" 
d="M274 600c-60 3 -113 -37 -139 -99l-91 42c43 109 132 160 233 157c132 -4 217 -98 219 -202c0 -60 -28 -113 -77 -166l-226 -227h308v-105h-432l-30 76l303 327c30 31 45 67 44 100c-1 51 -38 94 -112 97z" />
    <glyph glyph-name="three" unicode="3" horiz-adv-x="559" 
d="M29 148l85 48c37 -77 90 -103 148 -103c56 0 116 31 116 113c0 68 -49 113 -106 113h-68v100h68c50 0 89 31 89 88c0 65 -51 94 -101 94c-46 0 -95 -19 -122 -76l-81 44c40 93 124 136 204 136c103 0 212 -59 212 -198c0 -47 -30 -115 -81 -134c67 -35 98 -97 98 -168
c-1 -146 -117 -216 -231 -216c-89 0 -186 54 -230 159z" />
    <glyph glyph-name="four" unicode="4" horiz-adv-x="582" 
d="M475 700v-465h76v-105h-76v-130h-110v130h-284l-71 96l339 474h126zM370 569l-236 -334h231v190l8 144h-3z" />
    <glyph glyph-name="five" unicode="5" horiz-adv-x="582" 
d="M41 138l89 48c30 -62 90 -95 144 -95c88 0 135 68 135 141c0 95 -62 135 -134 137c-49 2 -100 -15 -142 -46h-65l53 377h356v-100h-266l-20 -145c183 55 329 -47 329 -223c0 -120 -85 -246 -248 -246c-94 0 -183 48 -231 152z" />
    <glyph glyph-name="six" unicode="6" horiz-adv-x="602" 
d="M295 -11c-162 0 -245 122 -245 242c0 47 15 95 41 136l206 333h129l-156 -251c177 39 270 -105 270 -218c0 -120 -83 -242 -245 -242zM295 361c-75 0 -133 -54 -133 -130c0 -67 45 -137 133 -137c89 0 134 70 134 137c0 66 -46 130 -134 130z" />
    <glyph glyph-name="seven" unicode="7" horiz-adv-x="497" 
d="M335 595h-311v106h387l62 -78l-319 -623h-127z" />
    <glyph glyph-name="eight" unicode="8" horiz-adv-x="587" 
d="M282 -14c-116 0 -231 76 -232 218c-1 71 45 134 105 170c-52 25 -79 92 -79 138c0 126 102 198 206 198s205 -72 205 -198c0 -51 -29 -109 -78 -137c65 -33 106 -91 105 -171c-1 -142 -116 -218 -232 -218zM282 610c-62 0 -94 -52 -94 -96s32 -92 94 -92
c61 0 93 48 93 92s-31 96 -93 96zM282 324c-79 0 -119 -63 -119 -121c0 -56 39 -117 119 -116c80 0 121 61 121 118s-41 119 -121 119z" />
    <glyph glyph-name="nine" unicode="9" horiz-adv-x="605" 
d="M293 711c162 0 245 -122 245 -242c0 -47 -15 -95 -41 -136l-206 -333h-129l156 251c-177 -39 -270 105 -270 218c0 120 83 242 245 242zM293 339c75 0 133 54 133 130c0 67 -45 137 -133 137c-89 0 -134 -70 -134 -137c0 -66 46 -130 134 -130z" />
    <glyph glyph-name="colon" unicode=":" horiz-adv-x="302" 
d="M204 -2h-122v119h122v-119zM204 378h-122v119h122v-119z" />
    <glyph glyph-name="semicolon" unicode=";" horiz-adv-x="303" 
d="M204 378h-122v119h122v-119zM14 -131l71 236h124l-90 -236h-105z" />
    <glyph glyph-name="less" unicode="&#x3c;" horiz-adv-x="494" 
d="M428 540v-123l-266 -133l266 -132v-120l-396 214v76z" />
    <glyph glyph-name="equal" unicode="=" horiz-adv-x="631" 
d="M87 320v102h440v-102h-440zM87 133v102h440v-102h-440z" />
    <glyph glyph-name="greater" unicode="&#x3e;" horiz-adv-x="496" 
d="M53 415v123l396 -216v-76l-396 -214v120l266 132z" />
    <glyph glyph-name="question" unicode="?" horiz-adv-x="530" 
d="M8 593c64 82 141 116 215 116c117 0 231 -67 231 -217c-1 -103 -66 -182 -188 -204l-7 -123h-99l-5 197c94 1 186 43 185 131c-4 147 -187 141 -255 42zM265 0h-115v115h115v-115z" />
    <glyph glyph-name="at" unicode="@" horiz-adv-x="813" 
d="M462 -19l37 -75c-267 -103 -466 52 -457 307c7 193 149 381 369 381c188 0 329 -102 334 -300c4 -160 -114 -287 -227 -287c-27 0 -60 16 -66 68c-29 -49 -70 -60 -104 -60c-82 0 -144 69 -147 164c-4 136 86 259 221 259c32 0 74 -20 87 -53c2 4 17 33 17 36l71 -9
l-54 -279c-21 -83 111 6 107 162c-5 171 -128 209 -239 209c-166 0 -268 -152 -272 -292c-6 -202 121 -296 323 -231zM297 180c1 -39 26 -67 55 -67c68 0 122 103 120 172c-1 39 -23 66 -52 66c-87 1 -125 -95 -123 -171z" />
    <glyph glyph-name="A" unicode="A" horiz-adv-x="636" 
d="M-1 0l251 705h122l254 -705h-120l-78 213h-233l-75 -213h-121zM229 313h164l-65 200l-16 72h-5l-16 -72z" />
    <glyph glyph-name="B" unicode="B" horiz-adv-x="609" 
d="M200 418h109c70 0 100 50 100 94c0 43 -30 95 -100 95h-109v-189zM309 323h-109v-223h109c89 0 129 59 129 111s-41 112 -129 112zM518 511c0 -48 -23 -106 -84 -134c79 -29 115 -107 114 -169c0 -145 -117 -208 -241 -208h-221v704h223c116 0 209 -73 209 -193z" />
    <glyph glyph-name="C" unicode="C" horiz-adv-x="729" 
d="M663 598l-72 -67c-54 57 -124 84 -192 82c-160 -3 -242 -137 -242 -265c0 -127 84 -259 242 -259c72 0 153 34 207 99l80 -62c-76 -92 -172 -141 -287 -141c-233 0 -357 181 -357 363s124 368 357 368c103 0 194 -33 264 -118z" />
    <glyph glyph-name="D" unicode="D" horiz-adv-x="725" 
d="M327 705c232 1 340 -170 340 -343c0 -179 -97 -363 -339 -362h-240v705h239zM327 104c165 -3 227 124 227 250c0 124 -67 246 -225 246h-127v-496h125z" />
    <glyph glyph-name="E" unicode="E" horiz-adv-x="537" 
d="M462 701v-99h-278v-201h274v-99h-274v-204h278v-98h-393v701h393z" />
    <glyph glyph-name="F" unicode="F" horiz-adv-x="541" 
d="M478 701v-104h-278v-200h274v-103h-274v-294h-115v701h393z" />
    <glyph glyph-name="G" unicode="G" horiz-adv-x="836" 
d="M416 715c110 0 214 -52 285 -137l-82 -67c-54 64 -131 100 -203 100c-158 0 -243 -137 -243 -262s85 -257 243 -257c100 0 207 52 225 174h-280v104h401c7 -238 -133 -384 -346 -384c-233 0 -357 181 -358 363c0 181 125 366 358 366z" />
    <glyph glyph-name="H" unicode="H" horiz-adv-x="688" 
d="M471 0v297h-269v-297h-115v703h115v-302h269v302h115v-703h-115z" />
    <glyph glyph-name="I" unicode="I" horiz-adv-x="284" 
d="M82 0v703h114v-703h-114z" />
    <glyph glyph-name="J" unicode="J" horiz-adv-x="545" 
d="M14 183l102 22c16 -78 61 -114 129 -114c51 0 104 40 104 113v393h-129v103h241v-496c0 -144 -106 -216 -215 -216c-118 0 -204 59 -232 195z" />
    <glyph glyph-name="K" unicode="K" horiz-adv-x="630" 
d="M87 705h115v-307l276 307h136l-275 -311l282 -394h-132l-225 319l-62 -62v-257h-115v705z" />
    <glyph glyph-name="L" unicode="L" horiz-adv-x="478" 
d="M457 105v-105h-372v700h115v-595h257z" />
    <glyph glyph-name="M" unicode="M" horiz-adv-x="851" 
d="M416 245l197 459h130v-704h-115v353l16 166l-5 1l-52 -150l-121 -263h-100l-121 263l-52 150l-5 -1l16 -166v-353h-115v704h130z" />
    <glyph glyph-name="N" unicode="N" horiz-adv-x="733" 
d="M220 704l257 -456l48 -105l3 1l-15 130v430h115v-704h-131l-259 456l-49 105l-3 -1l16 -130v-430h-115v704h133z" />
    <glyph glyph-name="O" unicode="O" horiz-adv-x="820" 
d="M400 715c197 0 358 -157 358 -366c0 -210 -161 -364 -358 -364s-358 151 -358 364c0 212 161 366 358 366zM158 349c0 -168 120 -260 242 -260c121 0 243 92 243 260c0 167 -122 263 -244 262c-121 -1 -241 -96 -241 -262z" />
    <glyph glyph-name="P" unicode="P" horiz-adv-x="595" 
d="M200 243v-244h-114v704h218c162 0 242 -117 242 -232c0 -116 -80 -228 -241 -228h-105zM304 347c85 0 128 66 128 124c0 59 -44 128 -128 128h-104v-252h104z" />
    <glyph glyph-name="Q" unicode="Q" horiz-adv-x="832" 
d="M432 238l78 76l100 -102c25 37 37 84 37 136c0 167 -126 262 -248 261c-121 0 -240 -94 -240 -261s120 -259 242 -259c49 0 95 18 136 44zM689 132l64 -64l-77 -75l-64 64c-59 -46 -131 -71 -211 -71c-197 0 -358 150 -358 362s161 364 358 364s359 -152 359 -364
c0 -80 -23 -159 -71 -216z" />
    <glyph glyph-name="R" unicode="R" horiz-adv-x="630" 
d="M382 275l211 -275h-136l-206 271h-49v-271h-115v701h230c138 0 243 -62 245 -217c1 -127 -79 -194 -180 -209zM202 372h116c79 0 129 40 129 112c0 74 -53 113 -129 113h-116v-225z" />
    <glyph glyph-name="S" unicode="S" horiz-adv-x="569" 
d="M170 517c-4 -66 70 -93 120 -106c108 -28 225 -71 219 -229c-7 -133 -130 -198 -240 -198c-93 0 -191 52 -232 162l95 47c33 -71 81 -105 140 -105c69 -1 119 41 122 100c6 84 -76 108 -134 123c-89 24 -207 68 -202 209c3 137 115 197 221 197c92 0 179 -53 216 -156
l-90 -41c-26 65 -79 95 -127 95c-52 1 -104 -30 -108 -98z" />
    <glyph glyph-name="T" unicode="T" horiz-adv-x="467" 
d="M3 702h446v-105h-165v-597h-115v597h-166v105z" />
    <glyph glyph-name="U" unicode="U" horiz-adv-x="655" 
d="M77 700h115v-490c0 -84 63 -119 127 -119s129 35 129 119v490h115v-490c0 -158 -123 -223 -244 -223c-122 0 -242 65 -242 223v490z" />
    <glyph glyph-name="V" unicode="V" horiz-adv-x="627" 
d="M332 205l166 499h122l-243 -705h-137l-247 705h123l164 -499l26 -109h5z" />
    <glyph glyph-name="W" unicode="W" horiz-adv-x="954" 
d="M469 488l-25 -137l-95 -354h-138l-185 705h119l119 -486l16 -120h4l19 120l105 402h126l105 -402l19 -120h4l16 120l119 486h119l-185 -705h-138l-95 354l-25 137h-4z" />
    <glyph glyph-name="X" unicode="X" horiz-adv-x="643" 
d="M626 700l-231 -350l232 -349h-136l-172 269l-172 -269h-137l233 349l-231 350h135l172 -265l172 265h135z" />
    <glyph glyph-name="Y" unicode="Y" horiz-adv-x="589" 
d="M584 705l-241 -424v-281h-113v282l-240 423h131l166 -306l164 306h133z" />
    <glyph glyph-name="Z" unicode="Z" horiz-adv-x="568" 
d="M514 705v-95l-341 -505h342v-105h-466v101l249 369l96 132h-338v103h458z" />
    <glyph glyph-name="bracketleft" unicode="[" horiz-adv-x="311" 
d="M279 786v-85h-80c0 -221 -1 -482 -1 -703h80v-95h-191l1 883h191z" />
    <glyph glyph-name="backslash" unicode="\" horiz-adv-x="423" 
d="M281 -61l-280 821h112l280 -821h-112z" />
    <glyph glyph-name="bracketright" unicode="]" horiz-adv-x="312" 
d="M19 701v85h191l1 -883h-191v95h80c0 221 -1 482 -1 703h-80z" />
    <glyph glyph-name="asciicircum" unicode="^" horiz-adv-x="568" 
d="M47 317l202 377h68l201 -377h-115l-120 238c-39 -77 -84 -163 -122 -238h-114z" />
    <glyph glyph-name="underscore" unicode="_" horiz-adv-x="563" 
d="M23 2h512v-93h-512v93z" />
    <glyph glyph-name="grave" unicode="`" horiz-adv-x="509" 
d="M254 711l-99 133h118l75 -133h-94z" />
    <glyph glyph-name="a" unicode="a" horiz-adv-x="555" 
d="M260 86c39 0 90 20 117 49v86c-26 22 -66 33 -104 34c-68 2 -132 -23 -132 -86c0 -57 35 -83 119 -83zM480 0h-84l-18 61c-37 -56 -86 -68 -144 -68c-135 0 -197 89 -197 176c0 94 76 177 234 171c32 -1 83 -9 105 -30v20c0 82 -64 103 -124 102c-54 -1 -97 -17 -140 -43
l-44 69c139 119 412 90 412 -128v-330z" />
    <glyph glyph-name="b.001" horiz-adv-x="588" 
d="M68 701h109v-200c194 71 356 -78 356 -250c1 -131 -94 -261 -265 -261c-61 0 -129 6 -200 31v680zM268 84c103 0 158 89 157 167c-1 125 -122 209 -248 152v-310c29 -6 60 -8 91 -9z" />
    <glyph glyph-name="c" unicode="c" horiz-adv-x="522" 
d="M482 435l-61 -68c-40 39 -86 50 -129 50c-78 1 -153 -56 -154 -166c0 -87 54 -163 155 -163c49 0 84 12 131 54l62 -67c-54 -54 -122 -86 -193 -86c-173 0 -263 126 -263 264c1 138 94 263 263 264c71 0 132 -26 189 -82z" />
    <glyph glyph-name="d" unicode="d" horiz-adv-x="569" 
d="M39 251c0 156 107 259 230 261c38 1 81 -5 117 -36v224h107v-700h-79l-12 54c-40 -52 -84 -61 -130 -62c-137 -2 -233 122 -233 259zM280 88c44 0 80 11 107 59v241c-30 20 -62 29 -94 29c-77 -1 -148 -54 -148 -163c0 -91 47 -166 135 -166z" />
    <glyph glyph-name="e" unicode="e" horiz-adv-x="599" 
d="M294 89c45 0 101 8 143 66l77 -49c-59 -79 -136 -114 -220 -114c-173 0 -260 132 -259 263c0 131 90 263 258 264c170 1 274 -149 244 -310h-393c12 -63 65 -120 150 -120zM146 292h290c-3 89 -74 131 -145 131c-76 0 -143 -46 -145 -131z" />
    <glyph glyph-name="f" unicode="f" horiz-adv-x="302" 
d="M291 700v-92c-15 3 -27 5 -39 4c-46 -2 -67 -31 -67 -67v-38h104v-90h-104v-417h-109v417h-72v90h72v38c0 101 64 160 167 159c15 0 31 -1 48 -4z" />
    <glyph glyph-name="g" unicode="g" horiz-adv-x="568" 
d="M39 251c0 156 107 259 230 261c38 1 89 -11 121 -54l19 49h84v-503c0 -139 -110 -206 -227 -206c-77 0 -157 30 -211 89l56 69c43 -45 95 -66 152 -67c65 -1 125 28 125 116v32c-36 -37 -76 -44 -116 -45c-137 -2 -233 122 -233 259zM280 86c44 0 71 7 107 47v238
c-26 32 -62 46 -94 46c-77 -1 -148 -54 -148 -163c0 -91 47 -168 135 -168z" />
    <glyph glyph-name="h" unicode="h" horiz-adv-x="604" 
d="M72 700h110v-229c39 33 88 44 122 44c129 0 225 -79 225 -219v-296h-109v296c0 80 -62 121 -132 123c-36 1 -75 -14 -107 -34v-385h-109v700z" />
    <glyph glyph-name="i" unicode="i" horiz-adv-x="250" 
d="M179 578h-111v122h111v-122zM69 509h109v-509h-109v509z" />
    <glyph glyph-name="j" unicode="j" horiz-adv-x="247" 
d="M-8 -191v92c61 -5 74 25 74 66v540h109v-540c0 -117 -63 -171 -183 -158zM176 578h-111v122h111v-122z" />
    <glyph glyph-name="k" unicode="k" horiz-adv-x="531" 
d="M68 700h106v-390l197 198h133l-221 -225l228 -283h-126l-174 222l-37 -35v-187h-106v700z" />
    <glyph glyph-name="l" unicode="l" horiz-adv-x="272" 
d="M242 97v-98c-120 -13 -184 40 -184 157v544h109v-544c0 -41 14 -64 75 -59z" />
    <glyph glyph-name="m" unicode="m" horiz-adv-x="905" 
d="M303 513c58 0 120 -26 146 -84c37 63 101 85 161 85c118 0 215 -57 215 -219v-295h-107v297c0 89 -51 123 -108 123c-58 0 -108 -35 -109 -120v-300h-104v300c7 139 -141 162 -217 79v-379h-109v507h90l14 -54c32 51 94 60 128 60z" />
    <glyph glyph-name="n" unicode="n" horiz-adv-x="607" 
d="M70 507h90l14 -62c32 51 94 70 128 70c142 0 230 -80 230 -220v-295h-109v295c0 128 -162 167 -244 69v-364h-109v507z" />
    <glyph glyph-name="o" unicode="o" 
d="M140 253c0 -112 81 -166 156 -166c77 0 155 54 155 166s-78 164 -155 164c-75 0 -156 -52 -156 -164zM560 253c0 -147 -111 -264 -264 -264c-152 0 -265 117 -265 264c0 148 113 263 265 263c153 0 264 -115 264 -263z" />
    <glyph glyph-name="p" unicode="p" horiz-adv-x="582" 
d="M527 251c0 -137 -101 -261 -238 -259c-41 1 -83 8 -117 49v-234h-104v700h89l16 -49c32 37 74 53 125 53c115 0 229 -87 229 -260zM281 88c88 0 140 75 140 166c0 121 -76 162 -153 163c-32 0 -69 -11 -94 -43v-231c24 -45 67 -55 107 -55z" />
    <glyph glyph-name="q" unicode="q" horiz-adv-x="576" 
d="M41 251c0 173 114 260 229 260c51 0 93 -16 125 -53l16 49h89v-700h-104v234c-34 -41 -76 -48 -117 -49c-137 -2 -238 122 -238 259zM287 88c40 0 83 10 107 55v231c-25 32 -62 43 -94 43c-77 -1 -153 -42 -153 -163c0 -91 52 -166 140 -166z" />
    <glyph glyph-name="r" unicode="r" horiz-adv-x="415" 
d="M66 509h90l11 -56c32 58 86 66 120 67c35 0 80 -10 116 -33l-46 -88c-77 48 -183 17 -183 -82v-317h-108v509z" />
    <glyph glyph-name="s" unicode="s" horiz-adv-x="439" 
d="M227 305c86 -16 168 -61 168 -160c0 -116 -107 -156 -189 -156c-69 0 -133 29 -179 94l68 66c28 -36 68 -59 108 -62c38 -2 86 12 86 55c0 49 -52 64 -86 70c-84 14 -161 55 -162 151c0 100 90 155 184 155c52 0 109 -16 158 -67l-60 -67c-32 25 -61 38 -96 38
c-33 0 -81 -14 -80 -60c1 -44 48 -50 80 -57z" />
    <glyph glyph-name="t" unicode="t" horiz-adv-x="327" 
d="M288 94v-95c-118 -12 -202 36 -202 158v258h-76v92h76v129l105 12v-141h95v-92h-95v-255c0 -41 25 -79 97 -66z" />
    <glyph glyph-name="u" unicode="u" horiz-adv-x="602" 
d="M527 0h-90l-14 56c-32 -51 -94 -64 -128 -64c-129 0 -230 89 -230 229v286h109v-286c0 -128 161 -179 244 -84v370h109v-507z" />
    <glyph glyph-name="v" unicode="v" horiz-adv-x="484" 
d="M113 509l90 -285l33 -136h4l31 137l87 284h116l-173 -511h-130l-174 511h116z" />
    <glyph glyph-name="w" unicode="w" horiz-adv-x="727" 
d="M347 398l-23 -168l-54 -230h-142l-124 510h111l56 -251l26 -175h4l25 175l63 248h120l63 -248l25 -175h4l26 175l56 251h111l-124 -510h-142l-54 230l-24 168h-3z" />
    <glyph glyph-name="x" unicode="x" horiz-adv-x="514" 
d="M251 316l126 192h118l-170 -254l172 -254h-119l-128 192l-132 -192h-117l173 254l-170 254h127z" />
    <glyph glyph-name="y" unicode="y" horiz-adv-x="510" 
d="M73 -191l1 87c62 -7 84 19 94 45l31 76l-204 490h117l144 -364l129 364h117l-235 -604c-36 -89 -113 -103 -194 -94z" />
    <glyph glyph-name="z" unicode="z" horiz-adv-x="478" 
d="M41 0v88l160 218l87 106h-245v96h374v-71l-257 -343h260v-94h-379z" />
    <glyph glyph-name="braceleft" unicode="{" horiz-adv-x="312" 
d="M282 797v-97h-31c-24 1 -37 -8 -37 -38v-180c0 -43 -19 -109 -71 -139c60 -29 71 -97 71 -139v-172c0 -31 13 -32 31 -31h37v-98h-62c-75 0 -118 50 -118 125v158c0 53 -13 105 -63 105v103c50 0 63 52 63 106v165c0 74 47 132 122 132h58z" />
    <glyph glyph-name="bar" unicode="|" horiz-adv-x="285" 
d="M85 -156v929h105v-929h-105z" />
    <glyph glyph-name="braceright" unicode="}" horiz-adv-x="312" 
d="M20 700v97h58c75 0 122 -58 122 -132v-165c0 -54 13 -106 63 -106v-103c-50 0 -63 -52 -63 -105v-158c0 -75 -43 -125 -118 -125h-62v98h37c18 -1 31 0 31 31v172c0 42 11 110 71 139c-52 30 -71 96 -71 139v180c0 30 -13 39 -37 38h-31z" />
    <glyph glyph-name="asciitilde" unicode="~" horiz-adv-x="592" 
d="M468 383l60 -58c-42 -78 -100 -110 -161 -105c-35 2 -73 17 -108 44c-26 20 -44 29 -60 30c-22 2 -57 -11 -97 -62l-60 57c51 79 107 115 167 111c38 -3 76 -21 116 -52c19 -15 35 -23 48 -24c24 -2 56 8 95 59z" />
    <glyph glyph-name="exclamdown" unicode="&#xa1;" horiz-adv-x="291" 
d="M84 340h112l7 -534h-125zM79 506h120v-115h-120v115z" />
    <glyph glyph-name="cent" unicode="&#xa2;" horiz-adv-x="565" 
d="M263 -6v81c-301 41 -290 491 0 538v86h92v-87c51 -9 96 -30 140 -74l-62 -74c-40 38 -85 51 -128 51c-77 1 -156 -60 -157 -176c0 -81 58 -165 158 -165c43 0 91 18 131 54l63 -71c-43 -43 -93 -71 -145 -80v-83h-92z" />
    <glyph glyph-name="sterling" unicode="&#xa3;" horiz-adv-x="592" 
d="M535 523l-100 -16c-14 76 -65 96 -115 96c-52 0 -106 -35 -106 -106v-115h205v-88h-205v-196h326v-98h-496v98h59v196h-57v88h57v115c0 140 107 212 215 212c97 0 189 -52 217 -186z" />
    <glyph glyph-name="yen" unicode="&#xa5;" 
d="M599 700l-166 -297h68v-85h-113l-30 -53h143v-83h-146v-182h-108v182h-145v83h143l-28 53h-115v85h66l-164 297h129l169 -321c23 43 54 111 167 321h130z" />
    <glyph glyph-name="section" unicode="&#xa7;" horiz-adv-x="472" 
d="M231 295h-1c23 -4 41 -9 62 -16c15 11 25 26 25 49c0 40 -56 63 -95 70c-17 3 -33 6 -51 13c-19 -13 -30 -34 -29 -58c0 -40 53 -51 89 -58zM45 352c0 38 18 74 55 95c-26 25 -40 64 -40 101c0 102 89 160 183 160c53 0 109 -18 158 -72l-58 -64c-45 62 -177 59 -177 -21
c0 -46 48 -51 80 -58c86 -16 168 -65 168 -163c0 -39 -19 -74 -52 -94c25 -24 37 -50 37 -94c0 -118 -106 -159 -189 -159c-69 0 -137 29 -183 93l67 64c34 -40 76 -58 116 -58c37 -1 83 18 82 60c0 35 -51 54 -84 61v0c-84 15 -163 48 -163 149z" />
    <glyph glyph-name="dieresis" unicode="&#xa8;" horiz-adv-x="509" 
d="M203 755h-104v96h104v-96zM393 755h-105v96h105v-96z" />
    <glyph glyph-name="copyright" unicode="&#xa9;" horiz-adv-x="831" 
d="M51 344c0 198 155 357 349 357c197 0 352 -159 352 -357c0 -199 -155 -358 -352 -358c-194 0 -349 159 -349 358zM143 344c0 -154 111 -274 257 -274c149 0 261 120 261 274c0 153 -112 273 -261 273c-146 0 -257 -120 -257 -273zM562 489l-52 -63c-32 31 -66 36 -100 36
c-145 0 -158 -234 1 -234c34 0 64 10 97 38l58 -65c-43 -43 -98 -69 -155 -69c-139 0 -211 105 -211 211c1 106 76 211 211 212c57 0 106 -21 151 -66z" />
    <glyph glyph-name="ordfeminine" unicode="&#xaa;" horiz-adv-x="486" 
d="M324 309l-14 48c-26 -41 -73 -56 -113 -50c-90 13 -157 92 -157 195c0 125 95 199 204 201c59 4 110 -5 163 -30v-364h-83zM406 250v-104h-348v104h348zM305 426l1 188c-19 3 -41 4 -59 3c-56 -5 -106 -38 -106 -115c0 -47 39 -91 83 -102c29 -5 62 4 81 26z" />
    <glyph glyph-name="guillemotleft" unicode="&#xab;" horiz-adv-x="558" 
d="M221 280l167 209h128l-167 -209l167 -208h-128zM200 72l-167 208l167 209h128l-166 -209l166 -208h-128z" />
    <glyph glyph-name="logicalnot" unicode="&#xac;" horiz-adv-x="624" 
d="M53 322v102h481v-283h-103v181h-378z" />
    <glyph glyph-name="registered" unicode="&#xae;" horiz-adv-x="831" 
d="M51 344c0 198 155 357 349 357c197 0 352 -159 352 -357c0 -199 -155 -358 -352 -358c-194 0 -349 159 -349 358zM143 344c0 -154 111 -274 257 -274c149 0 261 120 261 274c0 153 -112 273 -261 273c-146 0 -257 -120 -257 -273zM349 361h54c53 0 66 23 66 51
c0 20 -14 46 -66 46h-54v-97zM566 413c0 -72 -40 -118 -89 -124c28 -35 92 -135 92 -135h-102l-96 130h-22v-130h-92v390h145c77 0 164 -31 164 -131z" />
    <glyph glyph-name="macron" unicode="&#xaf;" horiz-adv-x="509" 
d="M109 708v95h274v-95h-274z" />
    <glyph glyph-name="degree" unicode="&#xb0;" horiz-adv-x="400" 
d="M193 422c-83 0 -148 64 -148 144c0 78 65 144 148 144c81 0 148 -66 148 -144c0 -80 -67 -144 -148 -144zM193 502c36 0 63 28 63 64s-27 65 -63 65c-35 0 -64 -29 -64 -65s29 -64 64 -64z" />
    <glyph glyph-name="plusminus" unicode="&#xb1;" horiz-adv-x="691" 
d="M92 102h484v-102h-484v102zM85 349v104h196v192h108v-192h187v-104h-187v-194h-108v194h-196z" />
    <glyph glyph-name="twosuperior" unicode="&#xb2;" horiz-adv-x="405" 
d="M305 504l-127 -118h187v-92h-293l-42 72l205 199c47 43 22 103 -38 103c-31 0 -62 -23 -80 -57l-82 29c27 80 79 120 163 119c93 -1 164 -50 164 -142c0 -44 -22 -79 -57 -113z" />
    <glyph glyph-name="threesuperior" unicode="&#xb3;" horiz-adv-x="425" 
d="M358 621c0 -24 -14 -68 -56 -83c56 -24 74 -62 74 -104c-1 -101 -89 -149 -174 -149c-68 0 -130 33 -165 107l69 46c22 -39 64 -59 97 -59s68 16 68 56c0 32 -28 58 -59 58h-46v79h46c25 0 47 20 47 46c0 29 -31 50 -58 50c-26 0 -58 -4 -76 -39l-71 41
c33 66 88 85 148 85c80 0 157 -39 156 -134z" />
    <glyph glyph-name="acute" unicode="&#xb4;" horiz-adv-x="509" 
d="M346 844l-99 -133h-94l75 133h118z" />
    <glyph glyph-name="mu" unicode="&#xb5;" horiz-adv-x="545" 
d="M471 507l2 -507h-98l-14 76c-29 -96 -154 -115 -193 -38v-231h-102v700h108v-308c0 -120 186 -120 186 1v307h111z" />
    <glyph glyph-name="mu" unicode="&#x3bc;" horiz-adv-x="545" 
d="M471 507l2 -507h-98l-14 76c-29 -96 -154 -115 -193 -38v-231h-102v700h108v-308c0 -120 186 -120 186 1v307h111z" />
    <glyph glyph-name="paragraph" unicode="&#xb6;" horiz-adv-x="641" 
d="M230 -75v348c-134 0 -200 110 -200 209c0 110 84 219 243 219h264v-776h-108v678h-91v-678h-108z" />
    <glyph glyph-name="periodcentered" unicode="&#xb7;" horiz-adv-x="270" 
d="M74 231v122h121v-122h-121z" />
    <glyph glyph-name="cedilla" unicode="&#xb8;" horiz-adv-x="509" 
d="M312 48l-32 -66c66 -12 72 -58 66 -91c-15 -87 -138 -107 -211 -52l22 49c50 -24 102 -22 104 12c3 40 -54 45 -69 29l-18 18l50 101h88z" />
    <glyph glyph-name="onesuperior" unicode="&#xb9;" horiz-adv-x="304" 
d="M97 290v367h-60v93h164v-460h-104z" />
    <glyph glyph-name="ordmasculine" unicode="&#xba;" horiz-adv-x="477" 
d="M230 366c-95 0 -170 68 -170 166c0 94 75 164 169 164c96 0 171 -70 171 -164c0 -98 -76 -166 -170 -166zM230 449c43 0 77 35 77 83c0 47 -34 81 -77 81s-77 -34 -77 -81c0 -48 34 -83 77 -83zM62 219v94h327v-94h-327z" />
    <glyph glyph-name="guillemotright" unicode="&#xbb;" horiz-adv-x="558" 
d="M213 72l166 208l-166 209h127l167 -209l-167 -208h-127zM24 72l166 208l-166 209h127l167 -209l-167 -208h-127z" />
    <glyph glyph-name="onequarter" unicode="&#xbc;" horiz-adv-x="960" 
d="M307 -30h-109l366 768h109zM133 606v-325h104v418h-164v-93h60zM845 450v-279h45v-94h-45v-77h-102v77h-166l-65 88l175 285h158zM750 369l-124 -202h118v92l12 110h-6z" />
    <glyph glyph-name="onehalf" unicode="&#xbd;" horiz-adv-x="970" 
d="M293 -30h-109l366 768h109zM135 606v-325h102v418h-162v-93h60zM707 91l127 118c35 34 57 69 57 113c0 92 -71 141 -164 142c-84 1 -136 -39 -163 -119l82 -29c18 34 49 57 80 57c60 0 85 -60 38 -103l-205 -199l42 -72h293v92h-187z" />
    <glyph glyph-name="threequarters" unicode="&#xbe;" horiz-adv-x="1042" 
d="M406 -30h-109l366 768h109zM369 571c1 95 -76 134 -156 134c-60 0 -115 -19 -148 -85l71 -41c18 35 50 39 76 39c27 0 58 -21 58 -50c0 -26 -22 -46 -47 -46h-46v-79h46c31 0 59 -26 59 -58c0 -40 -35 -56 -68 -56s-75 20 -97 59l-69 -46c35 -74 97 -107 165 -107
c85 0 173 48 174 149c0 42 -18 80 -74 104c42 15 56 59 56 83zM934 442v-271h45v-94h-45v-77h-102v77h-166l-65 88l174 277h159zM839 369l-124 -202h118v92l12 110h-6z" />
    <glyph glyph-name="questiondown" unicode="&#xbf;" horiz-adv-x="517" 
d="M490 -86c-64 -82 -141 -116 -215 -116c-117 0 -231 67 -231 217c1 97 65 182 187 204l7 123h102l5 -197c-94 -1 -188 -43 -187 -131c2 -80 61 -107 120 -107c45 0 96 27 131 70zM230 507h120v-115h-120v115z" />
    <glyph glyph-name="AE" unicode="&#xc6;" horiz-adv-x="877" 
d="M-4 0l358 706h462v-106h-276v-198h274v-100h-274c0 -66 -1 -128 -1 -196h277v-106h-391v197h-201l-102 -197h-126zM425 307v207l11 115h-5l-154 -322h148z" />
    <glyph glyph-name="multiply" unicode="&#xd7;" horiz-adv-x="539" 
d="M53 417l73 74l134 -135l130 130l72 -72l-130 -129l128 -129l-73 -72l-128 127l-131 -131l-73 73l132 130z" />
    <glyph glyph-name="Thorn" unicode="&#xde;" horiz-adv-x="583" 
d="M200 136v-136h-114v700h114v-108h103c162 0 242 -116 242 -231c0 -116 -80 -225 -241 -225h-104zM303 238c86 0 128 65 128 123c0 60 -43 132 -128 132h-103v-255h103z" />
    <glyph glyph-name="germandbls" unicode="&#xdf;" horiz-adv-x="581" 
d="M212 1v106c93 -44 195 11 195 104c0 57 -43 114 -127 114h-66v102h66c61 0 93 53 91 97c-4 62 -50 84 -97 84c-48 0 -95 -35 -95 -89v-519h-113v519c0 124 100 194 208 194c109 0 205 -62 205 -190c0 -47 -24 -111 -82 -140c84 -34 129 -109 128 -172
c4 -182 -160 -251 -313 -210z" />
    <glyph glyph-name="ae" unicode="&#xe6;" horiz-adv-x="952" 
d="M635 85c48 0 97 14 141 69l79 -48c-58 -79 -138 -116 -222 -116c-83 0 -139 25 -182 71c-51 -47 -120 -72 -181 -71c-152 -1 -227 87 -227 176c0 91 79 172 235 170c35 0 69 -8 101 -21c0 147 -177 144 -259 68l-54 64c54 53 125 76 194 76c80 0 149 -37 186 -102
c42 59 106 95 188 96c147 1 249 -106 249 -248c0 -15 -1 -34 -4 -59h-394c5 -68 65 -125 150 -125zM269 85c39 0 101 6 141 45c-17 32 -24 71 -26 101c-29 14 -73 21 -105 21c-87 -1 -134 -43 -134 -84c0 -39 42 -83 124 -83zM486 299h290c-18 83 -61 118 -141 120
c-85 -1 -133 -48 -149 -120z" />
    <glyph glyph-name="eth" unicode="&#xf0;" 
d="M243 497l-47 67l44 31c-42 17 -70 21 -123 21l8 92c90 0 165 -21 222 -49l93 58l44 -67l-63 -40c91 -79 131 -213 126 -374c-2 -126 -83 -247 -256 -247s-258 126 -255 246c3 117 88 236 255 235c47 -1 98 -22 134 -61c-14 59 -53 115 -98 145c-39 -24 -47 -34 -84 -57z
M291 370c-97 0 -142 -69 -144 -136c-1 -69 43 -143 144 -143c102 0 150 75 148 144c-2 67 -50 135 -148 135z" />
    <glyph glyph-name="divide" unicode="&#xf7;" horiz-adv-x="615" 
d="M238 457v105h105v-105h-105zM58 275v103h476v-103h-476zM238 92v105h105v-105h-105z" />
    <glyph glyph-name="thorn" unicode="&#xfe;" horiz-adv-x="582" 
d="M68 -193v892h104v-233l1 -2c32 37 74 47 125 47c115 0 229 -87 229 -260c0 -137 -101 -261 -238 -259c-41 1 -83 8 -117 49v-234h-104zM281 88c88 0 140 75 140 166c0 121 -76 167 -153 168c-32 0 -69 -11 -94 -43v-236c24 -45 67 -55 107 -55z" />
    <glyph glyph-name="Aogonek" unicode="&#x104;" horiz-adv-x="636" 
d="M-1 0l251 705h122l254 -705c-70 -14 -111 -115 -6 -118l-40 -68s-120 -7 -133 80c-8 38 25 85 58 108l-3 8l-74 203h-233l-75 -213h-121zM229 313h164l-65 200l-16 72h-5l-16 -72z" />
    <glyph glyph-name="aogonek" unicode="&#x105;" horiz-adv-x="556" 
d="M480 0c-73 -27 -94 -120 15 -103l-39 -60s-112 -10 -125 71c-7 39 27 76 62 93l-15 51c-43 -48 -86 -60 -144 -60c-275 0 -273 349 37 349c32 0 77 -12 102 -30c0 91 -57 120 -121 119c-54 -1 -97 -15 -140 -41l-43 65c142 117 411 87 411 -146v-308zM260 92
c39 0 87 14 114 43v86c-32 22 -68 29 -102 29c-83 -1 -135 -37 -135 -81c0 -48 39 -77 123 -77z" />
    <glyph glyph-name="Cacute" unicode="&#x106;" horiz-adv-x="729" 
d="M663 598l-72 -67c-54 57 -124 84 -192 82c-160 -3 -242 -137 -242 -265c0 -127 84 -259 242 -259c72 0 153 34 207 99l80 -62c-76 -92 -172 -141 -287 -141c-233 0 -357 181 -357 363s124 368 357 368c103 0 194 -33 264 -118zM529 898l-99 -133h-94l75 133h118z" />
    <glyph glyph-name="cacute" unicode="&#x107;" horiz-adv-x="527" 
d="M482 435l-61 -72c-40 39 -86 54 -129 54c-78 1 -153 -56 -154 -166c0 -87 54 -163 155 -163c43 0 90 22 131 58l62 -71c-54 -54 -122 -86 -193 -86c-173 0 -263 126 -263 264c1 138 94 263 263 264c71 0 132 -26 189 -82zM412 698l-99 -133h-94l75 133h118z" />
    <glyph glyph-name="Ccircumflex" unicode="&#x108;" horiz-adv-x="729" 
d="M663 598l-72 -67c-54 57 -124 84 -192 82c-160 -3 -242 -137 -242 -265c0 -127 84 -259 242 -259c72 0 153 34 207 99l80 -62c-76 -92 -172 -141 -287 -141c-233 0 -357 181 -357 363s124 368 357 368c103 0 194 -33 264 -118zM235 756l102 130h115l101 -130h-97l-63 75
l-63 -75h-95z" />
    <glyph glyph-name="ccircumflex" unicode="&#x109;" horiz-adv-x="527" 
d="M482 435l-61 -72c-40 39 -86 54 -129 54c-78 1 -153 -56 -154 -166c0 -87 54 -163 155 -163c43 0 90 22 131 58l62 -71c-54 -54 -122 -86 -193 -86c-173 0 -263 126 -263 264c1 138 94 263 263 264c71 0 132 -26 189 -82zM127 565l102 130h115l101 -130h-97l-63 75
l-63 -75h-95z" />
    <glyph glyph-name="Cdotaccent" unicode="&#x10a;" horiz-adv-x="729" 
d="M345 763v98h98v-98h-98zM663 598l-72 -67c-54 57 -124 84 -192 82c-160 -3 -242 -137 -242 -265c0 -127 84 -259 242 -259c72 0 153 34 207 99l80 -62c-76 -92 -172 -141 -287 -141c-233 0 -357 181 -357 363s124 368 357 368c103 0 194 -33 264 -118z" />
    <glyph glyph-name="cdotaccent" unicode="&#x10b;" horiz-adv-x="527" 
d="M482 435l-61 -72c-40 39 -86 54 -129 54c-78 1 -153 -56 -154 -166c0 -87 54 -163 155 -163c43 0 90 22 131 58l62 -71c-54 -54 -122 -86 -193 -86c-173 0 -263 126 -263 264c1 138 94 263 263 264c71 0 132 -26 189 -82zM239 584v98h98v-98h-98z" />
    <glyph glyph-name="Ccaron" unicode="&#x10c;" horiz-adv-x="729" 
d="M663 598l-72 -67c-54 57 -124 84 -192 82c-160 -3 -242 -137 -242 -265c0 -127 84 -259 242 -259c72 0 153 34 207 99l80 -62c-76 -92 -172 -141 -287 -141c-233 0 -357 181 -357 363s124 368 357 368c103 0 194 -33 264 -118zM555 891l-102 -130h-115l-101 130h97
l63 -75l63 75h95z" />
    <glyph glyph-name="ccaron" unicode="&#x10d;" horiz-adv-x="527" 
d="M482 435l-61 -72c-40 39 -86 54 -129 54c-78 1 -153 -56 -154 -166c0 -87 54 -163 155 -163c43 0 90 22 131 58l62 -71c-54 -54 -122 -86 -193 -86c-173 0 -263 126 -263 264c1 138 94 263 263 264c71 0 132 -26 189 -82zM439 690l-102 -130h-115l-101 130h97l63 -75
l63 75h95z" />
    <glyph glyph-name="Dcaron" unicode="&#x10e;" horiz-adv-x="728" 
d="M311 705c472 3 477 -706 1 -705h-224v705h223zM311 104c326 -6 321 496 2 496h-111v-496h109zM455 883l-102 -130h-115l-101 130h97l63 -75l63 75h95z" />
    <glyph glyph-name="dcaron" unicode="&#x10f;" horiz-adv-x="633" 
d="M559 701h90c15 -71 15 -116 -35 -180h-60c22 56 28 118 5 180zM39 251c0 156 107 259 230 261c38 1 81 -5 117 -36v224h107v-700h-79l-12 54c-40 -52 -84 -61 -130 -62c-137 -2 -233 122 -233 259zM280 88c44 0 80 11 107 59v241c-30 20 -62 29 -94 29
c-77 -1 -148 -54 -148 -163c0 -91 47 -166 135 -166z" />
    <glyph glyph-name="Dcroat" unicode="&#x110;" horiz-adv-x="731" 
d="M36 300v101h57v304h223c472 3 477 -706 1 -705h-224v300h-57zM316 104c326 -6 321 496 2 496h-111v-199h125v-101h-125v-196h109z" />
    <glyph glyph-name="dcroat" unicode="&#x111;" horiz-adv-x="569" 
d="M292 567v72h94v61h107v-61h69v-72h-69v-567h-79l-12 54c-40 -52 -84 -61 -130 -62c-137 -2 -233 122 -233 259c0 156 107 259 230 261c38 1 81 -5 117 -36v91h-94zM280 88c44 0 80 11 107 59v241c-30 20 -62 29 -94 29c-77 -1 -148 -54 -148 -163c0 -91 47 -166 135 -166
z" />
    <glyph glyph-name="Emacron" unicode="&#x112;" horiz-adv-x="531" 
d="M149 756v84h276v-84h-276zM478 704v-103h-278v-198h274v-103h-274c0 -66 -1 -127 -1 -195h279v-104h-393v703h393z" />
    <glyph glyph-name="emacron" unicode="&#x113;" horiz-adv-x="600" 
d="M152 589v90h271v-90h-271zM294 89c45 0 98 8 140 66l80 -49c-59 -79 -136 -114 -220 -114c-173 0 -260 132 -259 263c0 131 90 263 258 264c147 1 249 -110 249 -252c0 -15 -1 -35 -4 -58h-394c12 -63 65 -120 150 -120zM146 299h290c-15 75 -65 121 -142 123
c-86 -1 -134 -50 -148 -123z" />
    <glyph glyph-name="Ebreve" unicode="&#x114;" horiz-adv-x="531" 
d="M478 704v-103h-278v-198h274v-103h-274c0 -66 -1 -127 -1 -195h279v-104h-393v703h393zM290 747c-73 0 -133 39 -133 128h76c0 -37 30 -54 58 -54c31 0 56 16 56 54h75c0 -89 -60 -128 -132 -128z" />
    <glyph glyph-name="ebreve" unicode="&#x115;" horiz-adv-x="600" 
d="M294 89c45 0 98 8 140 66l80 -49c-59 -79 -136 -114 -220 -114c-173 0 -260 132 -259 263c0 131 90 263 258 264c147 1 249 -110 249 -252c0 -15 -1 -35 -4 -58h-394c12 -63 65 -120 150 -120zM146 299h290c-15 75 -65 121 -142 123c-86 -1 -134 -50 -148 -123zM291 568
c-73 0 -133 39 -133 128h76c0 -37 30 -54 58 -54c31 0 56 16 56 54h75c0 -89 -60 -128 -132 -128z" />
    <glyph glyph-name="Edotaccent" unicode="&#x116;" horiz-adv-x="531" 
d="M237 751v99h108v-99h-108zM478 704v-103h-278v-198h274v-103h-274c0 -66 -1 -127 -1 -195h279v-104h-393v703h393z" />
    <glyph glyph-name="edotaccent" unicode="&#x117;" horiz-adv-x="600" 
d="M294 89c45 0 98 8 140 66l80 -49c-59 -79 -136 -114 -220 -114c-173 0 -260 132 -259 263c0 131 90 263 258 264c147 1 249 -110 249 -252c0 -15 -1 -35 -4 -58h-394c12 -63 65 -120 150 -120zM146 299h290c-15 75 -65 121 -142 123c-86 -1 -134 -50 -148 -123zM240 587
v99h108v-99h-108z" />
    <glyph glyph-name="Eogonek" unicode="&#x118;" horiz-adv-x="531" 
d="M478 704v-103h-278v-198h274v-103h-274c0 -66 -1 -127 -1 -195h279v-104c-83 -30 -78 -108 9 -103l-35 -65s-129 -1 -140 77c-5 33 17 70 53 91h-280v703h393z" />
    <glyph glyph-name="eogonek" unicode="&#x119;" horiz-adv-x="600" 
d="M294 89c45 0 98 8 140 66l80 -49c-30 -40 -65 -69 -102 -88c-57 -42 -20 -99 37 -96l-32 -60s-118 -16 -133 66c-4 20 7 48 32 65c-7 -1 -15 -1 -22 -1c-173 0 -260 132 -259 263c0 131 90 263 258 264c147 1 249 -110 249 -252c0 -15 -1 -35 -4 -58h-394
c12 -63 65 -120 150 -120zM146 299h290c-15 75 -65 121 -142 123c-86 -1 -134 -50 -148 -123z" />
    <glyph glyph-name="Ecaron" unicode="&#x11a;" horiz-adv-x="531" 
d="M478 704v-103h-278v-198h274v-103h-274c0 -66 -1 -127 -1 -195h279v-104h-393v703h393zM449 882l-102 -130h-115l-101 130h97l63 -75l63 75h95z" />
    <glyph glyph-name="ecaron" unicode="&#x11b;" horiz-adv-x="600" 
d="M294 89c45 0 98 8 140 66l80 -49c-59 -79 -136 -114 -220 -114c-173 0 -260 132 -259 263c0 131 90 263 258 264c147 1 249 -110 249 -252c0 -15 -1 -35 -4 -58h-394c12 -63 65 -120 150 -120zM146 299h290c-15 75 -65 121 -142 123c-86 -1 -134 -50 -148 -123zM449 701
l-102 -130h-115l-101 130h97l63 -75l63 75h95z" />
    <glyph glyph-name="Gcircumflex" unicode="&#x11c;" horiz-adv-x="822" 
d="M412 715c110 0 214 -52 285 -137l-82 -67c-54 64 -131 100 -203 100c-158 0 -243 -137 -243 -262s85 -257 243 -257c100 0 207 52 225 174h-280v104h401c7 -238 -133 -384 -346 -384c-233 0 -357 181 -358 363c0 181 125 366 358 366zM250 756l102 130h115l101 -130h-97
l-63 75l-63 -75h-95z" />
    <glyph glyph-name="gcircumflex" unicode="&#x11d;" horiz-adv-x="568" 
d="M149 571l102 130h115l101 -130h-97l-63 75l-63 -75h-95zM39 251c0 156 107 259 230 261c38 1 89 -11 121 -54l19 49h84v-503c0 -230 -303 -266 -438 -117l56 69c43 -45 95 -61 152 -62c65 -1 125 23 125 111v32c-36 -37 -76 -44 -116 -45c-137 -2 -233 122 -233 259z
M280 86c44 0 71 7 107 47v238c-26 32 -62 46 -94 46c-77 -1 -148 -54 -148 -163c0 -91 47 -168 135 -168z" />
    <glyph glyph-name="Gbreve" unicode="&#x11e;" horiz-adv-x="822" 
d="M423 715c110 0 214 -52 285 -137l-82 -67c-54 64 -131 100 -203 100c-158 0 -243 -137 -243 -262s85 -257 243 -257c100 0 207 52 225 174h-280v104h401c7 -238 -133 -384 -346 -384c-233 0 -357 181 -358 363c0 181 125 366 358 366zM422 750c-73 0 -133 39 -133 128h76
c0 -37 30 -54 58 -54c31 0 56 16 56 54h75c0 -89 -60 -128 -132 -128z" />
    <glyph glyph-name="gbreve" unicode="&#x11f;" horiz-adv-x="568" 
d="M300 572c-73 0 -133 39 -133 128h76c0 -37 30 -54 58 -54c31 0 56 16 56 54h75c0 -89 -60 -128 -132 -128zM39 251c0 156 107 259 230 261c38 1 89 -11 121 -54l19 49h84v-503c0 -230 -303 -266 -438 -117l56 69c43 -45 95 -61 152 -62c65 -1 125 23 125 111v32
c-36 -37 -76 -44 -116 -45c-137 -2 -233 122 -233 259zM280 86c44 0 71 7 107 47v238c-26 32 -62 46 -94 46c-77 -1 -148 -54 -148 -163c0 -91 47 -168 135 -168z" />
    <glyph glyph-name="Gdotaccent" unicode="&#x120;" horiz-adv-x="822" 
d="M364 760v101h101v-101h-101zM415 715c110 0 214 -52 285 -137l-82 -67c-54 64 -131 100 -203 100c-158 0 -243 -137 -243 -262s85 -257 243 -257c100 0 207 52 225 174h-280v104h401c7 -238 -133 -384 -346 -384c-233 0 -357 181 -358 363c0 181 125 366 358 366z" />
    <glyph glyph-name="gdotaccent" unicode="&#x121;" horiz-adv-x="568" 
d="M256 598v101h101v-101h-101zM39 251c0 156 107 259 230 261c38 1 89 -11 121 -54l19 49h84v-503c0 -230 -303 -266 -438 -117l56 69c43 -45 95 -67 152 -68c65 -1 125 29 125 117v32c-36 -37 -76 -44 -116 -45c-137 -2 -233 122 -233 259zM280 86c44 0 71 7 107 47v238
c-26 32 -62 46 -94 46c-77 -1 -148 -54 -148 -163c0 -91 47 -168 135 -168z" />
    <glyph glyph-name="Gcommaaccent" unicode="&#x122;" horiz-adv-x="822" 
d="M350 -45h104c20 -68 17 -115 -29 -173l-81 1c20 54 29 90 6 172zM407 715c110 0 214 -52 285 -137l-82 -67c-54 64 -131 100 -203 100c-158 0 -243 -137 -243 -262s85 -257 243 -257c100 0 207 52 225 174h-280v104h401c7 -238 -133 -384 -346 -384
c-233 0 -357 181 -358 363c0 181 125 366 358 366z" />
    <glyph glyph-name="gcommaaccent" unicode="&#x123;" horiz-adv-x="568" 
d="M364 553h-103c-15 48 -12 94 20 154h85c-26 -60 -21 -97 -2 -154zM39 251c0 156 107 259 230 261c38 1 89 -11 121 -54l19 49h84v-503c0 -230 -303 -266 -438 -117l56 69c43 -45 95 -61 152 -62c65 -1 125 23 125 111v32c-36 -37 -76 -44 -116 -45
c-137 -2 -233 122 -233 259zM280 86c44 0 71 7 107 47v238c-26 32 -62 46 -94 46c-77 -1 -148 -54 -148 -163c0 -91 47 -168 135 -168z" />
    <glyph glyph-name="Hcircumflex" unicode="&#x124;" horiz-adv-x="688" 
d="M471 0v297h-269v-297h-115v700h115v-299h269v299h115v-700h-115zM169 750l102 130h115l101 -130h-97l-63 75l-63 -75h-95z" />
    <glyph glyph-name="hcircumflex" unicode="&#x125;" horiz-adv-x="604" 
d="M-28 745l102 130h115l101 -130h-97l-63 75l-63 -75h-95zM72 700h110v-223c39 33 83 38 117 38c129 0 230 -89 230 -229v-286h-109v286c0 73 -47 119 -112 130c-43 8 -87 1 -127 -25v-391h-109v700z" />
    <glyph glyph-name="Hbar" unicode="&#x126;" horiz-adv-x="688" 
d="M30 498v90h57v115h115v-115h269v115h115v-115h58v-90h-58v-498h-115v297h-269v-297h-115v498h-57zM202 401h269v97h-269v-97z" />
    <glyph glyph-name="hbar" unicode="&#x127;" horiz-adv-x="604" 
d="M72 700h110v-59h110v-71h-110v-93c39 33 83 38 117 38c129 0 230 -89 230 -229v-286h-109v286c0 73 -47 119 -112 130c-43 8 -87 1 -127 -25v-391h-109v570h-64v71h64v59z" />
    <glyph glyph-name="Itilde" unicode="&#x128;" horiz-adv-x="284" 
d="M82 0v703h114v-703h-114zM239 858l48 -40c-41 -84 -102 -86 -166 -38c-30 19 -48 6 -78 -29l-53 43c30 50 68 73 107 70c36 -2 59 -30 88 -37c18 -5 35 4 54 31z" />
    <glyph glyph-name="itilde" unicode="&#x129;" horiz-adv-x="240" 
d="M60 509h109v-509h-109v509zM218 686l48 -40c-41 -84 -102 -86 -166 -38c-30 19 -48 6 -78 -29l-53 43c30 50 68 73 107 70c36 -2 59 -30 88 -37c18 -5 35 4 54 31z" />
    <glyph glyph-name="Imacron" unicode="&#x12a;" horiz-adv-x="284" 
d="M1 754v87h278v-87h-278zM82 0v703h114v-703h-114z" />
    <glyph glyph-name="imacron" unicode="&#x12b;" horiz-adv-x="240" 
d="M-5 580v87h247v-87h-247zM172 0h-110v512h110v-512z" />
    <glyph glyph-name="Ibreve" unicode="&#x12c;" horiz-adv-x="284" 
d="M82 0v701h114v-701h-114zM139 746c-73 0 -133 39 -133 128h76c0 -37 30 -54 58 -54c31 0 56 16 56 54h75c0 -89 -60 -128 -132 -128z" />
    <glyph glyph-name="ibreve" unicode="&#x12d;" horiz-adv-x="240" 
d="M171 0h-109v512h109v-512zM117 569c-73 0 -133 39 -133 128h76c0 -37 30 -54 58 -54c31 0 56 16 56 54h75c0 -89 -60 -128 -132 -128z" />
    <glyph glyph-name="Iogonek" unicode="&#x12e;" horiz-adv-x="285" 
d="M81 14v689h114v-693c-88 -40 -74 -112 13 -109l-43 -63c-18 0 -124 -4 -132 75c-5 45 19 77 48 101z" />
    <glyph glyph-name="iogonek" unicode="&#x12f;" horiz-adv-x="240" 
d="M29 -83c-5 24 7 60 33 86v509h109l-1 -504c-73 -32 -57 -108 13 -106l-39 -69c-17 3 -102 7 -115 84zM61 577v122h113v-122h-113z" />
    <glyph glyph-name="Idotaccent" unicode="&#x130;" horiz-adv-x="283" 
d="M80 751v114h116v-114h-116zM82 0v703h114v-703h-114z" />
    <glyph glyph-name="dotlessi" unicode="&#x131;" horiz-adv-x="240" 
d="M171 0h-109v512h109v-512z" />
    <glyph glyph-name="IJ" unicode="&#x132;" horiz-adv-x="616" 
d="M85 0v703h114v-703h-114zM266 -6v103c101 -4 153 30 153 107v393h-126v103h241v-496c0 -149 -113 -220 -268 -210z" />
    <glyph glyph-name="ij" unicode="&#x133;" horiz-adv-x="509" 
d="M69 580v120h114v-120h-114zM179 0h-109v512h109v-512zM229 -191v92c61 -5 74 25 74 66v540h109v-540c0 -117 -63 -171 -183 -158zM302 578h111v122h-111v-122z" />
    <glyph glyph-name="Jcircumflex" unicode="&#x134;" horiz-adv-x="545" 
d="M15 183l100 22c16 -78 79 -114 130 -114s101 40 101 113v393h-126v103h241v-496c0 -144 -106 -216 -215 -216c-99 0 -203 59 -231 195zM144 748l102 130h115l101 -130h-97l-63 75l-63 -75h-95z" />
    <glyph glyph-name="jcircumflex" unicode="&#x135;" horiz-adv-x="240" 
d="M-14 -191v92c61 -5 74 25 74 66v540h109v-540c0 -117 -63 -171 -183 -158zM-46 566l102 130h115l101 -130h-97l-63 75l-63 -75h-95z" />
    <glyph glyph-name="Kcommaaccent" unicode="&#x136;" horiz-adv-x="634" 
d="M287 -12h104c18 -69 13 -112 -32 -173h-84c23 52 40 96 12 173zM87 705h115v-307l276 307h136l-275 -311l282 -394h-132l-225 319l-62 -62v-257h-115v705z" />
    <glyph glyph-name="kcommaaccent" unicode="&#x137;" horiz-adv-x="517" 
d="M68 700h106v-390l197 198h133l-221 -225l228 -283h-129l-171 212l-37 -35v-177h-106v700zM214 -11h104c18 -69 13 -112 -32 -173h-84c23 52 40 96 12 173z" />
    <glyph glyph-name="kgreenlandic" unicode="&#x138;" horiz-adv-x="517" 
d="M68 508h106v-198l197 198h133l-221 -225l228 -283h-129l-171 212l-37 -35v-177h-106v508z" />
    <glyph glyph-name="Lacute" unicode="&#x139;" horiz-adv-x="479" 
d="M457 105v-105h-372v700h115v-595h257zM285 885l-99 -133h-94l75 133h118z" />
    <glyph glyph-name="lacute" unicode="&#x13a;" horiz-adv-x="272" 
d="M242 97v-98c-120 -13 -184 40 -184 157v544h109v-544c0 -41 14 -64 75 -59zM256 886l-99 -133h-94l75 133h118z" />
    <glyph glyph-name="Lcommaaccent" unicode="&#x13b;" horiz-adv-x="479" 
d="M209 -29h111c18 -70 13 -108 -20 -172h-97c26 67 30 97 6 172zM457 105v-105h-372v700h115v-595h257z" />
    <glyph glyph-name="lcommaaccent" unicode="&#x13c;" horiz-adv-x="272" 
d="M242 97v-98c-120 -13 -184 40 -184 157v544h109v-544c0 -41 14 -64 75 -59zM112 -29h105c17 -69 12 -109 -20 -172h-91c24 65 27 107 6 172z" />
    <glyph glyph-name="Lcaron" unicode="&#x13d;" horiz-adv-x="479" 
d="M263 700h106c20 -66 9 -115 -22 -172h-89c21 48 30 98 5 172zM457 105v-105h-372v700h115v-595h257z" />
    <glyph glyph-name="lcaron" unicode="&#x13e;" horiz-adv-x="306" 
d="M242 97v-98c-120 -13 -184 40 -184 157v544h109v-544c0 -41 14 -64 75 -59zM220 700h100c20 -66 9 -115 -22 -172h-83c21 48 30 98 5 172z" />
    <glyph glyph-name="Ldot" unicode="&#x13f;" horiz-adv-x="478" 
d="M281 329v115h111v-115h-111zM457 105v-105h-372v700h115v-595h257z" />
    <glyph glyph-name="ldot" unicode="&#x140;" horiz-adv-x="314" 
d="M242 97v-98c-120 -13 -184 40 -184 157v544h109v-544c0 -41 14 -64 75 -59zM212 329v111h99v-111h-99z" />
    <glyph glyph-name="Lslash" unicode="&#x141;" horiz-adv-x="478" 
d="M457 105v-105h-372v271c-36 -20 -62 -34 -62 -33v107l62 35v320h115v-254l111 63v-112s-52 -29 -111 -62v-230h257z" />
    <glyph glyph-name="lslash" unicode="&#x142;" horiz-adv-x="272" 
d="M242 97v-98c-120 -13 -184 40 -184 157v110l-44 -25v98l44 25v336h109v-272l81 47v-98l-81 -47v-174c0 -41 14 -64 75 -59z" />
    <glyph glyph-name="Nacute" unicode="&#x143;" horiz-adv-x="733" 
d="M220 704l257 -456l48 -105l3 1l-15 130v430h115v-704h-131l-259 456l-49 105l-3 -1l16 -130v-430h-115v704h133zM492 891l-99 -133h-94l75 133h118z" />
    <glyph glyph-name="nacute" unicode="&#x144;" horiz-adv-x="606" 
d="M433 699l-94 -127h-89l71 127h112zM70 507h90l14 -56c32 51 94 64 128 64c129 0 230 -89 230 -229v-286h-109v286c0 128 -161 179 -244 84v-370h-109v507z" />
    <glyph glyph-name="Ncommaaccent" unicode="&#x145;" horiz-adv-x="733" 
d="M301 1h107c22 -68 11 -117 -19 -172h-93c22 59 31 96 5 172zM220 704l257 -456l48 -105l3 1l-15 130v430h115v-704h-131l-259 456l-49 105l-3 -1l16 -130v-430h-115v704h133z" />
    <glyph glyph-name="ncommaaccent" unicode="&#x146;" horiz-adv-x="606" 
d="M252 -4h100c22 -68 11 -117 -19 -172h-86c22 59 31 96 5 172zM70 507h90l14 -56c32 51 94 64 128 64c129 0 230 -89 230 -229v-286h-109v286c0 128 -161 179 -244 84v-370h-109v507z" />
    <glyph glyph-name="Ncaron" unicode="&#x147;" horiz-adv-x="733" 
d="M220 704l257 -456l48 -105l3 1l-15 130v430h115v-704h-131l-259 456l-49 105l-3 -1l16 -130v-430h-115v704h133zM529 882l-102 -130h-115l-101 130h97l63 -75l63 75h95z" />
    <glyph glyph-name="ncaron" unicode="&#x148;" horiz-adv-x="606" 
d="M455 701l-101 -128h-113l-100 128h96l62 -74l62 74h94zM70 507h90l14 -56c32 51 94 64 128 64c129 0 230 -89 230 -229v-286h-109v286c0 128 -161 179 -244 84v-370h-109v507z" />
    <glyph glyph-name="napostrophe" unicode="&#x149;" horiz-adv-x="628" 
d="M-17 707h98c20 -71 12 -106 -18 -169h-86c19 53 31 100 6 169zM92 507h90l14 -56c32 51 94 64 128 64c129 0 230 -89 230 -229v-286h-109v286c0 128 -161 179 -244 84v-370h-109v507z" />
    <glyph glyph-name="Eng" unicode="&#x14a;" horiz-adv-x="733" 
d="M220 704l257 -439l48 -105l3 1l-15 130v413h115v-733c0 -117 -89 -171 -209 -159v99c62 -4 91 17 91 60v29h-3l-269 456l-49 105l-3 -1l16 -130v-430h-115v704h133z" />
    <glyph glyph-name="eng" unicode="&#x14b;" horiz-adv-x="606" 
d="M70 507h90l14 -56c32 51 94 64 128 64c129 0 230 -89 230 -229v-315c0 -116 -80 -167 -199 -156v85c73 -5 91 29 91 71v315c0 128 -162 179 -245 84v-370h-109v507z" />
    <glyph glyph-name="Omacron" unicode="&#x14c;" horiz-adv-x="820" 
d="M259 762v83h279v-83h-279zM400 715c197 0 358 -157 358 -366c0 -210 -161 -364 -358 -364s-358 151 -358 364c0 212 161 366 358 366zM158 349c0 -168 120 -260 242 -260c121 0 243 92 243 260c0 167 -122 263 -244 262c-121 -1 -241 -96 -241 -262z" />
    <glyph glyph-name="omacron" unicode="&#x14d;" 
d="M152 589v85h274v-85h-274zM140 253c0 -112 81 -166 156 -166c77 0 155 54 155 166s-78 164 -155 164c-75 0 -156 -52 -156 -164zM560 253c0 -147 -111 -264 -264 -264c-152 0 -265 117 -265 264c0 148 113 263 265 263c153 0 264 -115 264 -263z" />
    <glyph glyph-name="Obreve" unicode="&#x14e;" horiz-adv-x="820" 
d="M400 715c197 0 358 -157 358 -366c0 -210 -161 -364 -358 -364s-358 151 -358 364c0 212 161 366 358 366zM158 349c0 -168 120 -260 242 -260c121 0 243 92 243 260c0 167 -122 263 -244 262c-121 -1 -241 -96 -241 -262zM401 758c-73 0 -133 39 -133 128h76
c0 -37 30 -54 58 -54c31 0 56 16 56 54h75c0 -89 -60 -128 -132 -128z" />
    <glyph glyph-name="obreve" unicode="&#x14f;" 
d="M140 253c0 -112 81 -166 156 -166c77 0 155 54 155 166s-78 164 -155 164c-75 0 -156 -52 -156 -164zM560 253c0 -147 -111 -264 -264 -264c-152 0 -265 117 -265 264c0 148 113 263 265 263c153 0 264 -115 264 -263zM296 568c-73 0 -133 39 -133 128h76
c0 -37 30 -54 58 -54c31 0 56 16 56 54h75c0 -89 -60 -128 -132 -128z" />
    <glyph glyph-name="Ohungarumlaut" unicode="&#x150;" horiz-adv-x="820" 
d="M400 715c197 0 358 -157 358 -366c0 -210 -161 -364 -358 -364s-358 151 -358 364c0 212 161 366 358 366zM158 349c0 -168 120 -260 242 -260c121 0 243 92 243 260c0 167 -122 263 -244 262c-121 -1 -241 -96 -241 -262zM270 759l70 124h103l-85 -124h-88zM421 759
l70 124h103l-85 -124h-88z" />
    <glyph glyph-name="ohungarumlaut" unicode="&#x151;" 
d="M162 563l76 134h103l-91 -134h-88zM140 253c0 -112 81 -166 156 -166c77 0 155 54 155 166s-78 164 -155 164c-75 0 -156 -52 -156 -164zM560 253c0 -147 -111 -264 -264 -264c-152 0 -265 117 -265 264c0 148 113 263 265 263c153 0 264 -115 264 -263zM309 563l76 134
h103l-91 -134h-88z" />
    <glyph glyph-name="OE" unicode="&#x152;" horiz-adv-x="949" 
d="M407 713c33 0 63 -3 94 -12h371v-108h-285v-188h282v-107h-282c0 -66 -1 -121 -1 -189h286v-108h-366c-31 -10 -64 -15 -99 -15c-215 0 -362 133 -362 363c0 227 166 364 362 364zM483 93v513c-22 7 -50 10 -71 10c-143 0 -252 -95 -252 -267c0 -177 108 -267 252 -267
c21 0 49 4 71 11z" />
    <glyph glyph-name="oe" unicode="&#x153;" horiz-adv-x="1046" 
d="M148 255c0 -127 82 -171 157 -171c77 0 161 65 161 177s-80 160 -157 160c-75 0 -161 -51 -161 -166zM718 87c48 0 107 21 143 67l75 -54c-59 -79 -136 -109 -220 -109c-77 0 -161 28 -205 122c-40 -93 -124 -125 -205 -126c-176 -2 -266 136 -264 271
c2 133 93 263 267 263c81 0 165 -38 208 -119c36 68 109 118 202 118c154 0 251 -108 251 -262c0 -13 0 -28 -1 -49l-399 -1c17 -62 67 -121 148 -121zM571 297h289c-7 81 -60 126 -141 127c-84 0 -137 -56 -148 -127z" />
    <glyph glyph-name="Racute" unicode="&#x154;" horiz-adv-x="616" 
d="M382 275l211 -275h-136l-206 271h-49v-271h-115v701h230c138 0 243 -62 245 -217c1 -127 -79 -194 -180 -209zM202 372h116c79 0 129 40 129 112c0 74 -53 113 -129 113h-116v-225zM417 881l-99 -133h-94l75 133h118z" />
    <glyph glyph-name="racute" unicode="&#x155;" horiz-adv-x="415" 
d="M66 509h94l7 -54c32 58 86 64 120 65c35 0 80 -10 116 -33l-46 -88c-77 48 -183 18 -183 -81v-318h-108v509zM347 704l-99 -133h-94l75 133h118z" />
    <glyph glyph-name="Rcommaaccent" unicode="&#x156;" horiz-adv-x="616" 
d="M267 -8h105c13 -76 7 -115 -20 -172h-91c20 57 22 101 6 172zM382 275l211 -275h-136l-206 271h-49v-271h-115v701h230c138 0 243 -62 245 -217c1 -127 -79 -194 -180 -209zM202 372h116c79 0 129 40 129 112c0 74 -53 113 -129 113h-116v-225z" />
    <glyph glyph-name="rcommaaccent" unicode="&#x157;" horiz-adv-x="415" 
d="M66 509h94l7 -54c32 58 86 64 120 65c35 0 80 -10 116 -33l-46 -88c-77 48 -183 18 -183 -81v-318h-108v509zM69 -32h105c13 -76 7 -110 -20 -167h-91c20 57 22 96 6 167z" />
    <glyph glyph-name="Rcaron" unicode="&#x158;" horiz-adv-x="616" 
d="M382 275l211 -275h-136l-206 271h-49v-271h-115v701h230c138 0 243 -62 245 -217c1 -127 -79 -194 -180 -209zM202 372h116c79 0 129 40 129 112c0 74 -53 113 -129 113h-116v-225zM460 880l-102 -130h-115l-101 130h97l63 -75l63 75h95z" />
    <glyph glyph-name="rcaron" unicode="&#x159;" horiz-adv-x="415" 
d="M66 509h94l7 -54c32 58 86 64 120 65c35 0 80 -10 116 -33l-46 -88c-77 48 -183 18 -183 -81v-318h-108v509zM388 700l-99 -126h-111l-98 126h94l61 -73l61 73h92z" />
    <glyph glyph-name="Sacute" unicode="&#x15a;" horiz-adv-x="558" 
d="M161 517c-4 -66 70 -93 120 -106c108 -28 221 -73 215 -231c-7 -133 -126 -196 -236 -196c-93 0 -191 52 -232 162l87 45c33 -71 89 -103 148 -103c69 -1 117 39 120 98c6 84 -74 110 -132 125c-89 24 -207 68 -202 209c3 137 115 197 221 197c92 0 179 -53 216 -156
l-90 -41c-26 65 -79 95 -127 95c-52 1 -104 -30 -108 -98zM412 895l-99 -133h-94l75 133h118z" />
    <glyph glyph-name="sacute" unicode="&#x15b;" horiz-adv-x="439" 
d="M227 305c86 -16 168 -61 168 -160c0 -116 -107 -156 -189 -156c-69 0 -133 29 -179 94l68 66c28 -36 68 -59 108 -62c38 -2 86 12 86 55c0 49 -52 64 -86 70c-84 14 -161 55 -162 151c0 100 90 155 184 155c52 0 109 -16 158 -67l-60 -67c-32 25 -61 38 -96 38
c-33 0 -81 -14 -80 -60c1 -44 48 -50 80 -57zM350 698l-96 -133h-94l72 133h118z" />
    <glyph glyph-name="Scircumflex" unicode="&#x15c;" horiz-adv-x="559" 
d="M161 517c-4 -66 70 -93 120 -106c108 -28 221 -73 215 -231c-7 -133 -126 -196 -236 -196c-93 0 -191 52 -232 162l87 45c33 -71 89 -103 148 -103c69 -1 117 39 120 98c6 84 -74 110 -132 125c-89 24 -207 68 -202 209c3 137 115 197 221 197c92 0 179 -53 216 -156
l-90 -41c-26 65 -79 95 -127 95c-52 1 -104 -30 -108 -98zM114 760l102 130h115l101 -130h-97l-63 75l-63 -75h-95z" />
    <glyph glyph-name="scircumflex" unicode="&#x15d;" horiz-adv-x="439" 
d="M227 305c86 -16 168 -61 168 -160c0 -116 -107 -156 -189 -156c-69 0 -133 29 -179 94l68 66c28 -36 68 -59 108 -62c38 -2 86 12 86 55c0 49 -52 64 -86 70c-84 14 -161 55 -162 151c0 100 90 155 184 155c52 0 109 -16 158 -67l-60 -67c-32 25 -61 38 -96 38
c-33 0 -81 -14 -80 -60c1 -44 48 -50 80 -57zM79 569l95 121h108l94 -121h-91l-58 70l-59 -70h-89z" />
    <glyph glyph-name="Scedilla" unicode="&#x15e;" horiz-adv-x="558" 
d="M161 517c-4 -66 70 -93 120 -106c108 -28 221 -73 215 -231c-6 -117 -91 -180 -186 -193l-16 -34c66 -12 77 -54 71 -87c-15 -87 -136 -103 -209 -48l22 49c50 -24 100 -26 102 8c3 40 -44 41 -59 25l-18 18l34 68c-85 11 -173 63 -209 160l87 45
c33 -71 89 -103 148 -103c69 -1 117 39 120 98c6 84 -74 110 -132 125c-89 24 -207 68 -202 209c3 137 115 197 221 197c92 0 179 -53 216 -156l-90 -41c-26 65 -79 95 -127 95c-52 1 -104 -30 -108 -98z" />
    <glyph glyph-name="scedilla" unicode="&#x15f;" horiz-adv-x="438" 
d="M227 305c86 -16 168 -61 168 -160c0 -97 -75 -141 -148 -152l-16 -28c67 -7 84 -55 76 -82c-18 -64 -125 -73 -193 -32l21 38c46 -19 104 -22 106 9c3 30 -56 40 -70 28l-16 13l31 51c-61 5 -118 34 -159 93l68 66c28 -36 68 -59 108 -62c38 -2 86 12 86 55
c0 49 -52 64 -86 70c-84 14 -161 55 -162 151c0 100 90 155 184 155c52 0 109 -16 158 -67l-60 -67c-32 25 -61 38 -96 38c-33 0 -81 -14 -80 -60c1 -44 48 -50 80 -57z" />
    <glyph glyph-name="Tcommaaccent" unicode="&#x162;" horiz-adv-x="467" 
d="M3 702h446v-105h-165v-597h-115v597h-166v105zM284 1l-18 -62c55 -9 68 -55 50 -94c-25 -54 -115 -88 -207 -40l22 46c49 -22 106 -22 116 10c6 18 -26 44 -59 29l-18 17l27 94h87z" />
    <glyph glyph-name="tcommaaccent" unicode="&#x163;" horiz-adv-x="307" 
d="M221 -2l-6 -37c55 -9 79 -57 61 -96c-27 -58 -106 -88 -200 -38l22 46c49 -22 99 -22 109 10c6 18 -23 48 -56 33l-16 13l19 84c-51 23 -82 70 -82 144v254h-60v96h60v193h108v-193h94v-96h-94v-251c0 -41 33 -68 94 -63v-98c-19 -2 -36 -2 -53 -1z" />
    <glyph glyph-name="Tcaron" unicode="&#x164;" horiz-adv-x="467" 
d="M3 702h446v-105h-165v-597h-115v597h-166v105zM386 882l-102 -130h-115l-101 130h97l63 -75l63 75h95z" />
    <glyph glyph-name="tcaron" unicode="&#x165;" horiz-adv-x="314" 
d="M249 704h92c13 -42 -1 -109 -19 -149h-80c13 30 26 91 7 149zM274 -1v98c-61 -5 -94 22 -94 63v248h94v96h-94v196h-108v-196h-60v-96h60v-251c0 -122 84 -170 202 -158z" />
    <glyph glyph-name="Tbar" unicode="&#x166;" horiz-adv-x="464" 
d="M45 300v89h124v208h-166v105h446v-105h-165v-208h126v-89h-126v-300h-115v300h-124z" />
    <glyph glyph-name="tbar" unicode="&#x167;" horiz-adv-x="307" 
d="M274 97v-98c-118 -12 -202 36 -202 158v60h-48v79h48v115h-60v96h60v193h108v-193h94v-96h-94v-115h83v-79h-83v-57c0 -41 33 -68 94 -63z" />
    <glyph glyph-name="Utilde" unicode="&#x168;" horiz-adv-x="654" 
d="M77 700h115v-490c0 -84 63 -119 127 -119s129 35 129 119v490h115v-490c0 -158 -123 -223 -244 -223c-122 0 -242 65 -242 223v490zM433 862l54 -42c-46 -86 -112 -89 -183 -39c-33 20 -53 7 -85 -30l-58 44c33 52 75 80 117 77c35 -2 66 -34 97 -42c20 -5 38 4 58 32z
" />
    <glyph glyph-name="utilde" unicode="&#x169;" horiz-adv-x="602" 
d="M408 695l53 -40c-45 -84 -109 -87 -178 -38c-32 19 -51 6 -83 -30l-56 43c32 51 73 78 114 75c34 -2 64 -33 94 -41c20 -5 37 4 56 31zM527 0h-90l-14 56c-32 -51 -94 -64 -128 -64c-129 0 -230 89 -230 229v286h109v-286c0 -128 161 -179 244 -84v370h109v-507z" />
    <glyph glyph-name="Umacron" unicode="&#x16a;" horiz-adv-x="654" 
d="M181 756v86h279v-86h-279zM77 700h115v-490c0 -84 63 -119 127 -119s129 35 129 119v490h115v-490c0 -158 -123 -223 -244 -223c-122 0 -242 65 -242 223v490z" />
    <glyph glyph-name="umacron" unicode="&#x16b;" horiz-adv-x="602" 
d="M166 608v86h269v-86h-269zM527 0h-90l-14 56c-32 -51 -94 -64 -128 -64c-129 0 -230 89 -230 229v286h109v-286c0 -128 161 -179 244 -84v370h109v-507z" />
    <glyph glyph-name="Ubreve" unicode="&#x16c;" horiz-adv-x="655" 
d="M77 700h115v-490c0 -84 63 -119 127 -119s129 35 129 119v490h115v-490c0 -158 -123 -223 -244 -223c-122 0 -242 65 -242 223v490zM319 748c-73 0 -133 39 -133 128h76c0 -37 30 -54 58 -54c31 0 56 16 56 54h75c0 -89 -60 -128 -132 -128z" />
    <glyph glyph-name="ubreve" unicode="&#x16d;" horiz-adv-x="602" 
d="M298 571c-73 0 -133 39 -133 128h76c0 -37 30 -54 58 -54c31 0 56 16 56 54h75c0 -89 -60 -128 -132 -128zM527 0h-90l-14 56c-32 -51 -94 -64 -128 -64c-129 0 -230 89 -230 229v286h109v-286c0 -128 161 -179 244 -84v370h109v-507z" />
    <glyph glyph-name="Uring" unicode="&#x16e;" horiz-adv-x="655" 
d="M77 700h115v-490c0 -84 63 -119 127 -119s129 35 129 119v490h115v-490c0 -158 -123 -223 -244 -223c-122 0 -242 65 -242 223v490zM322 733c-54 0 -100 34 -100 90s46 90 100 90c52 0 100 -34 100 -90s-48 -90 -100 -90zM281 823c0 -20 16 -36 40 -36c25 0 41 17 41 37
c0 22 -16 37 -41 37c-24 0 -40 -16 -40 -38z" />
    <glyph glyph-name="uring" unicode="&#x16f;" horiz-adv-x="602" 
d="M298 532c-54 0 -100 34 -100 90s46 90 100 90c52 0 100 -34 100 -90s-48 -90 -100 -90zM257 622c0 -20 16 -36 40 -36c25 0 41 17 41 37c0 22 -16 37 -41 37c-24 0 -40 -16 -40 -38zM527 0h-90l-14 56c-32 -51 -94 -64 -128 -64c-129 0 -230 89 -230 229v286h109v-286
c0 -128 161 -179 244 -84v370h109v-507z" />
    <glyph glyph-name="Uhungarumlaut" unicode="&#x170;" horiz-adv-x="655" 
d="M77 700h115v-490c0 -84 63 -119 127 -119s129 35 129 119v490h115v-490c0 -158 -123 -223 -244 -223c-122 0 -242 65 -242 223v490zM188 751l70 124h103l-85 -124h-88zM339 751l70 124h103l-85 -124h-88z" />
    <glyph glyph-name="uhungarumlaut" unicode="&#x171;" horiz-adv-x="602" 
d="M165 578l70 124h103l-85 -124h-88zM316 578l70 124h103l-85 -124h-88zM527 0h-90l-14 56c-32 -51 -94 -64 -128 -64c-129 0 -230 89 -230 229v286h109v-286c0 -128 161 -179 244 -84v370h109v-507z" />
    <glyph glyph-name="Uogonek" unicode="&#x172;" horiz-adv-x="655" 
d="M77 700h115v-490c0 -84 63 -119 127 -119s129 35 129 119v490h115v-490c0 -97 -46 -159 -110 -193l1 1c-78 -49 -45 -114 28 -105l-31 -78c-116 -15 -180 54 -114 152h-18c-122 0 -242 65 -242 223v490z" />
    <glyph glyph-name="uogonek" unicode="&#x173;" horiz-adv-x="602" 
d="M527 0c-82 -27 -56 -100 14 -96l-26 -57c-92 -13 -175 65 -78 154l-14 55c-32 -51 -94 -64 -128 -64c-129 0 -230 89 -230 229v286h109v-286c0 -128 161 -179 244 -84v370h109v-507z" />
    <glyph glyph-name="Wcircumflex" unicode="&#x174;" horiz-adv-x="954" 
d="M469 488l-25 -137l-95 -354h-138l-185 705h119l119 -486l16 -120h4l19 120l105 402h126l105 -402l19 -120h4l16 120l119 486h119l-185 -705h-138l-95 354l-25 137h-4zM317 748l102 130h115l101 -130h-97l-63 75l-63 -75h-95z" />
    <glyph glyph-name="wcircumflex" unicode="&#x175;" horiz-adv-x="728" 
d="M347 398l-23 -168l-54 -230h-142l-124 510h111l56 -251l26 -165h4l25 165l63 248h120l63 -248l25 -165h4l26 165l56 251h111l-124 -510h-142l-54 230l-24 168h-3zM192 570l102 130h115l101 -130h-97l-63 75l-63 -75h-95z" />
    <glyph glyph-name="Ycircumflex" unicode="&#x176;" horiz-adv-x="589" 
d="M126 751l102 130h115l101 -130h-97l-63 75l-63 -75h-95zM584 705l-241 -424v-281h-113v282l-240 423h131l166 -306l164 306h133z" />
    <glyph glyph-name="ycircumflex" unicode="&#x177;" horiz-adv-x="511" 
d="M95 571l102 130h115l101 -130h-97l-63 75l-63 -75h-95zM73 -191v89c62 -7 85 17 95 43l30 74l-203 492h117l143 -359l130 359h117l-235 -604c-36 -89 -113 -103 -194 -94z" />
    <glyph glyph-name="Zacute" unicode="&#x179;" horiz-adv-x="568" 
d="M423 885l-99 -133h-94l75 133h118zM514 705v-95l-341 -505h342v-105h-466v101l249 369l96 132h-338v103h458z" />
    <glyph glyph-name="zacute" unicode="&#x17a;" horiz-adv-x="468" 
d="M357 700l-97 -133h-90l73 133h114zM41 0v88l160 218l87 106h-245v96h374v-71l-257 -343h260v-94h-379z" />
    <glyph glyph-name="Zdotaccent" unicode="&#x17b;" horiz-adv-x="568" 
d="M241 755v96h102v-96h-102zM514 705v-95l-341 -505h342v-105h-466v101l249 369l96 132h-338v103h458z" />
    <glyph glyph-name="zdotaccent" unicode="&#x17c;" horiz-adv-x="468" 
d="M178 565v94h98v-94h-98zM41 0v88l160 218l87 106h-245v96h374v-71l-257 -343h260v-94h-379z" />
    <glyph glyph-name="longs" unicode="&#x17f;" horiz-adv-x="270" 
d="M281 700v-95c-62 4 -96 -15 -96 -60v-545h-109v414h-55v93h55v38c0 116 87 167 205 155z" />
    <glyph glyph-name="florin" unicode="&#x192;" horiz-adv-x="541" 
d="M517 714l-17 -95c-90 12 -110 -38 -120 -113h100l-17 -104h-102l-88 -459c-22 -135 -128 -193 -267 -149l17 85c73 -18 120 8 136 82c26 139 60 302 87 441h-88l18 104h90l9 46c17 103 91 184 242 162z" />
    <glyph glyph-name="Scommaaccent" unicode="&#x218;" horiz-adv-x="558" 
d="M213 -55h103c14 -61 7 -107 -17 -156h-93c22 54 27 97 7 156zM161 517c-4 -66 70 -93 120 -106c108 -28 221 -73 215 -231c-7 -133 -126 -196 -236 -196c-93 0 -191 52 -232 162l87 45c33 -71 89 -103 148 -103c69 -1 117 39 120 98c6 84 -74 110 -132 125
c-89 24 -207 68 -202 209c3 137 115 197 221 197c92 0 179 -53 216 -156l-90 -41c-26 65 -79 95 -127 95c-52 1 -104 -30 -108 -98z" />
    <glyph glyph-name="scommaaccent" unicode="&#x219;" horiz-adv-x="439" 
d="M227 305c86 -16 168 -61 168 -160c0 -116 -107 -156 -189 -156c-69 0 -133 29 -179 94l68 66c28 -36 68 -59 108 -62c38 -2 86 12 86 55c0 49 -52 64 -86 70c-84 14 -161 55 -162 151c0 100 90 155 184 155c52 0 109 -16 158 -67l-60 -67c-32 25 -61 38 -96 38
c-33 0 -81 -14 -80 -60c1 -44 48 -50 80 -57zM160 -45h99c14 -61 7 -105 -17 -154h-89c22 54 27 95 7 154z" />
    <glyph glyph-name="uni021A" unicode="&#x21a;" horiz-adv-x="451" 
d="M-3 702h446v-110h-165v-592h-115v592h-166v110zM174 -42h103c14 -61 7 -107 -17 -156h-93c22 54 27 97 7 156z" />
    <glyph glyph-name="uni021B" unicode="&#x21b;" horiz-adv-x="307" 
d="M275 97v-98c-118 -12 -204 40 -204 156v261h-49v91h49v179h108v-179h96v-91h-96v-261c0 -41 35 -63 96 -58zM133 -49h103c14 -61 7 -107 -17 -156h-93c22 54 27 97 7 156z" />
    <glyph glyph-name="circumflex" unicode="&#x2c6;" horiz-adv-x="509" 
d="M88 714l102 130h115l101 -130h-97l-63 75l-63 -75h-95z" />
    <glyph glyph-name="caron" unicode="&#x2c7;" horiz-adv-x="509" 
d="M401 842l-99 -126h-111l-98 126h94l61 -72l61 72h92z" />
    <glyph glyph-name="breve" unicode="&#x2d8;" horiz-adv-x="509" 
d="M247 708c-73 0 -133 39 -133 128h76c0 -37 30 -54 58 -54c31 0 56 16 56 54h75c0 -89 -60 -128 -132 -128z" />
    <glyph glyph-name="dotaccent" unicode="&#x2d9;" horiz-adv-x="510" 
d="M197 741v99h99v-99h-99z" />
    <glyph glyph-name="ring" unicode="&#x2da;" horiz-adv-x="510" 
d="M247 690c-54 0 -100 34 -100 90s46 90 100 90c52 0 100 -34 100 -90s-48 -90 -100 -90zM206 780c0 -20 16 -36 40 -36c25 0 41 17 41 37c0 22 -16 37 -41 37c-24 0 -40 -16 -40 -38z" />
    <glyph glyph-name="ogonek" unicode="&#x2db;" horiz-adv-x="509" 
d="M155 -85c-13 86 95 141 95 141l65 -18c-70 -38 -119 -150 17 -135l-37 -68c-35 -5 -127 -12 -140 80z" />
    <glyph glyph-name="tilde" unicode="&#x2dc;" horiz-adv-x="490" 
d="M348 823l54 -43c-46 -90 -113 -93 -184 -41c-33 21 -53 7 -86 -31l-58 46c33 54 75 83 118 80c35 -2 66 -36 97 -44c20 -5 39 4 59 33z" />
    <glyph glyph-name="hungarumlaut" unicode="&#x2dd;" horiz-adv-x="491" 
d="M61 699l80 145h111l-96 -145h-95zM231 699l80 145h111l-96 -145h-95z" />
    <glyph glyph-name="uni1E9E" unicode="&#x1e9e;" horiz-adv-x="585" 
d="M212 1v106c93 -44 195 11 195 104c0 57 -43 114 -127 114h-66v102h66c61 0 93 53 91 97c-4 62 -50 84 -97 84c-48 0 -95 -35 -95 -89v-519h-113v519c0 124 100 194 208 194c109 0 205 -62 205 -190c0 -47 -24 -111 -82 -140c84 -34 129 -109 128 -172
c4 -182 -160 -251 -313 -210z" />
    <glyph glyph-name="endash" unicode="&#x2013;" horiz-adv-x="697" 
d="M83 233v102h510v-102h-510z" />
    <glyph glyph-name="emdash" unicode="&#x2014;" horiz-adv-x="867" 
d="M86 233v103h678v-103h-678z" />
    <glyph glyph-name="quoteleft" unicode="&#x2018;" horiz-adv-x="237" 
d="M207 703l-55 -213h-121l79 213h97z" />
    <glyph glyph-name="quoteright" unicode="&#x2019;" horiz-adv-x="229" 
d="M35 505l53 199h122l-80 -199h-95z" />
    <glyph glyph-name="quotedblleft" unicode="&#x201c;" horiz-adv-x="400" 
d="M209 703l-49 -197h-121l73 197h97zM373 703l-49 -197h-121l73 197h97z" />
    <glyph glyph-name="quotedblright" unicode="&#x201d;" horiz-adv-x="400" 
d="M39 506l52 198h119l-74 -198h-97zM200 506l52 198h119l-74 -198h-97z" />
    <glyph glyph-name="dagger" unicode="&#x2020;" horiz-adv-x="429" 
d="M146 -47v461h-124v92h124v187h104v-187h130v-92h-130v-461h-104z" />
    <glyph glyph-name="daggerdbl" unicode="&#x2021;" horiz-adv-x="445" 
d="M38 150v92h126v182h-126v91h126v187h102v-187h129v-91h-129v-182h129v-92h-129v-208h-102v208h-126z" />
    <glyph glyph-name="bullet" unicode="&#x2022;" horiz-adv-x="434" 
d="M204 149c-79 0 -141 61 -141 140c0 78 62 139 141 139s140 -61 140 -139c0 -79 -61 -140 -140 -140z" />
    <glyph glyph-name="guilsinglleft" unicode="&#x2039;" horiz-adv-x="388" 
d="M197 72l-167 208l167 209h131l-166 -209l166 -208h-131z" />
    <glyph glyph-name="guilsinglright" unicode="&#x203a;" horiz-adv-x="356" 
d="M19 72l163 208c-50 63 -117 149 -165 209h131l167 -209l-167 -208h-129z" />
    <glyph glyph-name="fraction" unicode="&#x2044;" horiz-adv-x="178" 
d="M-48 -44h-105l355 744h105z" />
    <glyph glyph-name="Euro" unicode="&#x20ac;" horiz-adv-x="666" 
d="M41 457h57c39 136 153 253 336 253c53 0 108 -14 164 -41l-45 -92c-42 21 -84 29 -119 29c-110 -2 -185 -70 -218 -149h268l-17 -77h-269c-2 -8 -3 -44 -1 -52h259l-16 -77h-229c30 -89 104 -160 223 -160c40 0 87 12 133 37l51 -91c-60 -32 -122 -51 -184 -51
c-190 0 -306 123 -341 265h-75l16 77h49c-1 15 -1 37 1 52h-60z" />
    <glyph glyph-name="trademark" unicode="&#x2122;" horiz-adv-x="884" 
d="M331 611h-104v-297h-99v297h-104v89h307v-89zM565 359l-91 159c1 -67 1 -143 1 -204h-99v385h95l123 -210l125 210h92v-385h-98v203c-26 -50 -64 -112 -89 -158h-59z" />
    <glyph glyph-name="minus" unicode="&#x2212;" horiz-adv-x="572" 
d="M46 230v98h462v-98h-462z" />
    <glyph glyph-name="infinity" unicode="&#x221e;" horiz-adv-x="464" 
d="M230 172c-94 0 -172 76 -172 171s78 170 172 170c96 0 172 -75 172 -170s-76 -171 -172 -171z" />
    <glyph glyph-name="approxequal" unicode="&#x2248;" horiz-adv-x="586" 
d="M116 321l-54 57c34 38 90 79 146 79c75 0 118 -64 170 -65c29 -1 64 18 89 46l54 -64c-36 -38 -91 -73 -148 -73c-76 0 -109 59 -170 59c-31 0 -60 -10 -87 -39zM114 142l-54 60c34 39 90 79 146 79c75 0 118 -57 170 -58c29 -1 64 7 89 35l54 -60
c-36 -37 -91 -73 -148 -73c-76 0 -109 60 -170 60c-31 0 -60 -14 -87 -43z" />
    <glyph glyph-name="notequal" unicode="&#x2260;" horiz-adv-x="616" 
d="M115 77l43 64h-83v96h151l63 90h-214v97h281l77 110l73 -43l-46 -67h70v-97h-138c-27 -38 -35 -51 -64 -90h202v-96h-269l-79 -112z" />
    <glyph glyph-name="lessequal" unicode="&#x2264;" horiz-adv-x="502" 
d="M30 93h407v-98h-407v98zM425 618v-117l-264 -126l264 -126v-114l-393 203v73z" />
    <glyph glyph-name="greaterequal" unicode="&#x2265;" horiz-adv-x="549" 
d="M68 93h407v-98h-407v98zM80 501v117l393 -207v-73l-393 -203v114l264 126z" />
    <glyph glyph-name="fontfabric" horiz-adv-x="1740" 
d="M1326 699h350v-176h-14c-27 98 -74 163 -180 163h-59v-674h110v-13h-207v700zM730 12h234v-13h-234v13zM1171 699h123v-13v0v-687h-32l-428 687h-104v13h215l330 -537h6v524h-110v13zM776 491c19 -46 26 -90 26 -141c0 -47 -7 -85 -26 -131c-19 -38 -38 -77 -71 -110
c-74 -74 -139 -110 -246 -110h-6v13h6c76 0 141 22 182 84c19 26 32 66 38 104c6 46 13 91 13 150c0 75 -9 170 -45 232c-31 75 -102 104 -188 104h-6v13h6c135 0 262 -84 317 -208zM233 439c6 20 15 36 25 72h7v-305h-7c-9 73 -44 152 -129 150h-65v13h57
c59 -1 92 16 112 70zM64 699h336v-169h-6c-23 87 -67 156 -182 156h-148v13z" />
    <glyph glyph-name="zero.tnum" horiz-adv-x="612" 
d="M167 199c0 -70 65 -110 129 -110c63 0 128 40 128 110v296c0 70 -67 112 -132 111c-63 -1 -125 -43 -125 -111v-296zM55 495c0 140 117 211 236 212c122 2 245 -68 245 -212v-296c2 -137 -114 -213 -240 -213c-125 -2 -244 76 -241 213v296z" />
    <glyph glyph-name="one.tnum" horiz-adv-x="332" 
d="M125 598h-85v102h198v-700h-113v598z" />
    <glyph glyph-name="two.tnum" horiz-adv-x="566" 
d="M274 600c-60 3 -113 -37 -139 -99l-91 42c43 109 132 160 233 157c132 -4 217 -98 219 -202c0 -60 -28 -113 -77 -166l-216 -227h298v-105h-432l-30 76l303 327c75 78 55 192 -68 197z" />
    <glyph glyph-name="three.tnum" horiz-adv-x="560" 
d="M29 148l85 48c37 -77 90 -103 148 -103c56 0 116 31 116 113c0 68 -49 113 -106 113h-68v100h68c50 0 89 31 89 88c0 65 -51 94 -101 94c-46 0 -100 -19 -127 -76l-81 44c40 93 129 136 209 136c103 0 212 -59 212 -198c0 -47 -30 -115 -81 -134c67 -35 98 -97 98 -168
c-1 -146 -117 -216 -231 -216c-89 0 -186 54 -230 159z" />
    <glyph glyph-name="four.tnum" horiz-adv-x="571" 
d="M475 700v-471h52v-105h-52v-124h-110v124h-271l-71 96l326 480h126zM370 569l-70 -123l-153 -217h218v196l8 144h-3z" />
    <glyph glyph-name="five.tnum" horiz-adv-x="581" 
d="M41 138l89 48c30 -62 90 -95 144 -95c88 0 135 68 135 141c0 95 -62 135 -134 137c-49 2 -100 -15 -142 -46h-65l53 377h356v-100h-266l-20 -145c183 55 329 -47 329 -223c0 -120 -85 -246 -248 -246c-94 0 -183 48 -231 152z" />
    <glyph glyph-name="six.tnum" horiz-adv-x="602" 
d="M295 -11c-162 0 -245 122 -245 242c0 47 15 95 41 136l206 333h129l-156 -251c177 39 270 -105 270 -218c0 -120 -83 -242 -245 -242zM295 361c-75 0 -133 -54 -133 -130c0 -67 45 -137 133 -137c89 0 134 70 134 137c0 66 -46 130 -134 130z" />
    <glyph glyph-name="seven.tnum" horiz-adv-x="500" 
d="M335 593h-311v106h387l60 -78l-317 -621h-127z" />
    <glyph glyph-name="eight.tnum" horiz-adv-x="587" 
d="M282 -14c-116 0 -231 76 -232 218c-1 71 45 134 105 170c-52 25 -79 92 -79 138c0 126 102 198 206 198s205 -72 205 -198c0 -51 -29 -109 -78 -137c65 -33 106 -91 105 -171c-1 -142 -116 -218 -232 -218zM282 610c-62 0 -94 -52 -94 -96s32 -92 94 -92
c61 0 93 48 93 92s-31 96 -93 96zM282 324c-79 0 -119 -63 -119 -121c0 -56 39 -117 119 -116c80 0 121 61 121 118s-41 119 -121 119z" />
    <glyph glyph-name="nine.tnum" horiz-adv-x="605" 
d="M293 711c162 0 245 -122 245 -242c0 -47 -15 -95 -41 -136l-206 -333h-129l156 251c-177 -39 -270 105 -270 218c0 120 83 242 245 242zM293 339c75 0 133 54 133 130c0 67 -45 137 -133 137c-89 0 -134 -70 -134 -137c0 -66 46 -130 134 -130z" />
    <glyph glyph-name="zero.p_osf" horiz-adv-x="611" 
d="M163 196c0 -70 67 -113 132 -113c64 0 131 43 131 113v121c0 71 -70 114 -135 113c-64 -1 -128 -44 -128 -113v-121zM54 317c0 140 117 211 236 212c122 2 245 -68 245 -212v-121c0 -65 -23 -113 -61 -148c-45 -43 -112 -65 -179 -65c-67 -1 -135 21 -181 65
c-37 36 -60 84 -60 148v121z" />
    <glyph glyph-name="one.p_osf" horiz-adv-x="308" 
d="M105 0v410h-74v104h185v-514h-111z" />
    <glyph glyph-name="two.p_osf" horiz-adv-x="524" 
d="M384 243l-170 -146h242v-97h-359l-40 75l254 241c68 58 19 131 -54 133c-41 2 -89 -29 -111 -75l-87 41c34 85 119 133 201 132c169 -2 264 -185 124 -304z" />
    <glyph glyph-name="three.p_osf" horiz-adv-x="528" 
d="M12 23l85 44c37 -71 90 -95 148 -95c56 0 116 28 116 104c0 63 -49 104 -106 104h-68v94h68c50 0 89 27 89 80c0 60 -51 87 -101 87c-46 0 -100 -17 -127 -70l-81 41c42 91 127 126 209 126c103 0 212 -56 212 -184c0 -43 -32 -106 -83 -123c70 -33 100 -89 100 -156
c-1 -135 -117 -202 -231 -202c-89 0 -186 53 -230 150z" />
    <glyph glyph-name="four.p_osf" horiz-adv-x="556" 
d="M448 524v-401h52v-101h-52v-122h-110v122h-256l-63 85l322 417h107zM338 123l3 234c-62 -79 -118 -149 -184 -234h181z" />
    <glyph glyph-name="five.p_osf" horiz-adv-x="540" 
d="M21 24l87 43c30 -56 89 -86 142 -86c86 0 132 62 132 127c0 86 -61 122 -131 123c-48 2 -99 -13 -140 -41h-64l52 339h350v-99h-263l-18 -114c180 49 323 -50 323 -208c0 -108 -83 -226 -243 -226c-93 0 -180 48 -227 142z" />
    <glyph glyph-name="six.p_osf" horiz-adv-x="594" 
d="M295 -11c-162 0 -245 122 -245 242c0 47 15 95 41 136l206 333h129l-156 -251c177 39 270 -105 270 -218c0 -120 -83 -242 -245 -242zM295 361c-75 0 -133 -54 -133 -130c0 -67 45 -137 133 -137c89 0 134 70 134 137c0 66 -46 130 -134 130z" />
    <glyph glyph-name="seven.p_osf" horiz-adv-x="517" 
d="M342 427h-318v100h387l60 -78l-307 -567h-118z" />
    <glyph glyph-name="eight.p_osf" horiz-adv-x="564" 
d="M276 -14c-114 0 -227 71 -228 205c-1 67 43 126 102 160c-51 23 -76 92 -76 130c0 118 100 186 202 186s201 -68 201 -186c0 -48 -28 -103 -76 -129c64 -31 104 -86 103 -161c-1 -134 -114 -205 -228 -205zM276 573c-61 0 -92 -49 -92 -90c0 -42 31 -87 92 -87
c60 0 91 45 91 87c0 41 -30 90 -91 90zM276 304c-78 0 -117 -59 -117 -114c0 -53 38 -110 117 -109c79 0 119 57 119 111s-40 112 -119 112z" />
    <glyph glyph-name="nine.p_osf" horiz-adv-x="570" 
d="M275 561c162 0 245 -122 245 -242c0 -47 -15 -95 -41 -136l-194 -314h-129l144 232c-177 -39 -270 105 -270 218c0 120 83 242 245 242zM275 189c75 0 133 54 133 130c0 67 -45 137 -133 137c-89 0 -134 -70 -134 -137c0 -66 46 -130 134 -130z" />
    <glyph glyph-name="zero.t_osf" horiz-adv-x="611" 
d="M163 196c0 -70 67 -113 132 -113c64 0 131 43 131 113v121c0 71 -70 114 -135 113c-64 -1 -128 -44 -128 -113v-121zM54 317c0 140 117 211 236 212c122 2 245 -68 245 -212v-121c0 -65 -23 -113 -61 -148c-45 -43 -112 -65 -179 -65c-67 -1 -135 21 -181 65
c-37 36 -60 84 -60 148v121z" />
    <glyph glyph-name="one.t_osf" horiz-adv-x="308" 
d="M105 0v410h-74v104h185v-514h-111z" />
    <glyph glyph-name="two.t_osf" horiz-adv-x="524" 
d="M384 243l-170 -146h242v-97h-359l-40 75l254 241c68 58 19 131 -54 133c-41 2 -89 -29 -111 -75l-87 41c34 85 119 133 201 132c169 -2 264 -185 124 -304z" />
    <glyph glyph-name="three.t_osf" horiz-adv-x="528" 
d="M12 23l85 44c37 -71 90 -95 148 -95c56 0 116 28 116 104c0 63 -49 104 -106 104h-68v94h68c50 0 89 27 89 80c0 60 -51 87 -101 87c-46 0 -100 -17 -127 -70l-81 41c42 91 127 126 209 126c103 0 212 -56 212 -184c0 -43 -32 -106 -83 -123c70 -33 100 -89 100 -156
c-1 -135 -117 -202 -231 -202c-89 0 -186 53 -230 150z" />
    <glyph glyph-name="four.t_osf" horiz-adv-x="556" 
d="M448 524v-401h52v-101h-52v-122h-110v122h-256l-63 85l322 417h107zM338 123l3 234c-62 -79 -118 -149 -184 -234h181z" />
    <glyph glyph-name="five.t_osf" horiz-adv-x="541" 
d="M21 24l87 43c30 -56 89 -86 142 -86c86 0 132 62 132 127c0 86 -61 122 -131 123c-48 2 -99 -13 -140 -41h-64l52 339h350v-99h-263l-20 -118c180 49 325 -46 325 -204c0 -108 -83 -226 -243 -226c-93 0 -180 48 -227 142z" />
    <glyph glyph-name="six.t_osf" horiz-adv-x="594" 
d="M295 -11c-162 0 -245 122 -245 242c0 47 15 95 41 136l206 333h129l-156 -251c177 39 270 -105 270 -218c0 -120 -83 -242 -245 -242zM295 361c-75 0 -133 -54 -133 -130c0 -67 45 -137 133 -137c89 0 134 70 134 137c0 66 -46 130 -134 130z" />
    <glyph glyph-name="seven.t_osf" horiz-adv-x="517" 
d="M342 427h-318v100h387l60 -78l-307 -567h-118z" />
    <glyph glyph-name="eight.t_osf" horiz-adv-x="564" 
d="M276 -14c-114 0 -227 71 -228 205c-1 67 43 126 102 160c-51 23 -76 92 -76 130c0 118 100 186 202 186s201 -68 201 -186c0 -48 -28 -103 -76 -129c64 -31 104 -86 103 -161c-1 -134 -114 -205 -228 -205zM276 573c-61 0 -92 -49 -92 -90c0 -42 31 -87 92 -87
c60 0 91 45 91 87c0 41 -30 90 -91 90zM276 304c-78 0 -117 -59 -117 -114c0 -53 38 -110 117 -109c79 0 119 57 119 111s-40 112 -119 112z" />
    <glyph glyph-name="nine.t_osf" horiz-adv-x="570" 
d="M275 561c162 0 245 -122 245 -242c0 -47 -15 -95 -41 -136l-194 -314h-129l144 232c-177 -39 -270 105 -270 218c0 120 83 242 245 242zM275 189c75 0 133 54 133 130c0 67 -45 137 -133 137c-89 0 -134 -70 -134 -137c0 -66 46 -130 134 -130z" />
    <glyph glyph-name="dollar.osf" horiz-adv-x="562" 
d="M166 407c-4 -48 62 -69 100 -77c108 -23 231 -65 224 -194c-6 -91 -86 -142 -173 -156v-71h-102v72c-72 14 -134 60 -170 138l92 40c36 -59 70 -90 128 -90c66 -1 113 26 117 73c4 66 -76 84 -131 97c-85 18 -196 59 -191 174c3 88 72 143 155 157v72h102v-71
c67 -14 125 -51 157 -123l-89 -37c-25 52 -70 69 -116 70c-51 0 -99 -20 -103 -74z" />
    <glyph glyph-name="cent.osf" horiz-adv-x="568" 
d="M263 -87v81c-145 20 -216 138 -216 259c1 119 74 240 216 260v86h92v-87c51 -9 96 -32 140 -76l-62 -76c-40 38 -85 57 -128 57c-77 1 -149 -65 -150 -166c0 -78 51 -161 151 -161c43 0 91 25 131 61l63 -76c-43 -43 -93 -70 -145 -79v-83h-92z" />
    <glyph glyph-name="sterling.osf" horiz-adv-x="590" 
d="M518 396l-95 -19c-21 131 -209 133 -209 -14v-62h197v-84h-197v-119h310v-98h-475v76l54 21v120h-52v84h52v62c0 140 102 204 210 204c96 0 189 -43 205 -171z" />
    <glyph glyph-name="yen.osf" horiz-adv-x="587" 
d="M566 563l-153 -239h66v-85h-117c-5 -7 -14 -21 -21 -35h138v-82h-143v-130h-112v130h-143v80h138c-4 8 -17 27 -22 37h-116v85h64l-148 239h130l155 -271l154 271h130z" />
    <glyph glyph-name="florin.osf" horiz-adv-x="525" 
d="M494 593l-17 -88c-109 18 -108 -61 -120 -120h100l-14 -86h-102c-19 -104 -47 -227 -63 -331c-20 -127 -119 -204 -272 -158l15 81c77 -19 132 12 144 97v-1l60 312h-87l15 86h90l3 16v0c17 113 81 220 248 192z" />
    <glyph glyph-name="Euro.osf" horiz-adv-x="635" 
d="M462 331h-250c-1 -10 -1 -30 0 -40h235l-13 -73h-223c30 -84 104 -126 223 -126c40 0 78 14 124 39l51 -93c-60 -32 -113 -51 -175 -51c-190 0 -306 90 -341 231h-78l16 73h57c-1 12 -1 26 0 40h-66l17 77h59c39 135 153 227 336 227c53 0 101 -14 157 -41l-45 -92
c-42 21 -77 28 -112 28c-110 -2 -184 -46 -218 -122h262z" />
    <glyph glyph-name="zero.numerator" horiz-adv-x="436" 
d="M122 420c0 -58 44 -87 89 -87c44 0 89 29 89 87v111c0 58 -45 88 -90 88c-44 0 -88 -29 -88 -88v-111zM24 531c0 116 93 175 187 175c92 0 187 -59 187 -175v-111c0 -111 -93 -176 -188 -176s-188 70 -186 176v111z" />
    <glyph glyph-name="one.numerator" horiz-adv-x="298" 
d="M94 257v349h-60v93h164v-442h-104z" />
    <glyph glyph-name="two.numerator" horiz-adv-x="414" 
d="M302 451l-127 -114h186v-95h-304l-36 65l207 197c68 62 8 114 -33 113c-26 -1 -66 -15 -86 -54l-74 31c30 70 88 111 164 109c78 -2 157 -48 157 -143c0 -44 -22 -79 -54 -109z" />
    <glyph glyph-name="three.numerator" horiz-adv-x="404" 
d="M121 581l-68 45c72 135 296 93 295 -57c0 -27 -16 -69 -57 -82c53 -21 72 -63 72 -102c-1 -96 -85 -147 -170 -147c-69 0 -132 29 -168 103l71 44c21 -38 66 -54 98 -54c33 0 69 20 69 55c0 37 -28 57 -59 57h-64v79h64c24 0 47 18 47 44c0 64 -104 69 -130 15z" />
    <glyph glyph-name="four.numerator" horiz-adv-x="426" 
d="M350 700v-284h45v-94h-45v-79h-102v79h-166l-65 88l175 290h158zM255 627l-124 -215h118v105l12 110h-6z" />
    <glyph glyph-name="five.numerator" horiz-adv-x="438" 
d="M33 317l78 48c37 -68 180 -70 180 26c0 86 -127 94 -180 47h-61l38 262h273v-82h-195c-3 -19 -6 -53 -10 -78c105 25 234 -11 234 -149c0 -188 -276 -224 -357 -74z" />
    <glyph glyph-name="six.numerator" horiz-adv-x="430" 
d="M324 700l-118 -169c87 22 184 -34 182 -136c-1 -40 -16 -81 -46 -111c-68 -68 -197 -67 -264 0c-30 30 -45 71 -45 111c0 33 10 63 29 91l148 214h114zM210 461c-108 0 -109 -141 0 -141c101 0 109 141 0 141z" />
    <glyph glyph-name="seven.numerator" horiz-adv-x="365" 
d="M29 252l186 361h-178v87h271l35 -54l-206 -394h-108z" />
    <glyph glyph-name="eight.numerator" horiz-adv-x="408" 
d="M31 388c-1 40 26 83 65 104c-31 18 -47 53 -47 82c0 172 300 173 300 0c0 -29 -11 -62 -42 -82c43 -23 60 -65 60 -104c-2 -193 -334 -195 -336 0zM198 622c-27 0 -53 -19 -53 -48c0 -68 107 -66 107 0c0 29 -26 48 -54 48zM198 456c-37 0 -68 -28 -68 -67
c0 -36 28 -63 68 -63c44 0 69 27 69 63c0 39 -31 67 -69 67z" />
    <glyph glyph-name="nine.numerator" horiz-adv-x="426" 
d="M98 248l110 161c-103 -15 -176 50 -176 141c0 98 80 162 178 162c95 0 178 -64 178 -162c0 -33 -10 -67 -29 -95l-144 -207h-117zM210 474c39 0 78 34 78 75c0 44 -36 77 -78 77c-40 0 -78 -35 -78 -77s38 -75 78 -75z" />
    <glyph glyph-name="zerosuperior" unicode="&#x2070;" horiz-adv-x="438" 
d="M122 557c0 -58 45 -87 90 -87s90 29 90 87v114c0 58 -46 88 -91 88s-89 -29 -89 -88v-114zM24 671c0 117 94 176 188 176c93 0 188 -59 188 -176v-114c0 -52 -20 -92 -51 -122c-37 -35 -88 -54 -138 -54c-49 0 -98 17 -136 54c-31 30 -51 70 -51 122v114z" />
    <glyph glyph-name="foursuperior" unicode="&#x2074;" horiz-adv-x="434" 
d="M350 839v-284h45v-94h-45v-79h-102v79h-166l-65 88l175 290h158zM255 766l-124 -215h118v105l12 110h-6z" />
    <glyph glyph-name="fivesuperior" unicode="&#x2075;" horiz-adv-x="438" 
d="M34 453l78 48c37 -68 180 -70 180 26c0 86 -127 94 -180 47h-61l38 262h273v-82h-195c-3 -19 -6 -53 -10 -78c105 25 234 -11 234 -149c0 -188 -276 -224 -357 -74z" />
    <glyph glyph-name="sixsuperior" unicode="&#x2076;" horiz-adv-x="430" 
d="M324 849l-118 -169c87 22 184 -34 182 -136c-1 -40 -16 -81 -46 -111c-68 -68 -197 -67 -264 0c-30 30 -45 71 -45 111c0 33 10 63 29 91l148 214h114zM210 610c-108 0 -109 -141 0 -141c101 0 109 141 0 141z" />
    <glyph glyph-name="sevensuperior" unicode="&#x2077;" horiz-adv-x="362" 
d="M38 389l186 361h-178v87h271l35 -54l-206 -394h-108z" />
    <glyph glyph-name="eightsuperior" unicode="&#x2078;" horiz-adv-x="408" 
d="M31 528c-1 40 26 83 65 104c-31 18 -47 53 -47 82c0 172 300 173 300 0c0 -29 -11 -62 -42 -82c43 -23 60 -65 60 -104c-2 -193 -334 -195 -336 0zM198 762c-27 0 -53 -19 -53 -48c0 -68 107 -66 107 0c0 29 -26 48 -54 48zM198 596c-37 0 -68 -28 -68 -67
c0 -36 28 -63 68 -63c44 0 69 27 69 63c0 39 -31 67 -69 67z" />
    <glyph glyph-name="ninesuperior" unicode="&#x2079;" horiz-adv-x="426" 
d="M98 390l110 161c-103 -15 -176 50 -176 141c0 98 80 162 178 162c95 0 178 -64 178 -162c0 -33 -10 -67 -29 -95l-144 -207h-117zM210 616c39 0 78 34 78 75c0 44 -36 77 -78 77c-40 0 -78 -35 -78 -77s38 -75 78 -75z" />
    <glyph glyph-name="zeroinferior" unicode="&#x2080;" horiz-adv-x="432" 
d="M122 18c0 -59 45 -88 90 -88s90 29 90 88v114c0 58 -46 87 -91 87s-89 -29 -89 -87v-114zM24 132c0 116 94 175 188 175c93 0 188 -59 188 -175v-114c0 -53 -20 -93 -51 -123c-37 -35 -88 -54 -138 -54c-49 0 -98 17 -136 54c-31 30 -51 70 -51 123v114z" />
    <glyph glyph-name="oneinferior" unicode="&#x2081;" horiz-adv-x="289" 
d="M108 -147v343h-59v94h164v-437h-105z" />
    <glyph glyph-name="twoinferior" unicode="&#x2082;" horiz-adv-x="415" 
d="M302 61l-127 -114h186v-95h-304l-36 65l207 197c68 62 8 114 -33 113c-26 -1 -66 -15 -86 -54l-74 31c30 70 88 111 164 109c78 -2 157 -48 157 -143c0 -44 -22 -79 -54 -109z" />
    <glyph glyph-name="threeinferior" unicode="&#x2083;" horiz-adv-x="404" 
d="M121 180l-68 45c72 135 296 93 295 -57c0 -27 -16 -69 -57 -82c53 -21 72 -63 72 -102c-1 -96 -85 -147 -170 -147c-69 0 -132 29 -168 103l71 44c21 -38 66 -54 98 -54c33 0 69 20 69 55c0 37 -28 57 -59 57h-64v79h64c24 0 47 18 47 44c0 64 -104 69 -130 15z" />
    <glyph glyph-name="fourinferior" unicode="&#x2084;" horiz-adv-x="423" 
d="M350 308v-284h45v-94h-45v-79h-102v79h-166l-65 88l175 290h158zM255 235l-124 -215h118v105l12 110h-6z" />
    <glyph glyph-name="fiveinferior" unicode="&#x2085;" horiz-adv-x="440" 
d="M49 -84l78 48c37 -68 176 -70 176 26c0 86 -127 94 -180 47h-57l34 262h273v-82h-195c-3 -19 -6 -53 -10 -78c105 25 234 -11 234 -149c0 -188 -272 -224 -353 -74z" />
    <glyph glyph-name="sixinferior" unicode="&#x2086;" horiz-adv-x="428" 
d="M324 304l-118 -169c87 22 184 -34 182 -136c-1 -40 -16 -81 -46 -111c-68 -68 -197 -67 -264 0c-30 30 -45 71 -45 111c0 33 10 63 29 91l148 214h114zM210 65c-108 0 -109 -141 0 -141c101 0 109 141 0 141z" />
    <glyph glyph-name="seveninferior" unicode="&#x2087;" horiz-adv-x="364" 
d="M29 -157l186 361h-185v87h278l35 -54l-206 -394h-108z" />
    <glyph glyph-name="eightinferior" unicode="&#x2088;" horiz-adv-x="399" 
d="M31 -11c-1 40 26 83 65 104c-31 18 -47 53 -47 82c0 172 300 173 300 0c0 -29 -11 -62 -42 -82c43 -23 60 -65 60 -104c-2 -193 -334 -195 -336 0zM198 223c-27 0 -53 -19 -53 -48c0 -68 107 -66 107 0c0 29 -26 48 -54 48zM198 57c-37 0 -68 -28 -68 -67
c0 -36 28 -63 68 -63c44 0 69 27 69 63c0 39 -31 67 -69 67z" />
    <glyph glyph-name="nineinferior" unicode="&#x2089;" horiz-adv-x="421" 
d="M98 -153l110 161c-103 -15 -176 50 -176 141c0 98 80 162 178 162c95 0 178 -64 178 -162c0 -33 -10 -67 -29 -95l-144 -207h-117zM210 73c39 0 78 34 78 75c0 44 -36 77 -78 77c-40 0 -78 -35 -78 -77s38 -75 78 -75z" />
    <glyph glyph-name="zero.denominator" horiz-adv-x="440" 
d="M128 164c0 -58 44 -87 88 -87s88 29 88 87v114c0 58 -45 88 -89 88s-87 -29 -87 -88v-114zM30 278c0 117 92 176 186 176c92 0 186 -59 186 -176v-114c0 -115 -92 -173 -185 -173s-187 58 -187 173v114z" />
    <glyph glyph-name="one.denominator" horiz-adv-x="298" 
d="M94 -1v343h-60v94h164v-437h-104z" />
    <glyph glyph-name="two.denominator" horiz-adv-x="415" 
d="M302 209l-127 -114h186v-95h-304l-36 65l207 197c68 62 6 114 -35 113c-26 -1 -64 -15 -84 -54l-74 31c30 70 86 111 162 109c78 -2 159 -48 159 -143c0 -44 -22 -79 -54 -109z" />
    <glyph glyph-name="three.denominator" horiz-adv-x="404" 
d="M119 335l-66 44c72 135 296 95 295 -55c0 -27 -16 -71 -57 -84c53 -21 72 -63 72 -102c-1 -96 -85 -147 -170 -147c-69 0 -132 29 -168 103l71 44c21 -38 66 -54 98 -54c33 0 69 20 69 55c0 37 -28 57 -59 57h-64v79h64c24 0 47 20 47 46c0 67 -106 68 -132 14z" />
    <glyph glyph-name="four.denominator" horiz-adv-x="410" 
d="M350 449v-284h45v-94h-45v-78h-102v78h-166l-65 88l175 290h158zM255 376l-124 -215h118v105l12 110h-6z" />
    <glyph glyph-name="five.denominator" horiz-adv-x="438" 
d="M33 65l78 48c37 -68 180 -70 180 26c0 86 -127 94 -180 47h-61l38 262h273v-85h-195c-3 -19 -6 -50 -10 -75c105 25 234 -11 234 -149c0 -188 -276 -224 -357 -74z" />
    <glyph glyph-name="six.denominator" horiz-adv-x="429" 
d="M324 454l-118 -169c87 22 184 -34 182 -136c-1 -40 -16 -81 -46 -111c-68 -68 -197 -67 -264 0c-30 30 -45 71 -45 111c0 33 10 63 29 91l148 214h114zM210 215c-108 0 -109 -141 0 -141c101 0 109 141 0 141z" />
    <glyph glyph-name="seven.denominator" horiz-adv-x="370" 
d="M29 0l186 361h-178v87h271l35 -54l-206 -394h-108z" />
    <glyph glyph-name="eight.denominator" horiz-adv-x="408" 
d="M29 137c-1 40 26 83 65 104c-31 18 -47 53 -47 82c0 172 300 173 300 0c0 -29 -11 -62 -42 -82c43 -23 60 -65 60 -104c-2 -193 -334 -195 -336 0zM196 371c-27 0 -53 -19 -53 -48c0 -68 107 -66 107 0c0 29 -26 48 -54 48zM196 205c-37 0 -68 -28 -68 -67
c0 -36 28 -63 68 -63c44 0 69 27 69 63c0 39 -31 67 -69 67z" />
    <glyph glyph-name="nine.denominator" horiz-adv-x="424" 
d="M98 0l110 161c-103 -15 -176 50 -176 141c0 98 80 162 178 162c95 0 178 -64 178 -162c0 -33 -10 -67 -29 -95l-144 -207h-117zM210 226c39 0 78 34 78 75c0 44 -36 77 -78 77c-40 0 -78 -35 -78 -77s38 -75 78 -75z" />
    <glyph glyph-name="thinspace" unicode="&#x2009;" horiz-adv-x="14" 
 />
    <glyph glyph-name="uni00A0" unicode="&#xa0;" horiz-adv-x="257" 
 />
    <glyph glyph-name="uni00AD" unicode="&#xad;" horiz-adv-x="441" 
d="M60 231v102h308v-102h-308z" />
    <glyph glyph-name="perthousand" unicode="&#x2030;" horiz-adv-x="1268" 
d="M377 533c0 -97 -82 -176 -179 -176s-178 79 -178 176c0 98 81 176 178 176s179 -78 179 -176zM817 153c0 -97 -81 -175 -178 -175c-98 0 -179 78 -179 175s81 176 179 176c97 0 178 -79 178 -176zM721 153c0 56 -38 87 -82 87c-45 0 -82 -31 -82 -87c0 -55 37 -85 82 -85
c44 0 82 30 82 85zM580 726h120l-444 -761h-119zM281 533c0 56 -38 87 -82 87c-45 0 -82 -31 -82 -87c0 -55 37 -85 82 -85c44 0 82 30 82 85zM1216 153c0 -97 -81 -175 -178 -175c-98 0 -179 78 -179 175s81 176 179 176c97 0 178 -79 178 -176zM1120 153
c0 56 -38 87 -82 87c-45 0 -82 -31 -82 -87c0 -55 37 -85 82 -85c44 0 82 30 82 85z" />
    <glyph glyph-name="ellipsis" unicode="&#x2026;" horiz-adv-x="711" 
d="M193 -2h-122v119h122v-119zM605 -2h-122v119h122v-119zM395 -2h-122v119h122v-119z" />
    <glyph glyph-name="quotesinglbase" unicode="&#x201a;" horiz-adv-x="263" 
d="M9 -131l71 236h124l-90 -236h-105z" />
    <glyph glyph-name="quotedblbase" unicode="&#x201e;" horiz-adv-x="431" 
d="M9 -131l71 236h124l-90 -236h-105zM182 -131l71 236h124l-90 -236h-105z" />
    <glyph glyph-name="brokenbar" unicode="&#xa6;" horiz-adv-x="272" 
d="M84 -148v416h108v-416h-108zM192 773v-414h-108v414h108z" />
    <glyph glyph-name="Eth" unicode="&#xd0;" horiz-adv-x="731" 
d="M35 299v99h58v307h223c230 2 349 -171 352 -346c4 -179 -114 -359 -351 -359h-224v299h-58zM316 103c163 -3 243 128 239 254c-3 121 -83 245 -237 245h-111v-204h125v-99h-125v-196h109z" />
    <glyph glyph-name="Oslash" unicode="&#xd8;" horiz-adv-x="820" 
d="M400 713c51 0 101 -11 145 -31l46 76h114l-78 -128c80 -69 135 -171 135 -281c0 -213 -165 -362 -362 -362c-49 0 -97 10 -140 28c-12 -21 -33 -54 -44 -73h-115l75 126c-81 66 -138 163 -138 281c0 212 165 364 362 364zM150 349c0 -87 38 -148 80 -191
c88 147 172 284 260 434c-30 13 -59 17 -91 17c-121 -1 -249 -85 -249 -260zM650 349c0 77 -38 147 -78 189c-85 -143 -169 -286 -257 -432c29 -9 57 -15 85 -15c121 0 250 81 250 258z" />
    <glyph glyph-name="oslash" unicode="&#xf8;" horiz-adv-x="605" 
d="M553 253c0 -147 -108 -264 -261 -264c-36 0 -70 6 -100 18c-11 -17 -31 -47 -40 -63h-103l68 110c-52 49 -86 121 -86 199c0 148 109 263 261 263c37 0 69 -6 99 -18l39 61h103l-66 -108c54 -48 86 -117 86 -198zM448 253c0 46 -18 83 -36 109
c-58 -94 -109 -175 -167 -272c15 -4 31 -6 47 -6c77 0 156 57 156 169zM135 253c0 -46 18 -84 38 -110l166 268c-93 26 -204 -25 -204 -158z" />
    <glyph glyph-name="Amacron" unicode="&#x100;" horiz-adv-x="636" 
d="M168 756v92h275v-92h-275zM-1 0l251 705h122l254 -705h-120l-78 213h-233l-75 -213h-121zM229 313h164l-65 200l-16 72h-5l-16 -72z" />
    <glyph glyph-name="amacron" unicode="&#x101;" horiz-adv-x="556" 
d="M131 597v76h265v-76h-265zM260 92c39 0 87 14 114 43v86c-32 22 -68 29 -102 29c-83 -1 -135 -37 -135 -81c0 -48 39 -77 123 -77zM480 0h-86l-16 52c-43 -48 -86 -60 -144 -60c-275 0 -273 349 37 349c32 0 77 -12 102 -30c0 91 -57 120 -121 119
c-54 -1 -97 -15 -140 -41l-43 65c142 117 411 87 411 -146v-308z" />
    <glyph glyph-name="Abreve" unicode="&#x102;" horiz-adv-x="636" 
d="M-1 0l251 705h122l254 -705h-120l-77 213h-235l-74 -213h-121zM228 313h166l-66 200l-16 72h-5l-16 -72zM310 751c-73 0 -133 39 -133 128h76c0 -37 30 -54 58 -54c31 0 56 16 56 54h75c0 -89 -60 -128 -132 -128z" />
    <glyph glyph-name="abreve" unicode="&#x103;" horiz-adv-x="556" 
d="M260 92c39 0 87 14 114 43v86c-32 22 -68 29 -102 29c-83 -1 -135 -37 -135 -81c0 -48 39 -77 123 -77zM480 0h-86l-16 52c-43 -48 -86 -60 -144 -60c-275 0 -273 349 37 349c32 0 77 -12 102 -30c0 91 -57 120 -121 119c-54 -1 -97 -15 -140 -41l-43 65
c142 117 411 87 411 -146v-308zM259 573c-73 0 -133 35 -133 124h76c0 -37 30 -50 58 -50c31 0 56 12 56 50h75c0 -89 -60 -124 -132 -124z" />
    <glyph glyph-name="Scaron" unicode="&#x160;" horiz-adv-x="560" 
d="M161 517c-4 -66 70 -93 120 -106c108 -28 221 -73 215 -231c-7 -133 -126 -196 -236 -196c-93 0 -191 52 -232 162l87 45c33 -71 89 -103 148 -103c69 -1 117 39 120 98c6 84 -74 110 -132 125c-89 24 -207 68 -202 209c3 137 115 197 221 197c92 0 179 -53 216 -156
l-90 -41c-26 65 -79 95 -127 95c-52 1 -104 -30 -108 -98zM426 905l-99 -126h-111l-98 126h94l61 -72l61 72h92z" />
    <glyph glyph-name="scaron" unicode="&#x161;" horiz-adv-x="439" 
d="M227 305c86 -16 168 -61 168 -160c0 -116 -107 -156 -189 -156c-69 0 -133 29 -179 94l68 66c28 -36 68 -59 108 -62c38 -2 86 12 86 55c0 49 -52 64 -86 70c-84 14 -161 55 -162 151c0 100 90 155 184 155c52 0 109 -16 158 -67l-60 -67c-32 25 -61 38 -96 38
c-33 0 -81 -14 -80 -60c1 -44 48 -50 80 -57zM371 702l-96 -118h-106l-94 118h90l59 -68l58 68h89z" />
    <glyph glyph-name="Ydieresis" unicode="&#x178;" horiz-adv-x="589" 
d="M584 705l-241 -424v-281h-113v282l-240 423h131l166 -306l164 306h133zM243 750h-108v102h108v-102zM432 750h-108v102h108v-102z" />
    <glyph glyph-name="Ccedilla" unicode="&#xc7;" horiz-adv-x="729" 
d="M663 598l-72 -67c-54 57 -124 84 -192 82c-160 -3 -242 -137 -242 -265c0 -127 84 -259 242 -259c72 0 153 34 207 99l80 -62c-69 -83 -153 -131 -254 -139l-18 -39c66 -12 72 -58 66 -91c-15 -87 -138 -107 -211 -52l22 49c50 -24 102 -22 104 12c3 40 -54 45 -69 29
l-18 18l37 76c-198 25 -303 191 -303 359c0 182 124 368 357 368c103 0 194 -33 264 -118z" />
    <glyph glyph-name="ccedilla" unicode="&#xe7;" horiz-adv-x="526" 
d="M482 435l-61 -72c-40 39 -86 54 -129 54c-78 1 -153 -56 -154 -166c0 -87 54 -163 155 -163c43 0 90 22 131 58l62 -71c-51 -51 -113 -81 -179 -85l-15 -31c62 -11 82 -46 74 -81c-15 -77 -135 -95 -205 -46l21 43c48 -21 99 -19 101 11c3 36 -53 40 -67 26l-17 16l35 66
c-135 25 -204 137 -204 259c1 138 94 263 263 264c71 0 132 -26 189 -82z" />
    <glyph glyph-name="b" unicode="b" horiz-adv-x="583" 
d="M522 257c0 -159 -96 -267 -233 -265c-46 1 -90 10 -130 62l-12 -54h-79v700h107v-229c36 31 84 42 122 41c123 -2 225 -99 225 -255zM281 88c89 0 135 79 135 159c0 92 -44 168 -143 170c-32 0 -69 -9 -99 -29v-241c27 -48 63 -59 107 -59z" />
    <glyph glyph-name="afii10052" unicode="&#x403;" horiz-adv-x="517" 
d="M475 700v-98h-278v-602h-112v700h390zM239 746l74 130h108l-94 -130h-88z" />
    <glyph glyph-name="afii10100" unicode="&#x453;" horiz-adv-x="485" 
d="M84 507v-507h109v412h240v95h-349zM213 568l74 130h108l-94 -130h-88z" />
    <glyph glyph-name="afii10061" unicode="&#x40c;" horiz-adv-x="634" 
d="M85 701h115v-307l276 307h136l-275 -307l282 -394h-132l-225 319l-62 -62v-257h-115v701zM278 746l74 130h108l-94 -130h-88z" />
    <glyph glyph-name="afii10145" unicode="&#x40f;" horiz-adv-x="652" 
d="M276 -122v122h-190v700h113v-604h247v604h112v-700h-177v-122h-105z" />
    <glyph glyph-name="afii10099.001" horiz-adv-x="604" 
d="M72 700h110v-229c39 33 88 44 122 44c129 0 225 -79 225 -219v-296h-109v296c0 80 -62 121 -132 123c-36 1 -75 -14 -107 -34v-385h-109v700zM109 708v95h274v-95h-274z" />
    <glyph glyph-name="afii10109" unicode="&#x45c;" horiz-adv-x="519" 
d="M68 507h106v-197l197 198h133l-221 -225l228 -283h-126l-174 222l-37 -35v-187h-106v507zM213 568l74 130h108l-94 -130h-88z" />
    <glyph glyph-name="afii10108" unicode="&#x45b;" horiz-adv-x="604" 
d="M11 560v80h61v60h110v-60h100v-80h-100v-83c39 33 83 38 117 38c129 0 230 -89 230 -229v-286h-109v286c0 73 -47 119 -112 130c-43 8 -87 1 -127 -25v-391h-109v560h-61z" />
    <glyph glyph-name="afii10193" unicode="&#x45f;" horiz-adv-x="560" 
d="M232 -104v104h-162v506h108v-412h203v412h107v-506h-155v-104h-101z" />
    <glyph glyph-name="afii10062" unicode="&#x40e;" horiz-adv-x="558" 
d="M115 700l169 -359l151 359h120l-266 -603c-35 -76 -64 -97 -155 -97h-54v96h55c30 0 43 12 57 42l36 84l-234 478h121zM279 741c-73 0 -133 39 -133 128h76c0 -37 30 -54 58 -54c31 0 56 16 56 54h75c0 -89 -60 -128 -132 -128z" />
    <glyph glyph-name="afii10110" unicode="&#x45e;" horiz-adv-x="510" 
d="M73 -191v89c62 -7 85 17 95 43l30 74l-203 492h117l143 -359l130 359h117l-235 -604c-36 -89 -113 -103 -194 -94zM253 566c-73 0 -133 39 -133 128h76c0 -37 30 -54 58 -54c31 0 56 16 56 54h75c0 -89 -60 -128 -132 -128z" />
    <glyph glyph-name="afii10057" unicode="&#x408;" horiz-adv-x="545" 
d="M15 183l100 22c16 -78 79 -114 130 -114s101 40 101 113v393h-126v103h241v-496c0 -144 -106 -216 -215 -216c-99 0 -203 59 -231 195z" />
    <glyph glyph-name="afii10050" unicode="&#x490;" horiz-adv-x="518" 
d="M475 799v-197h-278v-602h-112v700h293v99h97z" />
    <glyph glyph-name="afii10023" unicode="&#x401;" horiz-adv-x="530" 
d="M469 701v-100h-278v-198h274v-103h-275v-198h279v-102h-393v701h393zM239 755h-104v96h104v-96zM418 755h-105v96h105v-96z" />
    <glyph glyph-name="afii10053" unicode="&#x404;" horiz-adv-x="714" 
d="M490 399v-96h-336c13 -137 113 -208 245 -208c67 0 148 30 202 109l78 -64c-74 -100 -177 -148 -280 -148c-220 0 -356 164 -356 355c0 188 127 362 356 362c107 0 184 -46 261 -129l-70 -68c-54 56 -111 95 -191 95c-126 0 -227 -70 -243 -208h334z" />
    <glyph glyph-name="afii10056" unicode="&#x407;" horiz-adv-x="283" 
d="M82 0v701h114v-701h-114zM95 747h-104v96h104v-96zM285 747h-105v96h105v-96z" />
    <glyph glyph-name="afii10055" unicode="&#x406;" horiz-adv-x="284" 
d="M82 0v703h114v-703h-114z" />
    <glyph glyph-name="afii10103" unicode="&#x456;" horiz-adv-x="241" 
d="M170 578h-111v122h111v-122zM60 509h109v-509h-109v509z" />
    <glyph glyph-name="afii10098" unicode="&#x491;" horiz-adv-x="485" 
d="M84 0v507h251v105h98v-200h-240v-412h-109z" />
    <glyph glyph-name="afii10071" unicode="&#x451;" horiz-adv-x="599" 
d="M249 604h-96v89h96v-89zM432 604h-97v89h97v-89zM294 89c45 0 98 8 140 66l80 -49c-59 -79 -136 -114 -220 -114c-173 0 -260 132 -259 263c0 131 90 263 258 264c147 1 249 -110 249 -252c0 -15 -1 -35 -4 -58h-394c12 -63 65 -120 150 -120zM146 299h290
c-15 75 -65 121 -142 123c-86 -1 -134 -50 -148 -123z" />
    <glyph glyph-name="afii61352" unicode="&#x2116;" horiz-adv-x="1336" 
d="M220 704l257 -456l48 -105l3 1l-15 130v430h115v-704h-131l-259 456l-49 105l-3 -1l16 -130v-430h-115v704h133zM863 253c0 -112 81 -166 156 -166c77 0 155 54 155 166s-78 164 -155 164c-75 0 -156 -52 -156 -164zM1283 253c0 -147 -111 -264 -264 -264
c-152 0 -265 117 -265 264c0 148 113 263 265 263c153 0 264 -115 264 -263z" />
    <glyph glyph-name="afii10101" unicode="&#x454;" horiz-adv-x="511" 
d="M412 369c-77 87 -256 65 -273 -69h244v-90h-244c25 -130 195 -154 284 -67l58 -68c-56 -60 -119 -84 -196 -84c-150 1 -252 114 -252 259c0 151 104 265 253 267c61 0 128 -15 187 -87z" />
    <glyph glyph-name="afii10105" unicode="&#x458;" horiz-adv-x="241" 
d="M-14 -191v92c61 -5 74 25 74 66v540h109v-540c0 -117 -63 -171 -183 -158zM170 578h-111v122h111v-122z" />
    <glyph glyph-name="afii10054" unicode="&#x405;" horiz-adv-x="560" 
d="M161 517c-4 -66 70 -93 120 -106c108 -28 221 -73 215 -231c-7 -133 -126 -196 -236 -196c-93 0 -191 52 -232 162l87 45c33 -71 89 -103 148 -103c69 -1 117 39 120 98c6 84 -74 110 -132 125c-89 24 -207 68 -202 209c3 137 115 197 221 197c92 0 179 -53 216 -156
l-90 -41c-26 65 -79 95 -127 95c-52 1 -104 -30 -108 -98z" />
    <glyph glyph-name="afii10102" unicode="&#x455;" horiz-adv-x="439" 
d="M227 305c86 -16 168 -61 168 -160c0 -116 -107 -156 -189 -156c-69 0 -133 29 -179 94l68 66c28 -36 68 -59 108 -62c38 -2 86 12 86 55c0 49 -52 64 -86 70c-84 14 -161 55 -162 151c0 100 90 155 184 155c52 0 109 -16 158 -67l-60 -67c-32 25 -61 38 -96 38
c-33 0 -81 -14 -80 -60c1 -44 48 -50 80 -57z" />
    <glyph glyph-name="afii10104" unicode="&#x457;" horiz-adv-x="241" 
d="M60 509h109v-509h-109v509zM72 605h-104v96h104v-96zM262 605h-105v96h105v-96z" />
    <glyph glyph-name="bgA" unicode="&#x410;" horiz-adv-x="636" 
d="M-1 0l251 705h122l254 -705h-120l-78 213h-233l-75 -213h-121zM229 313h164l-65 200l-16 72h-5l-16 -72z" />
    <glyph glyph-name="afii10019" unicode="&#x412;" horiz-adv-x="609" 
d="M200 416h109c70 0 100 52 100 96c0 43 -30 95 -100 95h-109v-191zM309 321h-109v-220h109c89 0 129 58 129 110s-41 110 -129 110zM518 511c0 -48 -23 -106 -84 -134c79 -29 115 -107 114 -169c0 -145 -117 -208 -241 -208h-221v704h223c116 0 209 -73 209 -193z" />
    <glyph glyph-name="afii10022" unicode="&#x415;" horiz-adv-x="531" 
d="M462 701v-103h-278v-195h274v-103h-274v-199h278v-101h-393v701h393z" />
    <glyph glyph-name="afii10026" unicode="&#x418;" horiz-adv-x="734" 
d="M241 248l257 454h140v-702h-118v421l18 146l-4 1l-54 -114l-259 -454h-135v702h113v-428l-15 -136l3 -1z" />
    <glyph glyph-name="afii10027" unicode="&#x419;" horiz-adv-x="733" 
d="M497 702l-257 -454l-54 -111l-3 1l15 136v428h-113v-702h135l259 454l54 114l4 -1l-18 -146v-421h118v702h-140zM367 740c-73 0 -133 39 -133 128h76c0 -37 30 -54 58 -54c31 0 56 16 56 54h75c0 -89 -60 -128 -132 -128z" />
    <glyph glyph-name="afii10028" unicode="&#x41a;" horiz-adv-x="635" 
d="M85 701h115v-307l276 307h136l-275 -307l282 -394h-132l-225 319l-62 -62v-257h-115v701z" />
    <glyph glyph-name="afii10030" unicode="&#x41c;" horiz-adv-x="845" 
d="M416 245l197 459h130v-704h-115v353l16 166l-5 1l-52 -150l-121 -263h-100l-121 263l-52 150l-5 -1l16 -166v-353h-115v704h130z" />
    <glyph glyph-name="afii10031" unicode="&#x41d;" horiz-adv-x="681" 
d="M469 0v297h-269v-297h-115v703h115v-302h269v302h115v-703h-115z" />
    <glyph glyph-name="afii10032" unicode="&#x41e;" horiz-adv-x="820" 
d="M400 715c197 0 358 -157 358 -366c0 -210 -161 -364 -358 -364s-358 151 -358 364c0 212 161 366 358 366zM158 349c0 -168 120 -260 242 -260c121 0 243 92 243 260c0 167 -122 263 -244 262c-121 -1 -241 -96 -241 -262z" />
    <glyph glyph-name="afii10034" unicode="&#x420;" horiz-adv-x="583" 
d="M200 243v-244h-114v704h218c162 0 242 -117 242 -232c0 -116 -80 -228 -241 -228h-105zM304 347c85 0 128 66 128 124c0 59 -44 128 -128 128h-104v-252h104z" />
    <glyph glyph-name="afii10035" unicode="&#x421;" horiz-adv-x="729" 
d="M663 598l-72 -67c-54 57 -124 84 -192 82c-160 -3 -242 -137 -242 -265c0 -127 84 -259 242 -259c72 0 153 34 207 99l80 -62c-76 -92 -172 -141 -287 -141c-233 0 -357 181 -357 363s124 368 357 368c103 0 194 -33 264 -118z" />
    <glyph glyph-name="afii10036" unicode="&#x422;" horiz-adv-x="473" 
d="M9 700h446v-89h-165v-611h-115v611h-166v89z" />
    <glyph glyph-name="afii10039" unicode="&#x425;" horiz-adv-x="639" 
d="M626 700l-231 -344l232 -356h-131l-177 282l-180 -282h-129l233 356l-231 344h133l174 -266l174 266h133z" />
    <glyph glyph-name="afii10045" unicode="&#x42b;" horiz-adv-x="841" 
d="M290 339h-94v-242h94c81 1 122 62 122 120c0 59 -41 121 -122 122zM196 700v-265h95c154 0 232 -110 232 -218c0 -107 -78 -217 -233 -217h-205v700h111zM635 0v700h110v-700h-110z" />
    <glyph glyph-name="afii10049" unicode="&#x42f;" horiz-adv-x="623" 
d="M34 0l199 275c-101 15 -181 88 -180 209c2 146 107 217 245 217h230v-701h-115v272h-49l-196 -272h-134zM297 368h116v233h-116c-174 0 -182 -233 0 -233z" />
    <glyph glyph-name="bga" unicode="&#x430;" horiz-adv-x="555" 
d="M260 86c39 0 87 20 114 49v86c-26 22 -63 33 -101 34c-68 2 -136 -29 -136 -86s39 -83 123 -83zM480 0h-84l-18 61c-37 -56 -86 -68 -144 -68c-275 0 -275 358 37 347c32 -1 80 -9 102 -30c0 91 -57 121 -121 120c-54 -1 -97 -15 -140 -41l-43 65
c142 117 411 87 411 -146v-308z" />
    <glyph glyph-name="afii10070" unicode="&#x435;" horiz-adv-x="599" 
d="M294 89c45 0 101 8 143 66l77 -49c-59 -79 -136 -114 -220 -114c-173 0 -260 132 -259 263c0 131 90 263 258 264c170 1 274 -149 244 -310h-393c12 -63 65 -120 150 -120zM146 292h290c-3 89 -74 131 -145 131c-76 0 -143 -46 -145 -131z" />
    <glyph glyph-name="afii10075" unicode="&#x439;" horiz-adv-x="620" 
d="M437 0v351l-259 -351h-109v507h109v-355l259 355h109v-507h-109zM314 566c-73 0 -133 39 -133 128h76c0 -37 30 -54 58 -54c31 0 56 16 56 54h75c0 -89 -60 -128 -132 -128z" />
    <glyph glyph-name="afii10076" unicode="&#x43a;" horiz-adv-x="519" 
d="M68 507h106v-197l197 198h133l-221 -225l228 -283h-126l-174 222l-37 -35v-187h-106v507z" />
    <glyph glyph-name="afii10080" unicode="&#x43e;" 
d="M147 253c0 -112 81 -166 156 -166c77 0 155 54 155 166s-78 164 -155 164c-75 0 -156 -52 -156 -164zM567 253c0 -147 -111 -264 -264 -264c-152 0 -265 117 -265 264c0 148 113 263 265 263c153 0 264 -115 264 -263z" />
    <glyph glyph-name="afii10082" unicode="&#x440;" horiz-adv-x="582" 
d="M527 251c0 -137 -101 -261 -238 -259c-41 1 -83 8 -117 49v-234h-104v700h89l16 -49c32 37 74 53 125 53c115 0 229 -87 229 -260zM281 88c88 0 140 75 140 166c0 121 -76 162 -153 163c-32 0 -69 -11 -94 -43v-231c24 -45 67 -55 107 -55z" />
    <glyph glyph-name="afii10083" unicode="&#x441;" horiz-adv-x="522" 
d="M482 435l-61 -68c-40 39 -86 50 -129 50c-78 1 -153 -56 -154 -166c0 -87 54 -163 155 -163c49 0 84 12 131 54l62 -67c-54 -54 -122 -86 -193 -86c-173 0 -263 126 -263 264c1 138 94 263 263 264c71 0 132 -26 189 -82z" />
    <glyph glyph-name="afii10085" unicode="&#x443;" horiz-adv-x="510" 
d="M73 -191v89c62 -7 85 17 95 43l30 74l-203 492h117l143 -359l130 359h117l-235 -604c-36 -89 -113 -103 -194 -94z" />
    <glyph glyph-name="afii10087" unicode="&#x445;" horiz-adv-x="514" 
d="M250 317l119 191h126l-170 -254l172 -254h-126l-121 194l-125 -194h-124l173 254l-170 254h131z" />
    <glyph glyph-name="afii10091" unicode="&#x449;" horiz-adv-x="840" 
d="M463 92h174v415h112v-412h56v-207h-97v112h-638v507h112v-415h176v415h105v-415z" />
    <glyph glyph-name="afii10093" unicode="&#x44b;" horiz-adv-x="761" 
d="M174 507v-183h109c99 0 193 -40 193 -162c0 -118 -94 -162 -193 -162h-214v507h105zM283 234h-109v-143h109c44 0 89 23 89 71c0 50 -45 71 -89 72zM579 0v507h107v-507h-107z" />
    <glyph glyph-name="afii10018" unicode="&#x411;" horiz-adv-x="591" 
d="M198 606v-164h96c158 0 236 -110 236 -220c0 -111 -79 -221 -236 -222h-208v700h396v-94h-284zM294 341h-96v-243h96c82 2 125 64 125 124c0 59 -42 119 -125 119z" />
    <glyph glyph-name="afii10020" unicode="&#x413;" horiz-adv-x="518" 
d="M475 700v-98h-278v-602h-112v700h390z" />
    <glyph glyph-name="afii10021" unicode="&#x414;" horiz-adv-x="683" 
d="M578 97h43v-239h-100v142h-404v-142h-98v227l57 12c40 41 53 129 59 192l26 411h417v-603zM180 97h288v510h-206l-14 -253c-5 -106 -11 -210 -68 -257z" />
    <glyph glyph-name="afii10024" unicode="&#x416;" horiz-adv-x="851" 
d="M362 700h106v-275l235 275h134l-280 -317l285 -383h-127l-235 323l-12 -20v-303h-106v302l-11 19l-240 -321h-126l288 383l-280 317h133l236 -275v275z" />
    <glyph glyph-name="afii10025" unicode="&#x417;" horiz-adv-x="544" 
d="M19 140l81 55c48 -82 100 -102 159 -102c70 0 123 40 123 121c0 59 -51 109 -110 110h-116v92h116c45 0 94 41 95 94c-3 70 -56 103 -113 103c-47 0 -108 -24 -138 -80l-73 55c60 90 129 122 214 122c108 0 220 -67 220 -199c0 -48 -26 -115 -91 -140
c75 -31 109 -97 109 -158c0 -140 -109 -223 -237 -223c-91 1 -182 42 -239 150z" />
    <glyph glyph-name="afii10029" unicode="&#x41b;" horiz-adv-x="637" 
d="M125 330l16 371h403v-701h-112v606h-186l-10 -276c-3 -123 -14 -255 -189 -348l-53 81c124 75 127 160 131 267z" />
    <glyph glyph-name="afii10033" unicode="&#x41f;" horiz-adv-x="653" 
d="M558 0h-113v604h-247v-604h-112v700h472v-700z" />
    <glyph glyph-name="afii10037" unicode="&#x423;" horiz-adv-x="559" 
d="M115 700l169 -359l151 359h120l-266 -603c-35 -76 -64 -97 -155 -97h-54v96h55c30 0 43 12 57 42l36 84l-234 478h121z" />
    <glyph glyph-name="afii10038" unicode="&#x424;" horiz-adv-x="803" 
d="M342 628v75h110v-74c196 0 293 -136 293 -276s-97 -280 -293 -280v-78h-110v78c-198 0 -295 139 -295 278c0 140 98 277 295 277zM452 543v-385c126 0 181 101 181 192c0 92 -62 193 -181 193zM158 352c0 -90 59 -194 184 -194v385c-123 0 -184 -101 -184 -191z" />
    <glyph glyph-name="afii10040" unicode="&#x426;" horiz-adv-x="667" 
d="M558 97h59v-238h-105v141h-427v700h113v-603h245v603h115v-603z" />
    <glyph glyph-name="afii10041" unicode="&#x427;" horiz-adv-x="629" 
d="M534 700v-700h-112v247c-32 -9 -60 -12 -93 -12c-138 0 -269 68 -269 227v238h112v-238c0 -86 79 -128 160 -128c32 0 62 5 90 13v353h112z" />
    <glyph glyph-name="afii10042" unicode="&#x428;" horiz-adv-x="965" 
d="M86 700h113v-606h222v606h112v-606h222v606h114v-700h-783v700z" />
    <glyph glyph-name="afii10043" unicode="&#x429;" horiz-adv-x="977" 
d="M91 700h113v-606h222v606h112v-606h222v606h114v-606h59v-235h-106v141h-736v700z" />
    <glyph glyph-name="afii10044" unicode="&#x42a;" horiz-adv-x="646" 
d="M476 217c0 61 -42 120 -126 123h-92v-244h93c84 2 125 62 125 121zM258 700v-264h94c155 0 235 -111 235 -219c0 -111 -80 -217 -236 -217h-205l1 606h-132v94h243z" />
    <glyph glyph-name="afii10046" unicode="&#x42c;" horiz-adv-x="580" 
d="M290 339h-94v-242h94c81 1 122 62 122 120c0 59 -41 121 -122 122zM196 700v-265h95c154 0 232 -110 232 -218c0 -107 -78 -217 -233 -217h-205v700h111z" />
    <glyph glyph-name="afii10047" unicode="&#x42d;" horiz-adv-x="717" 
d="M210 303v96h334c-16 138 -117 208 -243 208c-80 0 -137 -39 -191 -95l-70 68c77 83 154 129 261 129c229 0 356 -174 356 -362c0 -191 -136 -355 -356 -355c-103 0 -206 48 -280 148l78 64c54 -79 135 -109 202 -109c132 0 232 71 245 208h-336z" />
    <glyph glyph-name="afii10048" unicode="&#x42e;" horiz-adv-x="1065" 
d="M648 710c212 -3 357 -154 357 -362c0 -71 -15 -137 -55 -199c-34 -51 -79 -91 -135 -121c-75 -40 -179 -52 -266 -24c-130 39 -236 143 -253 296h-96v-300h-114v700h114v-301h97c8 80 48 157 100 212c68 66 158 99 251 99zM648 607c-64 0 -124 -23 -172 -71
c-49 -52 -69 -117 -70 -188c1 -35 6 -67 15 -92c25 -75 87 -131 158 -155v0c23 -7 47 -9 69 -9c103 0 194 52 232 161c8 27 13 60 13 95c0 146 -99 258 -245 259z" />
    <glyph glyph-name="afii10066" unicode="&#x431;" horiz-adv-x="625" 
d="M163 253c0 -90 55 -163 152 -163c87 0 149 67 149 163c-1 108 -75 158 -149 159c-75 1 -152 -54 -152 -159zM139 402l5 -1c41 83 108 108 172 108c132 0 255 -78 256 -256c0 -148 -109 -264 -258 -260c-102 0 -195 50 -235 153c-19 47 -22 119 -25 166
c-7 237 128 378 351 378c10 0 27 8 27 38h91c2 -107 -53 -138 -110 -136c-207 8 -248 -120 -274 -190z" />
    <glyph glyph-name="afii10067" unicode="&#x432;" horiz-adv-x="543" 
d="M76 0v507h205c95 0 188 -35 189 -143c0 -36 -19 -86 -69 -102c55 -12 87 -56 89 -103c5 -122 -101 -159 -201 -159h-213zM281 417h-100v-113h105c47 0 81 18 80 59c-1 40 -38 54 -85 54zM277 219h-96v-129h108c51 0 96 16 96 65c0 56 -64 65 -108 64z" />
    <glyph glyph-name="afii10068" unicode="&#x433;" horiz-adv-x="486" 
d="M84 0v507h349v-95h-240v-412h-109z" />
    <glyph glyph-name="afii10069" unicode="&#x434;" horiz-adv-x="611" 
d="M515 507v-413h54v-206h-101v112h-354v-112h-99v206h51c35 28 43 78 43 137v276h406zM170 94h236v323h-190v-196c0 -35 -4 -97 -46 -127z" />
    <glyph glyph-name="afii10072" unicode="&#x436;" horiz-adv-x="715" 
d="M297 507h103v-188l172 188h127l-211 -230l217 -277h-123l-170 225l-12 -12v-213h-103v213l-12 12l-170 -225h-121l217 278l-213 229h132l167 -187v187z" />
    <glyph glyph-name="afii10073" unicode="&#x437;" horiz-adv-x="445" 
d="M387 368c0 -33 -16 -83 -58 -103c52 -19 73 -71 73 -107c1 -126 -102 -170 -201 -170c-69 0 -132 18 -190 72l50 71c42 -43 96 -56 145 -56c47 0 93 24 88 81c-5 56 -81 62 -124 62h-60v87h63c52 -1 109 13 107 63c-2 90 -157 90 -205 18l-49 62c52 56 111 73 170 73
c93 0 190 -47 191 -153z" />
    <glyph glyph-name="afii10079" unicode="&#x43d;" horiz-adv-x="558" 
d="M66 507h107v-208h203v208h108v-507h-108v208h-203v-208h-107v507z" />
    <glyph glyph-name="afii10081" unicode="&#x43f;" horiz-adv-x="558" 
d="M66 507h418v-507h-108v413h-203v-413h-107v507z" />
    <glyph glyph-name="afii10084" unicode="&#x442;" horiz-adv-x="444" 
d="M13 415v92h413v-92h-153v-415h-108v415h-152z" />
    <glyph glyph-name="afii10086" unicode="&#x444;" horiz-adv-x="679" 
d="M287 419c-177 -18 -190 -314 0 -337v337zM384 419v-338c188 24 188 316 0 338zM285 699h102v-186c145 -11 235 -121 235 -260c0 -141 -91 -254 -235 -259v-185h-102v185c-144 3 -239 118 -235 259c-2 138 92 247 235 258v188z" />
    <glyph glyph-name="afii10074" unicode="&#x438;" horiz-adv-x="621" 
d="M437 0v351l-259 -351h-109v507h109v-355l259 355h109v-507h-109z" />
    <glyph glyph-name="afii10077" unicode="&#x43b;" horiz-adv-x="546" 
d="M203 231c0 -89 -14 -164 -146 -244l-54 71c96 52 94 122 94 191v258h374v-507h-108v416h-160v-185z" />
    <glyph glyph-name="afii10078" unicode="&#x43c;" horiz-adv-x="688" 
d="M508 0v341l-131 -253h-78l-125 242v-330h-104v507h120l149 -286l149 286h124v-507h-104z" />
    <glyph glyph-name="afii10088" unicode="&#x446;" horiz-adv-x="582" 
d="M384 507h107v-415h56v-204h-97v112h-379v507h107v-415h206v415z" />
    <glyph glyph-name="afii10089" unicode="&#x447;" horiz-adv-x="538" 
d="M463 0h-108v155c-27 -7 -56 -11 -81 -11c-121 0 -231 69 -231 218v145h106v-145c0 -83 61 -124 128 -124c27 0 52 3 78 11v258h108v-507z" />
    <glyph glyph-name="afii10090" unicode="&#x448;" horiz-adv-x="824" 
d="M463 92h174v415h112v-507h-679v507h112v-415h176v415h105v-415z" />
    <glyph glyph-name="afii10092" unicode="&#x44a;" horiz-adv-x="586" 
d="M236 507v-181h109c98 0 193 -44 193 -164c0 -118 -95 -162 -193 -162h-215v418h-117v89h223zM345 233h-109v-143h109c43 0 88 24 88 72c0 51 -45 70 -88 71z" />
    <glyph glyph-name="afii10094" unicode="&#x44c;" horiz-adv-x="524" 
d="M174 507v-183h109c99 0 193 -40 193 -162c0 -118 -94 -162 -193 -162h-214v507h105zM283 234h-109v-143h109c44 0 89 23 89 71c0 50 -45 71 -89 72z" />
    <glyph glyph-name="afii10095" unicode="&#x44d;" horiz-adv-x="505" 
d="M80 367l-61 61c59 72 126 89 187 89c149 -2 253 -116 253 -267c0 -145 -102 -258 -252 -259c-77 0 -140 25 -196 85l58 68c89 -87 259 -64 284 66h-244v90h244c-17 134 -196 154 -273 67z" />
    <glyph glyph-name="afii10096" unicode="&#x44e;" horiz-adv-x="811" 
d="M351 252c0 -89 55 -160 150 -160c96 0 150 70 150 160c0 89 -60 161 -150 161c-86 0 -150 -68 -150 -161zM176 205v-205h-104v507h104v-205h74c26 117 117 211 251 211c146 0 256 -116 256 -261c0 -88 -40 -171 -118 -222c-41 -24 -91 -37 -138 -37
c-125 0 -228 83 -251 212h-74z" />
    <glyph glyph-name="bgq" unicode="&#x44f;" horiz-adv-x="511" 
d="M437 507v-507h-105v200h-56l-134 -200h-120l144 207c-72 12 -132 56 -132 144c0 113 89 156 189 156h214zM223 288h109v125h-109c-43 -1 -86 -15 -86 -62c0 -46 43 -63 86 -63z" />
    <glyph glyph-name="afii10099" unicode="&#x452;" horiz-adv-x="595" 
d="M72 700h107v-63h123v-79h-123v-80c26 23 60 35 105 35c138 -2 244 -83 244 -231v-70c0 -143 -53 -218 -224 -212v89c92 0 117 25 117 123v70c-1 124 -152 172 -243 105v-387h-106v558h-60v79h60v63z" />
    <glyph glyph-name="afii10106" unicode="&#x459;" horiz-adv-x="787" 
d="M91 507h342v-186h109c100 0 196 -36 196 -159c0 -117 -96 -162 -196 -162h-214v420h-131v-189c0 -89 -8 -173 -146 -245l-52 72c98 59 92 115 92 186v263zM542 231h-109v-141h109c51 0 91 24 91 72c0 50 -40 69 -91 69z" />
    <glyph glyph-name="afii10107" unicode="&#x45a;" horiz-adv-x="811" 
d="M352 507h107v-193h108c100 0 195 -31 195 -154c0 -119 -95 -160 -195 -160h-215v225h-171v-225h-107v507h107v-193h171v193zM567 226h-108v-137h108c46 0 93 23 93 71s-47 65 -93 66z" />
    <glyph glyph-name="afii10051" unicode="&#x402;" horiz-adv-x="670" 
d="M354 -1v93c92 7 150 34 150 129v57c5 88 -61 139 -131 139c-31 0 -61 -8 -87 -28v-389h-110v605h-166v95h444v-95h-167v-113c29 12 67 20 97 20c121 0 238 -95 231 -235v-56c1 -150 -97 -218 -261 -222z" />
    <glyph glyph-name="afii10058" unicode="&#x409;" horiz-adv-x="892" 
d="M506 700v-269h94c156 0 235 -109 235 -215c0 -107 -79 -216 -236 -216h-205v608h-154l-5 -257c-3 -136 3 -271 -191 -373l-46 84c119 72 124 148 127 263v-1c2 119 6 257 8 376h373zM599 338h-93v-245h93c82 0 124 64 124 123s-42 122 -124 122z" />
    <glyph glyph-name="afii10059" unicode="&#x40a;" horiz-adv-x="902" 
d="M516 700v-286h96c156 0 234 -100 234 -204s-79 -210 -235 -210h-205v316h-209v-316h-112v700h112v-286h209v286h110zM611 316h-95v-223h95c81 0 125 61 125 117c0 53 -44 106 -125 106z" />
    <glyph glyph-name="afii10060" unicode="&#x40b;" horiz-adv-x="686" 
d="M620 0h-111v280c5 95 -61 135 -130 135c-31 0 -61 -8 -87 -28v-387h-111v608h-166v92h444v-92h-166v-116c29 12 66 22 96 22c121 0 238 -83 231 -235v-279z" />
    <glyph glyph-name="dieresistonos" unicode="&#x385;" horiz-adv-x="509" 
d="M468 649h-102v93h102v-93zM349 745l-92 -137h-79l67 137h104zM167 649h-102v93h102v-93z" />
    <glyph glyph-name="Alphatonos" unicode="&#x386;" horiz-adv-x="636" 
d="M-1 0l251 705h122l254 -705h-120l-78 213h-233l-75 -213h-121zM229 313h164l-65 200l-16 72h-5l-16 -72zM81 571l94 131h-112l-66 -131h84z" />
    <glyph glyph-name="tonos" unicode="&#x384;" horiz-adv-x="509" 
d="M346 844l-99 -133h-94l75 133h118z" />
    <glyph glyph-name="iotadieresistonos" unicode="&#x390;" horiz-adv-x="293" 
d="M228 87v-87c-102 -7 -166 9 -166 128v379h108v-379c0 -23 13 -41 58 -41zM331 606h-102v93h102v-93zM227 702l-92 -137h-79l67 137h104zM59 606h-102v93h102v-93z" />
    <glyph glyph-name="Alpha" unicode="&#x391;" horiz-adv-x="636" 
d="M-1 0l251 705h122l254 -705h-120l-78 213h-233l-75 -213h-121zM229 313h164l-65 200l-16 72h-5l-16 -72z" />
    <glyph glyph-name="Beta" unicode="&#x392;" horiz-adv-x="609" 
d="M200 418h109c70 0 100 50 100 94c0 43 -30 95 -100 95h-109v-189zM309 323h-109v-223h109c89 0 129 59 129 111s-41 112 -129 112zM518 511c0 -48 -23 -106 -84 -134c79 -29 115 -107 114 -169c0 -145 -117 -208 -241 -208h-221v704h223c116 0 209 -73 209 -193z" />
    <glyph glyph-name="Gamma" unicode="&#x393;" horiz-adv-x="518" 
d="M475 700v-98h-278v-602h-112v700h390z" />
    <glyph glyph-name="Delta" unicode="&#x394;" horiz-adv-x="636" 
d="M626 0h-627l251 705h122zM291 513l-140 -415h322l-145 415l-16 72h-5z" />
    <glyph glyph-name="Epsilon" unicode="&#x395;" horiz-adv-x="531" 
d="M462 701v-103h-278v-195h274v-103h-274v-199h278v-101h-393v701h393z" />
    <glyph glyph-name="Zeta" unicode="&#x396;" horiz-adv-x="568" 
d="M514 705v-95l-341 -505h342v-105h-466v101l249 369l96 132h-338v103h458z" />
    <glyph glyph-name="Eta" unicode="&#x397;" horiz-adv-x="688" 
d="M471 0v297h-269v-297h-115v703h115v-302h269v302h115v-703h-115z" />
    <glyph glyph-name="Theta" unicode="&#x398;" horiz-adv-x="820" 
d="M400 715c197 0 358 -157 358 -366c0 -210 -161 -364 -358 -364s-358 151 -358 364c0 212 161 366 358 366zM158 349c0 -177 120 -260 242 -260c121 0 243 80 243 260c0 167 -122 263 -244 262c-121 -1 -241 -96 -241 -262zM215 305v103h366v-103h-366z" />
    <glyph glyph-name="Iota" unicode="&#x399;" horiz-adv-x="284" 
d="M82 0v703h114v-703h-114z" />
    <glyph glyph-name="Kappa" unicode="&#x39a;" horiz-adv-x="630" 
d="M87 701h115v-310l275 310h136l-274 -307l282 -394h-132l-225 319l-62 -62v-257h-115v701z" />
    <glyph glyph-name="Lambda" unicode="&#x39b;" horiz-adv-x="627" 
d="M282 497l-166 -499h-122l243 705h137l247 -705h-123l-164 499l-26 109h-5z" />
    <glyph glyph-name="Mu" unicode="&#x39c;" horiz-adv-x="851" 
d="M416 245l197 459h130v-704h-115v353l16 166l-5 1l-52 -150l-121 -263h-100l-121 263l-52 150l-5 -1l16 -166v-353h-115v704h130z" />
    <glyph glyph-name="Nu" unicode="&#x39d;" horiz-adv-x="733" 
d="M220 704l257 -456l48 -105l3 1l-15 130v430h115v-704h-131l-259 456l-49 105l-3 -1l16 -130v-430h-115v704h133z" />
    <glyph glyph-name="Omicron" unicode="&#x39f;" horiz-adv-x="820" 
d="M400 715c197 0 358 -157 358 -366c0 -210 -161 -364 -358 -364s-358 151 -358 364c0 212 161 366 358 366zM158 349c0 -168 120 -260 242 -260c121 0 243 92 243 260c0 167 -122 263 -244 262c-121 -1 -241 -96 -241 -262z" />
    <glyph glyph-name="Pi" unicode="&#x3a0;" horiz-adv-x="653" 
d="M558 0h-113v604h-247v-604h-112v700h472v-700z" />
    <glyph glyph-name="Rho" unicode="&#x3a1;" horiz-adv-x="583" 
d="M200 243v-244h-114v704h218c162 0 242 -117 242 -232c0 -116 -80 -228 -241 -228h-105zM304 347c85 0 128 66 128 124c0 59 -44 128 -128 128h-104v-252h104z" />
    <glyph glyph-name="Tau" unicode="&#x3a4;" horiz-adv-x="469" 
d="M5 702h446v-99h-165v-603h-115v603h-166v99z" />
    <glyph glyph-name="Upsilon" unicode="&#x3a5;" horiz-adv-x="589" 
d="M584 705l-241 -424v-281h-113v282l-240 423h131l166 -306l164 306h133z" />
    <glyph glyph-name="Phi" unicode="&#x3a6;" horiz-adv-x="804" 
d="M342 628v75h110v-74c196 0 293 -136 293 -276s-97 -280 -293 -280v-78h-110v78c-198 0 -295 139 -295 278c0 140 98 277 295 277zM452 543v-385c126 0 181 101 181 192c0 92 -62 193 -181 193zM158 352c0 -90 59 -194 184 -194v385c-123 0 -184 -101 -184 -191z" />
    <glyph glyph-name="Chi" unicode="&#x3a7;" horiz-adv-x="643" 
d="M626 700l-231 -350l232 -349h-136l-172 274l-172 -274h-137l233 349l-231 350h135l172 -273l172 273h135z" />
    <glyph glyph-name="Iotadieresis" unicode="&#x3aa;" horiz-adv-x="284" 
d="M82 0v703h114v-703h-114zM95 749h-104v96h104v-96zM285 749h-105v96h105v-96z" />
    <glyph glyph-name="Upsilondieresis" unicode="&#x3ab;" horiz-adv-x="589" 
d="M584 705l-241 -424v-281h-113v282l-240 423h131l166 -306l164 306h133zM244 751h-104v96h104v-96zM434 751h-105v96h105v-96z" />
    <glyph glyph-name="alphatonos" unicode="&#x3ac;" horiz-adv-x="575" 
d="M41 251c0 173 114 260 229 260c53 0 91 -13 125 -53l16 49h89v-507h-86l-17 60c-27 -47 -71 -68 -124 -68c-144 0 -232 113 -232 259zM287 88c40 0 88 11 107 71v215c-93 91 -247 44 -247 -120c0 -100 52 -166 140 -166zM417 702l-99 -131h-85l72 131h112z" />
    <glyph glyph-name="epsilontonos" unicode="&#x3ad;" horiz-adv-x="429" 
d="M357 126l42 -82c-52 -30 -108 -51 -164 -51c-99 0 -210 41 -204 162c2 43 33 89 92 107c-58 18 -75 69 -75 102c0 162 235 186 337 105l-43 -74c-47 39 -186 39 -188 -32c-2 -46 62 -56 110 -56h63v-91h-60c-58 0 -127 -5 -128 -62c1 -60 61 -62 98 -61c37 0 76 8 120 33
zM352 702l-95 -125h-81l69 125h107z" />
    <glyph glyph-name="iotatonos" unicode="&#x3af;" horiz-adv-x="250" 
d="M228 87v-87c-102 -7 -166 9 -166 128v379h108v-379c0 -23 13 -41 58 -41zM252 702l-99 -131h-85l72 131h112z" />
    <glyph glyph-name="upsilondieresistonos" unicode="&#x3b0;" horiz-adv-x="577" 
d="M283 93c65 0 114 42 114 119v295h106v-295c1 -132 -91 -219 -220 -219c-124 0 -214 89 -213 219v295h106v-295c0 -76 47 -119 107 -119zM495 606h-102v93h102v-93zM376 702l-92 -137h-79l67 137h104zM194 606h-102v93h102v-93z" />
    <glyph glyph-name="alpha" unicode="&#x3b1;" horiz-adv-x="576" 
d="M41 251c0 173 114 260 229 260c53 0 91 -13 125 -53l16 49h89v-507h-86l-17 60c-27 -47 -71 -68 -124 -68c-144 0 -232 113 -232 259zM287 88c40 0 88 11 107 71v215c-93 91 -247 44 -247 -120c0 -100 52 -166 140 -166z" />
    <glyph glyph-name="beta" unicode="&#x3b2;" horiz-adv-x="581" 
d="M212 3v104c93 -44 195 11 195 104c0 57 -43 114 -127 114h-66v102h66c61 0 93 53 91 97c-4 62 -50 84 -97 84c-48 0 -95 -35 -95 -89v-712h-113v712c0 124 100 194 208 194c109 0 205 -62 205 -190c0 -47 -19 -113 -88 -140c99 -27 135 -109 134 -172
c4 -182 -160 -249 -313 -208z" />
    <glyph glyph-name="eta" unicode="&#x3b7;" horiz-adv-x="607" 
d="M70 507h90l14 -56c32 51 94 64 128 64c129 0 230 -89 230 -229v-286h-109v286c0 128 -161 179 -244 84v-370h-109v507z" />
    <glyph glyph-name="kappa" unicode="&#x3ba;" horiz-adv-x="518" 
d="M68 507h106v-197l197 198h133l-221 -225l228 -283h-126l-174 222l-37 -35v-187h-106v507z" />
    <glyph glyph-name="nu" unicode="&#x3bd;" horiz-adv-x="484" 
d="M113 509l90 -285l33 -136h4l31 137l87 284h116l-173 -511h-130l-174 511h116z" />
    <glyph glyph-name="omicron" unicode="&#x3bf;" 
d="M140 253c0 -112 81 -166 156 -166c77 0 155 54 155 166s-78 164 -155 164c-75 0 -156 -52 -156 -164zM560 253c0 -147 -111 -264 -264 -264c-152 0 -265 117 -265 264c0 148 113 263 265 263c153 0 264 -115 264 -263z" />
    <glyph glyph-name="pi" unicode="&#x3c0;" horiz-adv-x="558" 
d="M66 507h418v-507h-108v413h-203v-413h-107v507z" />
    <glyph glyph-name="sigma1" unicode="&#x3c2;" horiz-adv-x="522" 
d="M482 435l-61 -68c-40 39 -86 50 -129 50c-78 1 -153 -56 -154 -166c0 -87 54 -163 155 -163c49 0 84 12 131 54l62 -67c-54 -54 -122 -86 -193 -86c-173 0 -263 126 -263 264c1 138 94 263 263 264c71 0 132 -26 189 -82z" />
    <glyph glyph-name="sigma" unicode="&#x3c3;" 
d="M561 250c0 -153 -112 -261 -265 -261c-152 0 -265 114 -265 261c0 148 113 259 265 259h1h300v-91h-123c54 -30 87 -115 87 -168zM140 250c0 -112 81 -163 156 -163c99 0 156 66 156 163c0 86 -57 160 -156 160c-75 0 -156 -48 -156 -160z" />
    <glyph glyph-name="chi" unicode="&#x3c7;" horiz-adv-x="514" 
d="M250 320l123 186h122l-170 -252l172 -254h-123l-124 194l-129 -194h-120l173 254l-170 252h124z" />
    <glyph glyph-name="iotadieresis" unicode="&#x3ca;" horiz-adv-x="241" 
d="M228 0v87c-45 0 -58 18 -58 41v379h-108v-379c0 -119 64 -135 166 -128zM78 605h-104v96h104v-96zM268 605h-105v96h105v-96z" />
    <glyph glyph-name="upsilondieresis" unicode="&#x3cb;" horiz-adv-x="577" 
d="M283 93c-60 0 -107 43 -107 119v295h-106v-295c-1 -130 89 -219 213 -219c129 0 221 87 220 219v295h-106v-295c0 -77 -49 -119 -114 -119zM243 603h-104v96h104v-96zM433 603h-105v96h105v-96z" />
    <glyph glyph-name="omicrontonos" unicode="&#x3cc;" 
d="M140 253c0 -112 81 -166 156 -166c77 0 155 54 155 166s-78 164 -155 164c-75 0 -156 -52 -156 -164zM560 253c0 -147 -111 -264 -264 -264c-152 0 -265 117 -265 264c0 148 113 263 265 263c153 0 264 -115 264 -263zM436 702l-99 -133h-94l75 133h118z" />
    <glyph glyph-name="upsilontonos" unicode="&#x3cd;" horiz-adv-x="577" 
d="M283 93c65 0 114 42 114 119v295h106v-295c1 -132 -91 -219 -220 -219c-124 0 -214 89 -213 219v295h106v-295c0 -76 47 -119 107 -119zM429 706l-99 -133h-94l75 133h118z" />
    <glyph glyph-name="omegatonos" unicode="&#x3ce;" horiz-adv-x="749" 
d="M474 433l23 83c143 -22 196 -145 196 -261c0 -126 -64 -259 -198 -260c-68 0 -108 28 -128 90c-24 -64 -65 -90 -127 -90c-133 1 -197 129 -197 260c0 124 60 234 196 262l21 -86c-157 -19 -143 -333 -20 -335c49 0 81 45 81 91v200h94v-199c3 -50 29 -91 80 -91
c126 0 134 318 -21 336zM510 704l-96 -129h-91l73 129h114z" />
    <glyph glyph-name="Xi" unicode="&#x39e;" horiz-adv-x="532" 
d="M24 101h475v-101h-475v101zM494 600h-464v100h464v-100zM64 304v98h393v-98h-393z" />
    <glyph glyph-name="Sigma" unicode="&#x3a3;" horiz-adv-x="546" 
d="M337 379v-39l-167 -243h339v-97h-443l-46 56l202 302l-194 284l41 58h433v-94h-325z" />
    <glyph glyph-name="Psi" unicode="&#x3a8;" horiz-adv-x="749" 
d="M314 233v467h112v-468c106 0 159 107 160 199v269h110v-269c0 -136 -76 -292 -270 -292v-139h-112v139c-190 0 -271 156 -272 291v270h111v-269c1 -89 49 -198 161 -198z" />
    <glyph glyph-name="Omega" unicode="&#x3a9;" horiz-adv-x="807" 
d="M396 607c-145 0 -248 -109 -248 -251c0 -133 79 -222 196 -268l-22 -88h-302v96l172 -1c-99 36 -153 159 -153 261c0 204 147 354 357 354c211 0 355 -151 355 -354c0 -98 -50 -216 -150 -261h171v-95h-296l-17 88c114 53 185 131 185 268c0 141 -103 251 -248 251z" />
    <glyph glyph-name="gamma" unicode="&#x3b3;" horiz-adv-x="489" 
d="M8 421v86c98 2 130 -12 158 -85l85 -272l116 357h110l-178 -485v-215h-98l1 215l-139 370c-6 17 -15 29 -55 29z" />
    <glyph glyph-name="delta" unicode="&#x3b4;" horiz-adv-x="599" 
d="M548 239c0 -141 -106 -245 -256 -245c-136 0 -257 85 -257 243c0 72 45 165 151 195c-73 14 -96 79 -97 111c-4 192 271 198 404 107l-49 -76c-61 44 -240 70 -247 -19c-4 -51 64 -74 107 -77c61 -8 114 -22 163 -65c52 -46 81 -108 81 -174zM443 239
c0 76 -62 147 -151 147c-80 0 -150 -62 -150 -147c0 -82 58 -147 150 -147c93 0 151 61 151 147z" />
    <glyph glyph-name="epsilon" unicode="&#x3b5;" horiz-adv-x="429" 
d="M353 121l42 -81c-51 -31 -107 -51 -162 -51c-98 0 -208 41 -202 164c2 44 33 91 91 109c-57 19 -74 71 -74 104c0 160 232 190 333 107l-42 -72c-47 40 -182 52 -184 -36c-2 -47 59 -57 106 -57h63v-93h-60c-170 0 -158 -137 -29 -133c36 0 75 13 118 39z" />
    <glyph glyph-name="zeta" unicode="&#x3b6;" horiz-adv-x="449" 
d="M445 700v-75c-108 -95 -308 -286 -308 -426c0 -33 16 -58 52 -76c34 -18 102 -41 139 -53c58 -18 97 -74 83 -134c-6 -24 -41 -77 -71 -122l-80 46c12 18 72 102 29 118c-25 10 -45 18 -55 21c-36 11 -77 23 -105 40c-66 38 -98 97 -98 157c0 133 127 305 288 418h-273
v86h399z" />
    <glyph glyph-name="theta" unicode="&#x3b8;" horiz-adv-x="608" 
d="M552 341c0 -147 -71 -348 -255 -348c-177 0 -258 178 -258 348c0 95 22 172 73 248c23 32 50 58 80 75c33 17 68 27 104 27c34 0 72 -10 102 -27c113 -64 154 -198 154 -323zM446 314h-299c1 -109 45 -222 149 -222c105 0 147 104 150 222zM150 404h293
c-8 92 -58 191 -147 191c-86 0 -144 -106 -146 -191z" />
    <glyph glyph-name="iota" unicode="&#x3b9;" horiz-adv-x="256" 
d="M228 87v-87c-102 -7 -166 9 -166 128v379h108v-379c0 -23 13 -41 58 -41z" />
    <glyph glyph-name="lambda" unicode="&#x3bb;" horiz-adv-x="501" 
d="M74 615v85c113 4 150 -24 174 -84l184 -496c9 -21 11 -37 55 -36v-88c-99 -3 -129 28 -150 86c-34 90 -61 166 -96 259l-134 -341h-112l196 468l-37 115c-10 21 -35 36 -80 32z" />
    <glyph glyph-name="xi" unicode="&#x3be;" horiz-adv-x="446" 
d="M290 -29c-141 52 -257 96 -257 233c0 56 27 118 102 158c-59 26 -86 95 -86 141c1 113 86 206 214 206c46 0 110 -11 168 -60l-55 -71c-51 36 -86 37 -112 37c-65 0 -111 -48 -109 -111c3 -48 42 -94 94 -94h116v-92h-116c-65 -2 -112 -50 -112 -111
c0 -71 95 -112 175 -137c49 -17 104 -41 104 -99c0 -53 -35 -114 -77 -157l-72 53c42 52 65 86 23 104z" />
    <glyph glyph-name="rho" unicode="&#x3c1;" horiz-adv-x="611" 
d="M308 -5c-53 0 -113 23 -138 80c0 -78 1 -195 1 -268h-104v452c2 127 82 254 241 255c159 -1 239 -122 240 -255c3 -138 -77 -262 -240 -264zM314 416h-14c-81 0 -131 -93 -128 -166v-4c1 -68 49 -151 141 -151c78 0 128 71 129 151c2 85 -42 170 -128 170z" />
    <glyph glyph-name="tau" unicode="&#x3c4;" horiz-adv-x="351" 
d="M306 85v-86c-126 -4 -194 38 -197 144v277h-101v87h324v-87h-115v-276c0 -37 20 -64 89 -59z" />
    <glyph glyph-name="upsilon" unicode="&#x3c5;" horiz-adv-x="577" 
d="M283 93c65 0 114 42 114 119v295h106v-295c1 -132 -91 -219 -220 -219c-124 0 -214 89 -213 219v295h106v-295c0 -76 47 -119 107 -119z" />
    <glyph glyph-name="phi" unicode="&#x3c6;" horiz-adv-x="667" 
d="M185 493l49 -78c-77 -52 -90 -109 -90 -161c0 -84 43 -159 130 -170v429c177 11 341 -70 341 -259c-1 -90 -38 -172 -119 -221c-31 -19 -76 -31 -119 -37v-186h-99v184c-143 11 -240 119 -240 260c0 82 34 168 147 239zM377 422v-338c90 12 131 75 131 170
c0 85 -34 153 -131 168z" />
    <glyph glyph-name="psi" unicode="&#x3c8;" horiz-adv-x="712" 
d="M297 90v431h104v-431c86 0 132 57 132 163v254h104v-253c0 -145 -82 -257 -236 -257v-171h-104v171c-136 0 -236 102 -236 257v253h106v-253c-1 -108 49 -164 130 -164z" />
    <glyph glyph-name="omega" unicode="&#x3c9;" horiz-adv-x="749" 
d="M474 433l23 83c143 -22 196 -145 196 -261c0 -126 -64 -259 -198 -260c-68 0 -108 28 -128 90c-24 -64 -65 -90 -127 -90c-133 1 -197 129 -197 260c0 124 60 234 196 262l21 -86c-157 -19 -143 -333 -20 -335c49 0 81 45 81 91v200h94v-199c3 -50 29 -91 80 -91
c126 0 134 318 -21 336z" />
    <glyph glyph-name="etatonos" unicode="&#x3ae;" horiz-adv-x="607" 
d="M70 507h90l14 -56c32 51 94 64 128 64c129 0 230 -89 230 -229v-286h-109v286c0 128 -161 179 -244 84v-370h-109v507zM437 702l-99 -131h-85l72 131h112z" />
    <glyph glyph-name="Epsilontonos" unicode="&#x388;" horiz-adv-x="591" 
d="M522 701v-103h-278v-195h274v-103h-274v-199h278v-101h-393v701h393zM110 702l-94 -131h-84l66 131h112z" />
    <glyph glyph-name="Etatonos" unicode="&#x389;" horiz-adv-x="731" 
d="M514 0v297h-269v-297h-115v703h115v-302h269v302h115v-703h-115zM23 571l94 131h-112l-66 -131h84z" />
    <glyph glyph-name="Iotatonos" unicode="&#x38a;" horiz-adv-x="330" 
d="M128 0v703h114v-703h-114zM20 571l94 131h-112l-66 -131h84z" />
    <glyph glyph-name="Omicrontonos" unicode="&#x38c;" horiz-adv-x="820" 
d="M400 715c197 0 358 -157 358 -366c0 -210 -161 -364 -358 -364s-358 151 -358 364c0 212 161 366 358 366zM158 349c0 -168 120 -260 242 -260c121 0 243 92 243 260c0 167 -122 263 -244 262c-121 -1 -241 -96 -241 -262zM45 571l94 131h-112l-66 -131h84z" />
    <glyph glyph-name="Upsilontonos" unicode="&#x38e;" horiz-adv-x="736" 
d="M731 705l-241 -424v-281h-113v282l-240 423h131l166 -306l164 306h133zM32 571l94 131h-112l-66 -131h84z" />
    <glyph glyph-name="Omegatonos" unicode="&#x38f;" horiz-adv-x="807" 
d="M396 607c-145 0 -248 -109 -248 -251c0 -133 79 -222 196 -268l-22 -88h-302v96l172 -1c-99 36 -153 159 -153 261c0 204 147 354 357 354c211 0 355 -151 355 -354c0 -98 -50 -216 -150 -261h171v-95h-296l-17 88c114 53 185 131 185 268c0 141 -103 251 -248 251z
M128 702l-94 -131h-84l66 131h112z" />
    <glyph glyph-name="Zcaron" unicode="&#x17d;" horiz-adv-x="568" 
d="M514 705v-95l-341 -505h342v-105h-466v101l249 369l96 132h-338v103h458zM457 907l-99 -126h-111l-98 126h94l61 -72l61 72h92z" />
    <glyph glyph-name="zcaron" unicode="&#x17e;" horiz-adv-x="478" 
d="M41 0v88l160 218l87 106h-245v96h374v-71l-257 -343h260v-94h-379zM403 742l-99 -126h-111l-98 126h94l61 -72l61 72h92z" />
    <glyph glyph-name="Aring" unicode="&#xc5;" horiz-adv-x="636" 
d="M-1 0l251 705h122l254 -705h-120l-78 213h-233l-75 -213h-121zM229 313h164l-65 200l-16 72h-5l-16 -72zM308 690c-54 0 -100 34 -100 90s46 90 100 90c52 0 100 -34 100 -90s-48 -90 -100 -90zM267 780c0 -20 16 -36 40 -36c25 0 41 17 41 37c0 22 -16 37 -41 37
c-24 0 -40 -16 -40 -38z" />
    <glyph glyph-name="Adieresis" unicode="&#xc4;" horiz-adv-x="636" 
d="M-1 0l251 705h122l254 -705h-120l-78 213h-233l-75 -213h-121zM229 313h164l-65 200l-16 72h-5l-16 -72zM270 761h-104v96h104v-96zM460 761h-105v96h105v-96z" />
    <glyph glyph-name="Atilde" unicode="&#xc3;" horiz-adv-x="636" 
d="M-1 0l251 705h122l254 -705h-120l-78 213h-233l-75 -213h-121zM229 313h164l-65 200l-16 72h-5l-16 -72zM428 887l54 -43c-46 -90 -113 -93 -184 -41c-33 21 -53 7 -86 -31l-58 46c33 54 75 83 118 80c35 -2 66 -36 97 -44c20 -5 39 4 59 33z" />
    <glyph glyph-name="Acircumflex" unicode="&#xc2;" horiz-adv-x="636" 
d="M-1 0l251 705h122l254 -705h-120l-78 213h-233l-75 -213h-121zM229 313h164l-65 200l-16 72h-5l-16 -72zM151 761l102 130h115l101 -130h-97l-63 75l-63 -75h-95z" />
    <glyph glyph-name="Aacute" unicode="&#xc1;" horiz-adv-x="636" 
d="M-1 0l251 705h122l254 -705h-120l-78 213h-233l-75 -213h-121zM229 313h164l-65 200l-16 72h-5l-16 -72zM453 900l-99 -133h-94l75 133h118z" />
    <glyph glyph-name="Agrave" unicode="&#xc0;" horiz-adv-x="636" 
d="M-1 0l251 705h122l254 -705h-120l-78 213h-233l-75 -213h-121zM229 313h164l-65 200l-16 72h-5l-16 -72zM268 757l-99 133h118l75 -133h-94z" />
    <glyph glyph-name="Edieresis" unicode="&#xcb;" horiz-adv-x="537" 
d="M462 701v-99h-278v-201h274v-99h-274v-204h278v-98h-393v701h393zM241 770h-104v96h104v-96zM431 770h-105v96h105v-96z" />
    <glyph glyph-name="Ecircumflex" unicode="&#xca;" horiz-adv-x="537" 
d="M462 701v-99h-278v-201h274v-99h-274v-204h278v-98h-393v701h393zM113 762l102 130h115l101 -130h-97l-63 75l-63 -75h-95z" />
    <glyph glyph-name="Eacute" unicode="&#xc9;" horiz-adv-x="537" 
d="M462 701v-99h-278v-201h274v-99h-274v-204h278v-98h-393v701h393zM405 897l-99 -133h-94l75 133h118z" />
    <glyph glyph-name="Egrave" unicode="&#xc8;" horiz-adv-x="537" 
d="M462 701v-99h-278v-201h274v-99h-274v-204h278v-98h-393v701h393zM249 766l-99 133h118l75 -133h-94z" />
    <glyph glyph-name="Idieresis" unicode="&#xcf;" horiz-adv-x="284" 
d="M82 0v703h114v-703h-114zM93 765h-104v96h104v-96zM283 765h-105v96h105v-96z" />
    <glyph glyph-name="Icircumflex" unicode="&#xce;" horiz-adv-x="284" 
d="M82 0v703h114v-703h-114zM-16 761l102 130h115l101 -130h-97l-63 75l-63 -75h-95z" />
    <glyph glyph-name="Iacute" unicode="&#xcd;" horiz-adv-x="284" 
d="M82 0v703h114v-703h-114zM273 902l-99 -133h-94l75 133h118z" />
    <glyph glyph-name="Igrave" unicode="&#xcc;" horiz-adv-x="284" 
d="M82 0v703h114v-703h-114zM104 764l-99 133h118l75 -133h-94z" />
    <glyph glyph-name="Odieresis" unicode="&#xd6;" horiz-adv-x="820" 
d="M400 715c197 0 358 -157 358 -366c0 -210 -161 -364 -358 -364s-358 151 -358 364c0 212 161 366 358 366zM158 349c0 -168 120 -260 242 -260c121 0 243 92 243 260c0 167 -122 263 -244 262c-121 -1 -241 -96 -241 -262zM356 782h-104v96h104v-96zM546 782h-105v96h105
v-96z" />
    <glyph glyph-name="Otilde" unicode="&#xd5;" horiz-adv-x="820" 
d="M400 715c197 0 358 -157 358 -366c0 -210 -161 -364 -358 -364s-358 151 -358 364c0 212 161 366 358 366zM158 349c0 -168 120 -260 242 -260c121 0 243 92 243 260c0 167 -122 263 -244 262c-121 -1 -241 -96 -241 -262zM518 894l54 -43c-46 -90 -113 -93 -184 -41
c-33 21 -53 7 -86 -31l-58 46c33 54 75 83 118 80c35 -2 66 -36 97 -44c20 -5 39 4 59 33z" />
    <glyph glyph-name="Ocircumflex" unicode="&#xd4;" horiz-adv-x="820" 
d="M400 715c197 0 358 -157 358 -366c0 -210 -161 -364 -358 -364s-358 151 -358 364c0 212 161 366 358 366zM158 349c0 -168 120 -260 242 -260c121 0 243 92 243 260c0 167 -122 263 -244 262c-121 -1 -241 -96 -241 -262zM244 772l102 130h115l101 -130h-97l-63 75
l-63 -75h-95z" />
    <glyph glyph-name="Oacute" unicode="&#xd3;" horiz-adv-x="820" 
d="M400 715c197 0 358 -157 358 -366c0 -210 -161 -364 -358 -364s-358 151 -358 364c0 212 161 366 358 366zM158 349c0 -168 120 -260 242 -260c121 0 243 92 243 260c0 167 -122 263 -244 262c-121 -1 -241 -96 -241 -262zM538 911l-99 -133h-94l75 133h118z" />
    <glyph glyph-name="Ograve" unicode="&#xd2;" horiz-adv-x="820" 
d="M400 715c197 0 358 -157 358 -366c0 -210 -161 -364 -358 -364s-358 151 -358 364c0 212 161 366 358 366zM158 349c0 -168 120 -260 242 -260c121 0 243 92 243 260c0 167 -122 263 -244 262c-121 -1 -241 -96 -241 -262zM359 781l-99 133h118l75 -133h-94z" />
    <glyph glyph-name="Ntilde" unicode="&#xd1;" horiz-adv-x="733" 
d="M220 704l257 -456l48 -105l3 1l-15 130v430h115v-704h-131l-259 456l-49 105l-3 -1l16 -130v-430h-115v704h133zM476 909l54 -43c-46 -90 -113 -93 -184 -41c-33 21 -53 7 -86 -31l-58 46c33 54 75 83 118 80c35 -2 66 -36 97 -44c20 -5 39 4 59 33z" />
    <glyph glyph-name="Udieresis" unicode="&#xdc;" horiz-adv-x="655" 
d="M77 700h115v-490c0 -84 63 -119 127 -119s129 35 129 119v490h115v-490c0 -158 -123 -223 -244 -223c-122 0 -242 65 -242 223v490zM277 776h-104v96h104v-96zM467 776h-105v96h105v-96z" />
    <glyph glyph-name="Ucircumflex" unicode="&#xdb;" horiz-adv-x="655" 
d="M77 700h115v-490c0 -84 63 -119 127 -119s129 35 129 119v490h115v-490c0 -158 -123 -223 -244 -223c-122 0 -242 65 -242 223v490zM158 764l102 130h115l101 -130h-97l-63 75l-63 -75h-95z" />
    <glyph glyph-name="Uacute" unicode="&#xda;" horiz-adv-x="655" 
d="M77 700h115v-490c0 -84 63 -119 127 -119s129 35 129 119v490h115v-490c0 -158 -123 -223 -244 -223c-122 0 -242 65 -242 223v490zM461 901l-99 -133h-94l75 133h118z" />
    <glyph glyph-name="Ugrave" unicode="&#xd9;" horiz-adv-x="655" 
d="M77 700h115v-490c0 -84 63 -119 127 -119s129 35 129 119v490h115v-490c0 -158 -123 -223 -244 -223c-122 0 -242 65 -242 223v490zM295 763l-99 133h118l75 -133h-94z" />
    <glyph glyph-name="Yacute" unicode="&#xdd;" horiz-adv-x="589" 
d="M584 705l-241 -424v-281h-113v282l-240 423h131l166 -306l164 306h133zM417 903l-99 -133h-94l75 133h118z" />
    <glyph glyph-name="aring" unicode="&#xe5;" horiz-adv-x="555" 
d="M260 86c39 0 90 20 117 49v86c-26 22 -66 33 -104 34c-68 2 -132 -23 -132 -86c0 -57 35 -83 119 -83zM480 0h-84l-18 61c-37 -56 -86 -68 -144 -68c-135 0 -197 89 -197 176c0 94 76 177 234 171c32 -1 83 -9 105 -30v20c0 82 -64 103 -124 102c-54 -1 -97 -17 -140 -43
l-44 69c139 119 412 90 412 -128v-330zM275 582c-54 0 -100 34 -100 90s46 90 100 90c52 0 100 -34 100 -90s-48 -90 -100 -90zM234 672c0 -20 16 -36 40 -36c25 0 41 17 41 37c0 22 -16 37 -41 37c-24 0 -40 -16 -40 -38z" />
    <glyph glyph-name="adieresis" unicode="&#xe4;" horiz-adv-x="555" 
d="M260 86c39 0 90 20 117 49v86c-26 22 -66 33 -104 34c-68 2 -132 -23 -132 -86c0 -57 35 -83 119 -83zM480 0h-84l-18 61c-37 -56 -86 -68 -144 -68c-135 0 -197 89 -197 176c0 94 76 177 234 171c32 -1 83 -9 105 -30v20c0 82 -64 103 -124 102c-54 -1 -97 -17 -140 -43
l-44 69c139 119 412 90 412 -128v-330zM235 643h-104v95h104v-95zM427 643h-106v95h106v-95z" />
    <glyph glyph-name="atilde" unicode="&#xe3;" horiz-adv-x="555" 
d="M260 86c39 0 90 20 117 49v86c-26 22 -66 33 -104 34c-68 2 -132 -23 -132 -86c0 -57 35 -83 119 -83zM480 0h-84l-18 61c-37 -56 -86 -68 -144 -68c-135 0 -197 89 -197 176c0 94 76 177 234 171c32 -1 83 -9 105 -30v20c0 82 -64 103 -124 102c-54 -1 -97 -17 -140 -43
l-44 69c139 119 412 90 412 -128v-330zM385 734l52 -42c-45 -87 -110 -90 -179 -40c-33 21 -52 7 -84 -30l-57 45c32 52 73 80 115 77c34 -2 65 -35 95 -42c19 -5 38 4 58 32z" />
    <glyph glyph-name="acircumflex" unicode="&#xe2;" horiz-adv-x="555" 
d="M260 86c39 0 90 20 117 49v86c-26 22 -66 33 -104 34c-68 2 -132 -23 -132 -86c0 -57 35 -83 119 -83zM480 0h-84l-18 61c-37 -56 -86 -68 -144 -68c-135 0 -197 89 -197 176c0 94 76 177 234 171c32 -1 83 -9 105 -30v20c0 82 -64 103 -124 102c-54 -1 -97 -17 -140 -43
l-44 69c139 119 412 90 412 -128v-330zM126 619l102 130h115l101 -130h-97l-63 75l-63 -75h-95z" />
    <glyph glyph-name="aacute" unicode="&#xe1;" horiz-adv-x="555" 
d="M260 86c39 0 90 20 117 49v86c-26 22 -66 33 -104 34c-68 2 -132 -23 -132 -86c0 -57 35 -83 119 -83zM480 0h-84l-18 61c-37 -56 -86 -68 -144 -68c-135 0 -197 89 -197 176c0 94 76 177 234 171c32 -1 83 -9 105 -30v20c0 82 -64 103 -124 102c-54 -1 -97 -17 -140 -43
l-44 69c139 119 412 90 412 -128v-330zM401 748l-99 -133h-94l75 133h118z" />
    <glyph glyph-name="agrave" unicode="&#xe0;" horiz-adv-x="555" 
d="M260 86c39 0 90 20 117 49v86c-26 22 -66 33 -104 34c-68 2 -132 -23 -132 -86c0 -57 35 -83 119 -83zM480 0h-84l-18 61c-37 -56 -86 -68 -144 -68c-135 0 -197 89 -197 176c0 94 76 177 234 171c32 -1 83 -9 105 -30v20c0 82 -64 103 -124 102c-54 -1 -97 -17 -140 -43
l-44 69c139 119 412 90 412 -128v-330zM253 620l-99 133h118l75 -133h-94z" />
    <glyph glyph-name="edieresis" unicode="&#xeb;" horiz-adv-x="599" 
d="M294 89c45 0 101 8 143 66l77 -49c-59 -79 -136 -114 -220 -114c-173 0 -260 132 -259 263c0 131 90 263 258 264c170 1 274 -149 244 -310h-393c12 -63 65 -120 150 -120zM146 292h290c-3 89 -74 131 -145 131c-76 0 -143 -46 -145 -131zM260 646h-104v96h104v-96z
M450 646h-105v96h105v-96z" />
    <glyph glyph-name="ecircumflex" unicode="&#xea;" horiz-adv-x="599" 
d="M294 89c45 0 101 8 143 66l77 -49c-59 -79 -136 -114 -220 -114c-173 0 -260 132 -259 263c0 131 90 263 258 264c170 1 274 -149 244 -310h-393c12 -63 65 -120 150 -120zM146 292h290c-3 89 -74 131 -145 131c-76 0 -143 -46 -145 -131zM140 619l102 130h115l101 -130
h-97l-63 75l-63 -75h-95z" />
    <glyph glyph-name="eacute" unicode="&#xe9;" horiz-adv-x="599" 
d="M294 89c45 0 101 8 143 66l77 -49c-59 -79 -136 -114 -220 -114c-173 0 -260 132 -259 263c0 131 90 263 258 264c170 1 274 -149 244 -310h-393c12 -63 65 -120 150 -120zM146 292h290c-3 89 -74 131 -145 131c-76 0 -143 -46 -145 -131zM419 747l-99 -133h-94l75 133
h118z" />
    <glyph glyph-name="egrave" unicode="&#xe8;" horiz-adv-x="599" 
d="M294 89c45 0 101 8 143 66l77 -49c-59 -79 -136 -114 -220 -114c-173 0 -260 132 -259 263c0 131 90 263 258 264c170 1 274 -149 244 -310h-393c12 -63 65 -120 150 -120zM146 292h290c-3 89 -74 131 -145 131c-76 0 -143 -46 -145 -131zM271 619l-99 133h118l75 -133
h-94z" />
    <glyph glyph-name="idieresis" unicode="&#xef;" horiz-adv-x="240" 
d="M171 0h-109v512h109v-512zM77 636h-96v103h96v-103zM254 636h-98v103h98v-103z" />
    <glyph glyph-name="icircumflex" unicode="&#xee;" horiz-adv-x="240" 
d="M171 0h-109v512h109v-512zM-19 618l87 127h99l87 -127h-84l-54 73l-54 -73h-81z" />
    <glyph glyph-name="iacute" unicode="&#xed;" horiz-adv-x="240" 
d="M171 0h-109v512h109v-512zM240 750l-99 -133h-94l75 133h118z" />
    <glyph glyph-name="igrave" unicode="&#xec;" horiz-adv-x="240" 
d="M171 0h-109v512h109v-512zM92 618l-99 133h118l75 -133h-94z" />
    <glyph glyph-name="ntilde" unicode="&#xf1;" horiz-adv-x="607" 
d="M70 507h90l14 -62c32 51 94 70 128 70c142 0 230 -80 230 -220v-295h-109v295c0 128 -162 167 -244 69v-364h-109v507zM408 746l54 -43c-46 -90 -113 -93 -184 -41c-33 21 -53 7 -86 -31l-58 46c33 54 75 83 118 80c35 -2 66 -36 97 -44c20 -5 39 4 59 33z" />
    <glyph glyph-name="odieresis" unicode="&#xf6;" 
d="M140 253c0 -112 81 -166 156 -166c77 0 155 54 155 166s-78 164 -155 164c-75 0 -156 -52 -156 -164zM560 253c0 -147 -111 -264 -264 -264c-152 0 -265 117 -265 264c0 148 113 263 265 263c153 0 264 -115 264 -263zM259 651h-104v96h104v-96zM449 651h-105v96h105v-96
z" />
    <glyph glyph-name="otilde" unicode="&#xf5;" 
d="M140 253c0 -112 81 -166 156 -166c77 0 155 54 155 166s-78 164 -155 164c-75 0 -156 -52 -156 -164zM560 253c0 -147 -111 -264 -264 -264c-152 0 -265 117 -265 264c0 148 113 263 265 263c153 0 264 -115 264 -263zM407 733l54 -43c-46 -90 -113 -93 -184 -41
c-33 21 -53 7 -86 -31l-58 46c33 54 75 83 118 80c35 -2 66 -36 97 -44c20 -5 39 4 59 33z" />
    <glyph glyph-name="ocircumflex" unicode="&#xf4;" 
d="M140 253c0 -112 81 -166 156 -166c77 0 155 54 155 166s-78 164 -155 164c-75 0 -156 -52 -156 -164zM560 253c0 -147 -111 -264 -264 -264c-152 0 -265 117 -265 264c0 148 113 263 265 263c153 0 264 -115 264 -263zM141 615l102 130h115l101 -130h-97l-63 75l-63 -75
h-95z" />
    <glyph glyph-name="oacute" unicode="&#xf3;" 
d="M140 253c0 -112 81 -166 156 -166c77 0 155 54 155 166s-78 164 -155 164c-75 0 -156 -52 -156 -164zM560 253c0 -147 -111 -264 -264 -264c-152 0 -265 117 -265 264c0 148 113 263 265 263c153 0 264 -115 264 -263zM432 748l-99 -133h-94l75 133h118z" />
    <glyph glyph-name="ograve" unicode="&#xf2;" 
d="M140 253c0 -112 81 -166 156 -166c77 0 155 54 155 166s-78 164 -155 164c-75 0 -156 -52 -156 -164zM560 253c0 -147 -111 -264 -264 -264c-152 0 -265 117 -265 264c0 148 113 263 265 263c153 0 264 -115 264 -263zM273 617l-99 133h118l75 -133h-94z" />
    <glyph glyph-name="yacute" unicode="&#xfd;" horiz-adv-x="510" 
d="M73 -191l1 87c62 -7 84 19 94 45l31 76l-204 490h117l144 -364l129 364h117l-235 -604c-36 -89 -113 -103 -194 -94zM381 745l-99 -133h-94l75 133h118z" />
    <glyph glyph-name="udieresis" unicode="&#xfc;" horiz-adv-x="602" 
d="M527 0h-90l-14 56c-32 -51 -94 -64 -128 -64c-129 0 -230 89 -230 229v286h109v-286c0 -128 161 -179 244 -84v370h109v-507zM265 645h-104v96h104v-96zM455 645h-105v96h105v-96z" />
    <glyph glyph-name="ucircumflex" unicode="&#xfb;" horiz-adv-x="602" 
d="M527 0h-90l-14 56c-32 -51 -94 -64 -128 -64c-129 0 -230 89 -230 229v286h109v-286c0 -128 161 -179 244 -84v370h109v-507zM142 620l102 130h115l101 -130h-97l-63 75l-63 -75h-95z" />
    <glyph glyph-name="uacute" unicode="&#xfa;" horiz-adv-x="602" 
d="M527 0h-90l-14 56c-32 -51 -94 -64 -128 -64c-129 0 -230 89 -230 229v286h109v-286c0 -128 161 -179 244 -84v370h109v-507zM422 748l-99 -133h-94l75 133h118z" />
    <glyph glyph-name="ugrave" unicode="&#xf9;" horiz-adv-x="602" 
d="M527 0h-90l-14 56c-32 -51 -94 -64 -128 -64c-129 0 -230 89 -230 229v286h109v-286c0 -128 161 -179 244 -84v370h109v-507zM277 614l-99 133h118l75 -133h-94z" />
    <glyph glyph-name="ydieresis" unicode="&#xff;" horiz-adv-x="510" 
d="M73 -191l1 87c62 -7 84 19 94 45l31 76l-204 490h117l144 -364l129 364h117l-235 -604c-36 -89 -113 -103 -194 -94zM213 641h-104v96h104v-96zM403 641h-105v96h105v-96z" />
    </font>
</defs>
</svg>
