<svg xmlns="http://www.w3.org/2000/svg" xmlns:xlink="http://www.w3.org/1999/xlink" width="33" height="40" viewBox="0 0 33 40">
    <defs>
        <path id="prefix__a" d="M0 0H35V43H0z"/>
    </defs>
    <g fill="none" fill-rule="evenodd" transform="translate(-1 -1)">
        <mask id="prefix__b" fill="#fff">
            <use xlink:href="#prefix__a"/>
        </mask>
        <g mask="url(#prefix__b)">
            <g fill="#23286B" fill-rule="nonzero">
                <path d="M24.263 6.99c-2.712-.638-5.57 2.051-6.373 5.995-.074.36.138.714.471.793.045.01.09.015.133.015.284 0 .54-.212.604-.523.657-3.228 2.86-5.461 4.901-4.98.334.08.663-.149.737-.508.073-.359-.139-.714-.473-.792z" transform="translate(1 1)"/>
                <path d="M28.314 3.997c-2.24-1.03-4.857-.872-7.373.445-1.3.68-2.486 1.635-3.515 2.792-1.63-4.57-5.4-7.552-9.32-7.207C3.102.465-.509 6.033.06 12.44c.461 5.195 3.446 9.5 7.329 10.663l.333 3.75c.03.328.307.575.632.575.02 0 .038 0 .057-.002l1.335-.117c-.34 1.143-.785 3.41.29 5.221 1.02 1.72.301 3.902.031 4.722-.046.14-.081.25-.1.322-.086.337.12.68.46.766.052.013.105.02.157.02.284 0 .542-.19.615-.476.014-.054.042-.135.077-.24.319-.969 1.166-3.543-.144-5.753-1.01-1.703-.216-4.135-.008-4.701l1.508-.132c.35-.03.609-.336.578-.683l-.332-3.75c.618-.312 1.2-.717 1.74-1.205.38.83.869 1.586 1.477 2.226l-1.597 3.415c-.07.151-.078.325-.02.482.058.157.177.284.33.355l1.197.55c-.292.805-1.144 3.583.126 5.723 1.019 1.72.301 3.9.031 4.721-.046.141-.081.25-.1.323-.086.337.12.68.46.766.053.013.105.019.157.019.284 0 .543-.19.615-.476.014-.054.042-.135.077-.24.318-.97 1.165-3.542-.145-5.752-.936-1.58-.322-3.785-.062-4.55l1.49.684c.086.04.177.058.266.058.24 0 .47-.134.577-.365l1.596-3.414c4.052.207 8.335-2.837 10.545-7.563 2.725-5.836 1.235-12.289-3.323-14.385zM11.953 21.662c-.252.108-.406.363-.382.634l.316 3.56-2.956.259-.316-3.561c-.024-.271-.22-.497-.488-.558-3.517-.82-6.377-4.885-6.802-9.667C.818 6.615 3.91 1.66 8.218 1.283c3.55-.31 6.98 2.684 8.258 7.149-.518.728-.985 1.508-1.376 2.345-1.487 3.18-1.778 6.571-.968 9.346-.657.678-1.388 1.2-2.18 1.54zm18.53-3.81c-2.034 4.35-6.114 7.211-9.709 6.802-.273-.03-.533.114-.648.361l-1.516 3.242-2.692-1.238 1.516-3.243c.115-.246.058-.539-.142-.725-2.638-2.451-3.075-7.39-1.04-11.744.398-.85.877-1.637 1.414-2.36.021-.026.041-.052.058-.08 1.062-1.41 2.361-2.552 3.81-3.31 2.158-1.13 4.376-1.277 6.245-.416 3.923 1.804 5.136 7.506 2.703 12.71z" transform="translate(1 1)"/>
            </g>
        </g>
    </g>
</svg>
