<svg xmlns="http://www.w3.org/2000/svg" xmlns:xlink="http://www.w3.org/1999/xlink" width="37" height="42" viewBox="0 0 37 42">
    <defs>
        <path id="prefix__a" d="M0 0H37V45H0z"/>
    </defs>
    <g fill="none" fill-rule="evenodd">
        <mask id="prefix__b" fill="#fff">
            <use xlink:href="#prefix__a"/>
        </mask>
        <g fill="#23286B" fill-rule="nonzero" mask="url(#prefix__b)">
            <path d="M29.627 14.697c.318-.47.441-1.094.336-1.716-.107-.641-.437-1.19-.927-1.542-1.019-.737-2.511-.52-3.19.46L7.124 38.95c-.217.314-.144.747.163.97l2.7 1.952c.117.083.254.127.394.127.038 0 .076-.003.114-.01.178-.03.337-.133.44-.283L29.61 14.722c.006-.007.011-.016.017-.025zm-19.408 25.64l-1.59-1.15 13.216-19.1 1.591 1.15-13.217 19.1zM28.504 13.91l-.018.028-4.265 6.163-1.591-1.15 4.274-6.177.05-.07c.223-.323.852-.453 1.296-.13.262.187.346.482.372.641.044.26-.001.527-.118.695zM16.775 6.96c1.065-.188 2.138.061 3.021.702.883.64 1.47 1.596 1.653 2.689.052.315.31.535.607.557.095.054.198.092.311.092.038 0 .075-.003.114-.01.36-.064.603-.416.541-.786-.377-2.259 1.105-4.412 3.306-4.8.01-.002.02-.007.03-.01l.09-.01c.362-.064.604-.417.542-.787-.062-.37-.403-.619-.765-.557-1.065.188-2.138-.06-3.021-.702-.884-.641-1.47-1.597-1.653-2.69-.052-.313-.304-.536-.6-.561-.127-.072-.276-.104-.43-.078-.362.064-.605.416-.543.787.183 1.093-.06 2.195-.684 3.102-.624.907-1.555 1.51-2.62 1.696-.017.003-.032.01-.048.014-.025.004-.05.005-.075.01-.36.063-.603.416-.541.786.06.37.405.62.765.556zm3.601-2.276c.34-.492.589-1.03.754-1.59.352.519.788.98 1.306 1.356.404.292.838.52 1.29.687-.882.702-1.53 1.675-1.855 2.773-.353-.52-.79-.984-1.31-1.36-.401-.292-.834-.517-1.284-.684.416-.332.787-.728 1.1-1.182zM36.99 29.598c-.068-.406-.443-.678-.841-.61-2.124.376-4.16-1.1-4.526-3.288-.056-.338-.325-.58-.643-.613-.137-.073-.295-.105-.46-.077-.396.07-.662.457-.594.863.177 1.06-.058 2.127-.663 3.004-.604.878-1.506 1.461-2.538 1.643-.015.002-.028.008-.043.012-.025.004-.05.005-.076.009-.397.07-.663.456-.596.863.068.407.45.682.84.61 2.134-.376 4.163 1.098 4.528 3.284.056.34.33.577.648.609.102.054.212.093.33.093.041 0 .083-.003.125-.01.396-.07.662-.457.595-.864-.366-2.185 1.07-4.269 3.2-4.645l.027-.008c.03-.005.061-.007.092-.012.396-.07.662-.456.595-.863zm-5.152 3.112c-.61-.844-1.44-1.492-2.391-1.87.376-.315.716-.681 1.004-1.1.31-.449.549-.935.714-1.442.608.842 1.438 1.49 2.387 1.868-.792.664-1.39 1.547-1.714 2.544zM8.33 18.596c.008-.001.016-.005.025-.007.024-.004.047-.005.07-.01.377-.065.63-.432.565-.818-.065-.386-.425-.646-.799-.58-.793.14-1.594-.046-2.252-.523-.658-.477-1.096-1.189-1.232-2.003-.052-.311-.295-.537-.584-.579-.127-.065-.275-.093-.426-.066-.376.067-.629.434-.564.82.137.814-.044 1.635-.509 2.31-.465.676-1.159 1.124-1.954 1.264l-.03.009c-.022.003-.043.004-.065.008-.376.066-.63.433-.565.819.065.386.423.645.799.58 1.641-.29 3.203.844 3.485 2.526.052.311.298.53.587.572.093.048.193.082.302.082.039 0 .079-.003.118-.01.376-.066.63-.433.565-.819-.137-.815.044-1.635.51-2.31.465-.676 1.159-1.125 1.953-1.265zm-3.084.445c-.213.31-.38.643-.51.989-.447-.563-1.018-1.007-1.663-1.296.251-.23.482-.486.681-.775.213-.31.38-.642.51-.986.251.316.543.601.876.843.25.182.519.323.793.446-.254.23-.486.488-.687.78z"/>
        </g>
    </g>
</svg>
