<svg xmlns="http://www.w3.org/2000/svg" xmlns:xlink="http://www.w3.org/1999/xlink" width="1024" height="540" viewBox="0 0 1024 540">
    <defs>
        <linearGradient id="prefix__c" x1="68.158%" x2="14.392%" y1="44.82%" y2="55.498%">
            <stop offset="0%" stop-color="#FDF6FF"/>
            <stop offset="100%" stop-color="#F7F6FC"/>
        </linearGradient>
        <filter id="prefix__d" width="260%" height="260%" x="-80%" y="-80%" filterUnits="objectBoundingBox">
            <feGaussianBlur in="SourceGraphic" stdDeviation="8"/>
        </filter>
        <path id="prefix__a" d="M0.01 0H1024.01V558H0.01z"/>
    </defs>
    <g fill="none" fill-rule="evenodd" transform="translate(-.01 -4)">
        <mask id="prefix__b" fill="#fff">
            <use xlink:href="#prefix__a"/>
        </mask>
        <g mask="url(#prefix__b)">
            <g transform="translate(-98 15)">
                <path fill="url(#prefix__c)" d="M1013.725 83.967c-236.208 137.86-331.555-46.891-491.654 66.308-160.099 113.198-203.52 140.977-269.396 171.936-43.917 20.639-117.009 45.603-219.274 74.894-51.553 87.735-43.428 135.002 24.375 141.804 101.705 10.201 113.96-53.743 311.331-82.458 197.372-28.715 218.366-86.17 493.02-78.527 274.655 7.643 305.846-194.88 335.753-286.713 29.908-91.834 52.053-145.104-184.155-7.244z" transform="rotate(180 608 270)"/>
                <circle cx="1010.01" cy="240" r="15" fill="#FFC8ED" filter="url(#prefix__d)"/>
            </g>
        </g>
    </g>
</svg>
