<svg xmlns="http://www.w3.org/2000/svg" xmlns:xlink="http://www.w3.org/1999/xlink" width="1920" height="712" viewBox="0 0 1920 712">
    <defs>
        <linearGradient id="prefix__c" x1="4.762%" x2="89.777%" y1="45.863%" y2="53.107%">
            <stop offset="0%" stop-color="#FFFBF2"/>
            <stop offset="100%" stop-color="#FFF8E8"/>
        </linearGradient>
        <filter id="prefix__d" width="173.8%" height="173.8%" x="-36.9%" y="-36.9%" filterUnits="objectBoundingBox">
            <feGaussianBlur in="SourceGraphic" stdDeviation="8"/>
        </filter>
        <path id="prefix__a" d="M0.067 0.25H1920.067V794.25H0.067z"/>
    </defs>
    <g fill="none" fill-rule="evenodd" transform="translate(-.067 -53.25)">
        <mask id="prefix__b" fill="#fff">
            <use xlink:href="#prefix__a"/>
        </mask>
        <g mask="url(#prefix__b)">
            <g transform="scale(-1 1) rotate(30 175.06 -3313.888)">
                <path fill="url(#prefix__c)" d="M1700.977 225.472c219.014-87.543-441.394-67.074-725.745 99.065-284.35 166.14-361.47 206.91-478.471 252.348-78.001 30.29-207.818 66.931-389.45 109.92-91.564 128.767-77.133 198.141 43.292 208.123 180.637 14.973 202.402-78.877 552.952-121.021 350.55-42.145 548.125-149 875.647-115.252 327.522 33.747 520.998-123.821 534.574-307.471 13.576-183.65-631.812-38.17-412.799-125.712z" transform="rotate(170 1080.988 535.53)"/>
                <circle cx="1801.149" cy="314.834" r="33" fill="#FFDBC8"/>
                <circle cx="405.936" cy="503.173" r="32.5" fill="#FFECD6" filter="url(#prefix__d)"/>
            </g>
        </g>
    </g>
</svg>
