<svg xmlns="http://www.w3.org/2000/svg" xmlns:xlink="http://www.w3.org/1999/xlink" width="18" height="13" viewBox="0 0 18 13">
    <defs>
        <path id="prefix__a" d="M0 0H20V14H0z"/>
    </defs>
    <g fill="none" fill-rule="evenodd" transform="translate(-1 -1)">
        <mask id="prefix__b" fill="#fff">
            <use xlink:href="#prefix__a"/>
        </mask>
        <g fill="#23286B" mask="url(#prefix__b)">
            <path d="M10 1C5.909 1 2.391 3.686 1 7.5c1.391 3.813 4.909 6.5 9 6.5s7.609-2.687 9-6.5C17.609 3.686 14.091 1 10 1zm0 11c-2.8 0-5-2.2-5-5s2.2-5 5-5 5 2.2 5 5-2.2 5-5 5zm0-8C8.3 4 7 5.3 7 7s1.3 3 3 3 3-1.3 3-3-1.3-3-3-3z"/>
        </g>
    </g>
</svg>
