<svg xmlns="http://www.w3.org/2000/svg" xmlns:xlink="http://www.w3.org/1999/xlink" width="54" height="62" viewBox="0 0 54 62">
    <defs>
        <path id="prefix__a" d="M0 0H62V54H0z"/>
    </defs>
    <g fill="none" fill-rule="evenodd" transform="matrix(0 1 1 0 0 0)">
        <mask id="prefix__b" fill="#fff">
            <use xlink:href="#prefix__a"/>
        </mask>
        <g fill="#23286B" mask="url(#prefix__b)">
            <g>
                <path d="M26.518 48.917l1.723-.724c.263.459 2.485 4.329 2.506 4.56-.403.087-.906.28-1.331.29-.07-.275-.262-.558-.392-.796l-1.016-1.956c-.025-.047-.07-.134-.107-.191-.094-.145-.04-.074-.13-.17.012.463.627 2.455.627 3.402-.306.066-.856.21-1.175.217l-2.192-2.678c.156.622 1.012 2.252 1.174 2.895-.448.01-.825.145-1.33.145-.039-.417-1.234-3.135-1.41-3.836.538-.24 1.21-.401 1.722-.652.155.271 1.612 2.116 1.801 2.244 0-.918-.348-1.877-.47-2.75zm3.883-48.1h.701c2.691.117 5.199 1.6 5.199 5.062 0 1.118-.347 2.838-.77 3.543-1.277 2.128-3.773 2.001-5.362.385-2.205-2.243-.553-6.31 2.205-6.31.961 0 1.377.338 2 .67-.129-.559-.73-1.211-1.169-1.505-1.517-1.02-3.688-.746-5.118.323-.244.182-.402.35-.621.567-2.404 2.392-1.28 5.807.256 8.193.814 1.265 1.594 2.543 2.493 3.747.247.33.447.593.709.926.248.316.468.539.727.832.484.547.974 1.108 1.55 1.57.958.772 2.6 2.287 3.692 2.542.208-.31.333-.62.532-.954.39-.654 1-1.13 1.552-1.642l.232-.213c.848-.821 2.32-2.527 3.24-3.146-.067.822-.427 2.092-.62 2.949-.229 1.002-.4 1.963-.638 2.933-.145.593-.169.854-.448 1.336l-5.554 10.498c-.401.774-.779 1.537-1.185 2.309.283-.076.31-.198.46-.43l7.827-11.863c.514-.646.989-1.27 1.502-1.915.262-.329.479-.638.74-.968.262-.33.5-.631.732-.978-.056-.21-.123-.253-.237-.432-.097-.152-.15-.259-.234-.435-.988-2.05.998-3.792 2.587-4.748.676-.407 1.666-1.061 2.403-1.233-.138.595-.413 1.257-.602 1.851-.411 1.29-.542 3.546-.828 4.081-.55 1.03-1.443.812-1.736 1.382l-2.412 5.468c-.113.264-.294.606-.349.84.266-.179.341-.224.575-.465.222-.229.333-.287.554-.485.109-.097.152-.162.261-.259l2.981-2.662 1.46 1.362c.245.206.477.47.707.704.167.17.648.472.648.689 0 .215-2.93 3.776-3.27 4.232-.188.254-.284.321-.434.606.151.287.207.302.403.563.978 1.299 1.849 2.662 2.536 4.151.424.92.715 1.812 1.003 2.863.464 1.695.503 3.121.503 4.93 0 3.724-2.014 7.823-4.61 10.403-.851.845-1.676 1.595-2.68 2.296-1.009.704-2.034 1.384-3.176 1.87-.326.138-.522.27-.857.404-2.214.886-4.396 1.5-6.794 1.883-.769.123-1.483.111-2.287.233-.397.06-.785.014-1.185.074-1.292.197-2.73-.106-3.97-.116-.891-.007-1.759-.28-2.592-.299-.137.26-.715 1.911-.741 2.233-.548 0-1.449-.27-1.97-.402-3.5-.878-7.013-2.197-10.033-4.212-.465-.311-.894-.597-1.364-.937-.143-.104-.222-.144-.35-.244l-1.334-1.042c-.129-.105-.177-.176-.307-.287l-1.255-1.12c-.11-.111-.18-.194-.3-.294-.534-.448-.992-1.001-1.477-1.494L.867 47.14c-.238-.282-.5-.742-.867-.84.065-.783 1.02-2.225 1.47-2.84.645-.883 1.263-1.518 2.029-2.28.219-.217.368-.293.594-.52.532-.531 1.157-.981 1.789-1.403.458-.305.84-.56 1.29-.863.873-.59 1.798-1.056 2.713-1.59.349-.204.443-.125.565-.55.084-.293.155-.49.245-.796.762-2.59 1.611-6.173 1.9-8.885.199-1.879.618-3.83-.654-5.448-.896-1.14-2.908-1.184-4.114-.533-1.312.708-.764 1.218-.715 1.812h.148c.218-.94 1.764-.94 2.516-.517 1.356.762 1.658 2.68.993 4.043-.196.403-.374.596-.673.887-1.117 1.086-3.395 1.025-4.45-.11-.3-.322-.756-1.598-.756-2.218 0-1.58.288-2.397 1.34-3.491l.037-.038.861-.772c2.255-1.987 6.834-2.48 8.332.528.604 1.212.447 2.295.307 3.612-.193 1.827-.782 3.695-1.385 5.381-.862 2.41-2.017 4.733-3.027 7.083-.518 1.209-.947 2.329-1.323 3.658-.23.808-.53 1.957-.55 2.798.838-.196 2.583-1.74 3.036-2.533.53-.93.586-2.156.076-3.125 1.607 0 3.098.15 4.667.15.066.791.608 1.8.862 2.558.154.457.311.845.46 1.249.148.396.227.848.456 1.18 0-1.022-.154-2.174-.275-3.148l-.444-4.615c-.065-.507-.116-1.046-.157-1.482-.033-.364.092-.638-.184-.607-.36.04-1.318.593-1.755.696 0-2.016.148-3.841.148-5.807.485 0 .72-.074 1.26-.074-.074-.155-.137-1.02-.148-1.266-.019-.442-.1-.825-.137-1.202-.253-2.524-.386-4.895-.7-7.412l-.728-7.456c-.06-.661-.2-.388-.499-.838-.349-.527-.42-1.41.05-1.94 1.086-1.227 2.677.729 1.65 2.107-.245.33-.101.624-.08 1.108l1.629 16.824h1.333c.537 0 .742-.074 1.26-.074 0-1.053-.45-4.27-.52-5.58-.026-.466-.126-.916-.147-1.417-.019-.429-.108-.941-.142-1.347-.04-.485.004-.94-.242-1.245-.22-.273-.43-.592-.43-1.056 0-1.948 2.296-1.758 2.296-.149 0 1.147-.332.96-.46 1.378l.904 9.341 1.776-.076c1.106-.03 1.09.391.752-1.943-.05-.352-.112-.297-.303-.588-.6-.91-.147-2.487.993-2.27.663.126 1.08.785 1.08 1.453 0 .723-.556.914-.522 1.479.038.624.15 1.117.15 1.797 2.032 0 3.936-.224 6.001-.224l-2.889 1.191-1.428.575c-.47.19-.97.427-1.461.542l.296 2.754c.338-.028.758-.326 1.061-.497l2.916-1.611c1.877-1.055 1.287-.275 2.398-2.206.185-.322.336-.632.515-.971-.36-.54-.828-1.01-1.227-1.521l-2.848-3.912c-.895-1.36-1.794-2.77-2.518-4.245-.162-.33-.318-.56-.494-.917-.162-.328-.282-.567-.445-.894-.31-.624-.56-1.208-.84-1.835-.668-1.493-1.08-2.424-1.4-4.027-.468-2.335-.18-4.678 1.24-6.482C26.353 1.729 28.372.903 30.401.817zm3.365 46.305c0 .73.298.673.075 1.597.466-.208 1.41.33 1.78.531.562.306 1.038.562 1.599.849-.127.168-.538.367-.776.484-.317.155-.57.303-.876.46-.364-.236-.71-.434-1.096-.683-.148-.095-1.938-1.265-1.16-.189l.98 1.453c-.493.252-1.068.417-1.577.653-.074-.27-.515-.913-.671-1.166l-2.106-3.48c.228-.117 1.007-.538 1.2-.582.201.13.77.977.944 1.267.158.261.101.324.408.403.444-.763-.938-1.71.266-2.574.25-.179.432-.374.785-.402.064.232.15.25.301.435.13.158.196.246.3.436-.12.173-.376.323-.376.508zm1.026-2.871c.316-.083 2.29-1.54 2.74-1.776.17.112.192.167.344.301l2.468 2.043.348-.297c.296.2 1.226.849 1.383 1.079l-.776.798c-.16-.138-.292-.268-.45-.372-.31.161-.316.202-.558.445l-1.162.985c-.164.132-.479.342-.587.487l.301.343c-.17.243-.694.554-.95.723L36.81 47.73c.144-.094.2-.129.36-.213-.208-.882-2.075-2.698-2.379-3.267zM3.237 42.912l.524-.437c.087.263.088.17.254.36.127.143.182.201.318.343.26.272.452.445.522.72-.214.103-.348.154-.617.21-.322-.439-.685-.764-1.001-1.196zm1.618-.914c.156-.105.306-.227.472-.34.165.112 1.08 1.181 1.146 1.428-.684.364-.524.258-1.069-.418-.194-.242-.37-.4-.55-.67zm8.973 7.496c-.315-.207-2.948-3.978-3.311-4.217.011.502.437 1.493.612 1.914.99 2.38 2.58 4.146 4.374 5.91l1.379 1.233c.252.194.454.378.699.57l2.192 1.692c-.28.132-.886.37-1.204.444.05.186.065.223.438.463.246.158.284.084.605-.027 1.588-.549 1.058-.475 3.312.313.621.217.537.164.537.508 0 .51-.35.906-.452 1.332-.407 0-.626-.126-.919-.207l-2.608-.764c-1.123-.371-2.272-.719-3.323-1.173-2.255-.973-3.768-1.782-5.782-3.267l-5.475-4.605c-1.005-.915-2.595-2.626-3.396-3.32-.3-.26-.474-.171-.697-.498 3.035 0 6.493-.966 9.247-2.081 3.049-1.235 4.039-1.626 6.75-3.203.243-.141.69-.43.935-.486l2.01 3.203c.272.598 2.736 9.025 3.381 10.953.106.315.254.724.254 1.083-.43-.035-.947-.17-1.385-.266-2.415-.536-3.553-1.495-5.357-2.872-.268-.205-1.485-1.3-1.687-1.596.801-1.177 4.261-2.945 2.363-8.315-.127-.359-.242-.481-.331-.859-.816.214-2.166 2.71-2.398 3.265-.617 1.472-.763 2.815-.763 4.873zm-8.164-8.338c.204-.133.196-.182.453-.314l1.165 1.382c-.15.077-.36.21-.518.251-.169-.245-.332-.437-.537-.672-.212-.245-.374-.373-.563-.647zM7.282 39.6c.07-.089.385-.325.493-.392.161.224.365.442.553.662.205.239.419.441.572.71-.186.092-.305.17-.492.262-.237-.148-1.02-1.056-1.126-1.242zm35.378 1.148c.39-.093.166-.252 1.236-.57.213-.063.509-.127.723-.191.274-.082.386-.155.692-.219-.05.532-.343 1.061-.468 1.54l-1.849.37c-.302.089-.334.067-.412.33l1.871.49c0 .412-.385 1.31-.546 1.61-.33-.024-.934-.308-1.247-.42l-3.822-1.4c.075-.1.96-1.05 1.014-1.05.347 0 1.501.472 1.687.381.437-.213-.751-.706-.751-1.22 0-.387.576-.918.78-1.191l.778.083c-.079.256-.342.43-.13.73.221.314.43.19.444.727zM8.09 38.821c.21-.09.201-.242.378-.43.116.277.3.548.431.86-.084.255-.13.518-.215.774l-.53-.962c-.05-.144-.049-.197-.064-.242zm11.328-6.886l1.799-.735c.279-.116.465-.324.539.066l.594 6.631c.07.55.09 1.142.147 1.621l.158 1.684c-.38.216-.757.455-1.15.691-.151.092-1.046.67-1.136.571-.043-.047-.318-3.142-.332-3.485-.065-1.637-.619-5.456-.619-7.044zm4.046-1.531c.279-.027 1.364-.588 1.763-.756.196-.083.417-.194.597-.242l.876 9.977c-.205.157-.327.212-.56.36l-1.8 1.099-.466-5.15c-.087-.84-.169-1.735-.21-2.6-.037-.786-.2-1.578-.2-2.688zm17.8.636c.042-.165 1.662-3.102 1.908-3.268.047.526.508 1.56.52 2.072-.373.23-.748.376-1.164.604-.24.132-1.055.54-1.264.592zm3.604-3.268c.453.304 1.097 1.16 1.486 1.597 2.597 2.917 5.43 7.583 5.43 11.638 0 3.472-.796 5.406-2.825 8.003l-1.084 1.172c-.232.184-.366.357-.59.537-1.006.806-1.452 1.173-2.628 1.883-.932.562-1.931 1.06-2.956 1.48-2.915 1.195-4.03 1.294-6.973 1.897-.583.12-1.361.172-2.031.224-2.679.209-4.798.235-7.46-.067-.363-.042-.624-.09-.964-.09v-.074c.25 0 .797-.064 1.097-.106 4.716-.657 8.727-1.413 12.934-3.679 2.611-1.406 5.045-3.593 6.568-6.137 2.44-4.074 2.508-8.86 1.44-13.557-.288-1.27-.671-2.367-1.06-3.526-.07-.21-.105-.344-.19-.561-.106-.27-.153-.315-.194-.634zm2.355.817c-.244-.067-.797-.773-.988-1.027-.237-.316-.85-.88-.925-1.166l2.354-1.891c.299.206.547.489.84.724.197.158.255.229.442.378.217.173.263.185.41.41l-1.073 1.243c-.208.276-.359.397-.545.648-.17.228-.435.373-.515.681zm-18.095 9.802l2.179-4.313c.415-.725.696-1.411 1.093-2.153.39-.73.733-1.419 1.097-2.149.827-1.662 1.992-3.772 2.747-5.367l1.099-2.147c.176-.343.335-.824.596-1.024l1.707.85c-.742 1.465-1.511 2.888-2.303 4.37l-1.727 3.287c-.12.213-.17.3-.28.532-.118.252-.19.34-.31.573l-2.907 5.5c-.09.108-2.729 1.977-2.991 2.041zm14.487-13.07c-.518-.121-1.024-.578-1.541-.7.032-.392 2.09-2.808 2.406-3.171.238-.274.585-.848.83-1.03-.02.249-.299.948-.394 1.236l-1.301 3.666zm-3.013-4.9l-1.765-.836c.102-.393.746-.807 1.159-1.235l1.268-1.197c0 .625-.625 2.809-.662 3.268zm7.945-6.535l-.59 2.804c-.094.386-.296.96-.528 1.156-.32.272-.817.048-1.062-.2-.89-.9.86-2.41 1.367-2.957l.813-.803z" transform="matrix(0 1 1 0 0 0)"/>
                <path d="M50.624 48.93c-1.158 0-.344-2.492 1.098-2.492.947 0 .104 2.492-1.098 2.492m-1.267-.445c0 2.86 3.78.692 4.037-2.247.08-.931-.412-1.312-1.165-1.312-1.295 0-2.872 2.116-2.872 3.559M43.37 56.484l-.567-.09c0-.724.037-.693.426-1.058.84-.786 1.597-.397 1.597-.114 0 .64-.841 1.262-1.457 1.262m-1.294-.18c0 1.943 4.045.31 4.045-1.623 0-1.032-1.892-1.14-3.386.374l-.207.22c-.193.239-.452.695-.452 1.029M52.72 39.635c0 1.434-1.253 1.763-1.257.54-.004-1.444 1.257-1.822 1.257-.54m-1.745.269c0 3.005 2.427 1.76 2.427-.807 0-.721-.342-1.523-.758-1.523-.561 0-.882.107-1.278.82-.205.373-.391.915-.391 1.51M36.41 43.98c.328.493 1.318 1.612 1.96 2.58l1.028-.768c.215-.17.22-.089.25-.436-.402-.108-.83-.715-1.128-1.012-.233-.233-.368-.288-.6-.513-.215-.21-.335-.379-.572-.539-.215.115-.813.517-.937.688" transform="matrix(0 1 1 0 0 0)"/>
            </g>
        </g>
    </g>
</svg>
