<svg xmlns="http://www.w3.org/2000/svg" xmlns:xlink="http://www.w3.org/1999/xlink" width="375" height="579" viewBox="0 0 375 579">
    <defs>
        <path id="prefix__a" d="M0 0H375V579H0z"/>
        <path id="prefix__c" d="M0 0H70V25H0z"/>
        <path id="prefix__e" d="M0 0H43V14H0z"/>
        <path id="prefix__g" d="M0 0H28V8H0z"/>
        <path id="prefix__i" d="M0 0H50V21H0z"/>
        <path id="prefix__k" d="M0 0H53V19H0z"/>
        <path id="prefix__m" d="M0 0H90V29H0z"/>
    </defs>
    <g fill="none" fill-rule="evenodd">
        <mask id="prefix__b" fill="#fff">
            <use xlink:href="#prefix__a"/>
        </mask>
        <g mask="url(#prefix__b)">
            <g transform="translate(-9)">
                <path fill="#FEF1E1" fill-rule="nonzero" d="M318.23 287.054H384.23V385.054H318.23zM181.938 0v106h14.155l215.168-.914c3.569-1.984 3.569-14.257 0-36.821-3.568-22.565-3.568-45.32 0-68.265H181.938z"/>
                <path fill="#DFEFBD" fill-rule="nonzero" d="M133.133 418.054h72.405c30.648 0 55.549 26.704 55.549 59.677v39.323H76.74v-38.427c0-33.462 25.285-60.573 56.392-60.573z"/>
                <path fill="#9FBFFF" fill-rule="nonzero" d="M49.845 42C26.742 42 8 23.189 8 0h88c0 23.189-18.742 42-41.845 42H52zM422.926 287.183h-141v-181h107.02c18.775 0 33.98 38.56 33.98 86.172v94.828z"/>
                <g fill="#E2F5FD" fill-rule="nonzero">
                    <path d="M104.775 -97.505L108.816 -97.505 108.816 115.788 104.775 115.788z" transform="translate(149.992 172.405) rotate(-90 106.796 9.142)"/>
                    <path d="M104.775 -104.617L108.816 -104.617 108.816 108.676 104.775 108.676z" transform="translate(149.992 172.405) rotate(-90 106.796 2.03)"/>
                </g>
                <path fill="#9FBFFF" fill-rule="nonzero" d="M158.247 106h23.69V0h-23.69C128.845 0 105 19.648 105 43.875v18.186C105 86.351 128.845 106 158.247 106z"/>
                <path fill="#F7F6FC" fill-rule="nonzero" d="M384.503 418.054H135.408v-134h186.246c34.72 0 62.85 30.282 62.85 67.66v66.34z"/>
                <path fill="#FEF1E1" fill-rule="nonzero" d="M233.675 418.237h-98.267V337.41h17.902c44.408 0 80.365 36.206 80.365 80.827z"/>
                <path fill="#9FBFFF" fill-rule="nonzero" d="M281.107 578.974H9.316v-61h308c0 33.69-16.21 61-36.21 61z"/>
                <path fill="#E2F5FD" fill-rule="nonzero" d="M285.926 286.342L9.5 286v-64.5c-4-77.333 32.434-116.053 109.302-116.158h167.124v181z"/>
                <g fill="#9FBFFF" fill-rule="nonzero">
                    <path d="M97.157 -75.78L101.199 -75.78 101.199 122.277 97.157 122.277z" transform="translate(158.26 325.972) rotate(-90 99.178 23.248)"/>
                    <path d="M97.157 -83.024L101.199 -83.024 101.199 115.033 97.157 115.033z" transform="translate(158.26 325.972) rotate(-90 99.178 16.004)"/>
                    <path d="M97.157 -89.887L101.199 -89.887 101.199 108.17 97.157 108.17z" transform="translate(158.26 325.972) rotate(-90 99.178 9.142)"/>
                    <path d="M97.157 -96.999L101.199 -96.999 101.199 101.058 97.157 101.058z" transform="translate(158.26 325.972) rotate(-90 99.178 2.03)"/>
                </g>
                <g fill-rule="nonzero">
                    <path fill="#FEF1E1" d="M88.01 23.835L103.599 20.588 118.983 23.835 118.983 92.266 88.01 92.266z" transform="translate(228.343 325.972)"/>
                    <path fill="#F8CF60" d="M4.37 23.835H88.01100000000001V92.26500000000001H4.37z" transform="translate(228.343 325.972)"/>
                    <path fill="#FEF1E1" d="M118.983 23.835L86.631 23.835 102.807 0.077 102.807 0.077z" transform="translate(228.343 325.972)"/>
                    <g>
                        <path fill="#41447D" d="M0.077 0.538H5.9799999999999995V12.302H0.077z" transform="translate(228.343 325.972) translate(15.333 38.444)"/>
                        <path fill="#FEF1E1" d="M27.216 0.538H33.119V12.302H27.216z" transform="translate(228.343 325.972) translate(15.333 38.444)"/>
                        <path fill="#BCE8FA" d="M54.278 0.538H60.181V12.302H54.278z" transform="translate(228.343 325.972) translate(15.333 38.444)"/>
                    </g>
                    <g>
                        <path fill="#41447D" d="M0.077 0.384H5.9799999999999995V12.148H0.077z" transform="translate(228.343 325.972) translate(15.333 63.048)"/>
                        <path fill="#FEF1E1" d="M27.216 0.384H33.119V12.148H27.216z" transform="translate(228.343 325.972) translate(15.333 63.048)"/>
                        <path fill="#F7F6FC" d="M54.278 0.384H60.181V12.148H54.278z" transform="translate(228.343 325.972) translate(15.333 63.048)"/>
                    </g>
                    <path fill="#FEF1E1" d="M4.37 19.145L91.767 19.145 86.631 23.835 4.37 23.835z" transform="translate(228.343 325.972)"/>
                    <path fill="#F36B7F" d="M21.849 0.077L102.807 0.077 89.85 19.145 0.69 19.145z" transform="translate(228.343 325.972)"/>
                </g>
                <g fill-rule="nonzero">
                    <path fill="#9FBFFF" d="M14.202.532l10.263 15h68.737v4H27.263l-.187-.184.126.184h-1.19v54.012H1.16V19.44l.106-.001L14.202.532z" transform="translate(308.798 213.468)"/>
                    <path fill="#F1F1F1" d="M25.928 19.34L93.101 19.34 93.101 73.893 25.928 73.893z" transform="translate(308.798 213.468) rotate(-180 59.514 46.617)"/>
                    <g>
                        <path fill="#F8CF60" d="M21.817 0.424L26.572 0.424 26.572 9.357 21.817 9.357z" transform="translate(308.798 213.468) translate(36.202 31.532) rotate(-180 24.194 4.89)"/>
                        <path fill="#A9C8FF" d="M0.052 0.424L4.808 0.424 4.808 9.357 0.052 9.357z" transform="translate(308.798 213.468) translate(36.202 31.532) rotate(-180 2.43 4.89)"/>
                    </g>
                    <g>
                        <path fill="#A9C8FF" d="M21.817 0.62L26.572 0.62 26.572 9.552 21.817 9.552z" transform="translate(308.798 213.468) translate(36.202 50.532) rotate(-180 24.194 5.086)"/>
                        <path fill="#BCE8FA" d="M0.052 0.62L4.808 0.62 4.808 9.552 0.052 9.552z" transform="translate(308.798 213.468) translate(36.202 50.532) rotate(-180 2.43 5.086)"/>
                    </g>
                    <path fill="#BCE8FA" d="M79.163 0.532L14.202 0.532 24.658 15.532 96.202 15.532z" transform="translate(308.798 213.468)"/>
                </g>
                <g fill-rule="nonzero">
                    <path fill="#F8CF60" d="M33 97H.5L.403 26.6c7.155-2.713 12.588-4.068 16.3-4.068 3.71 0 9.11 1.355 16.2 4.067L33 97z" transform="translate(209 189)"/>
                    <path fill="#FEF1E1" d="M32.837 26.812L120.722 26.812 120.722 97.812 32.837 97.812z" transform="translate(209 189) rotate(-180 76.78 62.312)"/>
                    <path fill="#F8CF60" d="M0.202 26.532L34.202 26.532 17.096 0.532z" transform="translate(209 189)"/>
                    <g>
                        <path fill="#DFEFBD" d="M57.708 0.085L63.965 0.085 63.965 12.087 57.708 12.087z" transform="translate(209 189) translate(45.202 42.532) rotate(-180 60.836 6.086)"/>
                        <path fill="#BCE8FA" d="M29.194 0.085L35.451 0.085 35.451 12.087 29.194 12.087z" transform="translate(209 189) translate(45.202 42.532) rotate(-180 32.322 6.086)"/>
                        <path fill="#A9C8FF" d="M0.68 0.085L6.936 0.085 6.936 12.087 0.68 12.087z" transform="translate(209 189) translate(45.202 42.532) rotate(-180 3.808 6.086)"/>
                    </g>
                    <g>
                        <path fill="#A9C8FF" d="M57.708 0.715L63.965 0.715 63.965 12.717 57.708 12.717z" transform="translate(209 189) translate(45.202 67.532) rotate(-180 60.836 6.716)"/>
                        <path fill="#A9C8FF" d="M29.194 0.715L35.451 0.715 35.451 12.717 29.194 12.717z" transform="translate(209 189) translate(45.202 67.532) rotate(-180 32.322 6.716)"/>
                        <path fill="#BCE8FA" d="M0.68 0.715L6.936 0.715 6.936 12.717 0.68 12.717z" transform="translate(209 189) translate(45.202 67.532) rotate(-180 3.808 6.716)"/>
                    </g>
                    <path fill="#F8CF60" d="M121.202 21.532L26.202 21.532 31.779 26.532 121.202 26.532z" transform="translate(209 189)"/>
                    <path fill="#F36B7F" d="M102.158 0.532L17.202 0.664 30.944 21.532 124.202 21.532z" transform="translate(209 189)"/>
                </g>
                <g fill-rule="nonzero">
                    <path fill="#E2F5FD" d="M61.885 17.28L83.717 17.28 83.717 65.569 61.884 65.569z" transform="translate(179.59 352.66) rotate(-.124 72.8 41.425)"/>
                    <path fill="#BCE8FA" d="M2.921 17.357L61.961 17.357 61.961 65.646 2.921 65.647z" transform="translate(179.59 352.66) rotate(-.124 32.441 41.502)"/>
                    <path fill="#E2F5FD" d="M83.717 17.279L60.885 17.356 72.262 0.54 72.262 0.54z" transform="translate(179.59 352.66)"/>
                    <g>
                        <path fill="#F7F6FC" d="M0.692 0.309L4.843 0.309 4.843 8.563 0.692 8.563z" transform="translate(179.59 352.66) translate(9.994 27.77) rotate(-.124 2.768 4.436)"/>
                        <path fill="#9FBFFF" d="M19.834 0.309L23.985 0.309 23.985 8.563 19.834 8.563z" transform="translate(179.59 352.66) translate(9.994 27.77) rotate(-.124 21.91 4.436)"/>
                        <path fill="#DFEFBD" d="M38.976 0.232L43.127 0.232 43.127 8.486 38.976 8.486z" transform="translate(179.59 352.66) translate(9.994 27.77) rotate(-.124 41.051 4.36)"/>
                    </g>
                    <g>
                        <path fill="#9FBFFF" d="M0.769 0.618L4.92 0.618 4.92 8.872 0.769 8.872z" transform="translate(179.59 352.66) translate(9.994 44.74) rotate(-.124 2.844 4.745)"/>
                        <path fill="#DFEFBD" d="M19.834 0.541L23.985 0.541 23.985 8.795 19.834 8.795z" transform="translate(179.59 352.66) translate(9.994 44.74) rotate(-.124 21.91 4.668)"/>
                        <path fill="#F7F6FC" d="M38.976 0.541L43.127 0.541 43.127 8.795 38.976 8.795z" transform="translate(179.59 352.66) translate(9.994 44.74) rotate(-.124 41.051 4.668)"/>
                    </g>
                    <path fill="#E2F5FD" d="M2.844 14.117L64.498 13.962 60.885 17.356 2.844 17.434z" transform="translate(179.59 352.66)"/>
                    <path fill="#9FBFFF" d="M15.144 0.617L72.262 0.54 63.191 13.962 0.231 14.117z" transform="translate(179.59 352.66)"/>
                </g>
                <g>
                    <path stroke="#81B6A5" d="M10.055 53.974V7.887" transform="translate(18.55 225.943)"/>
                    <path stroke="#FFE279" stroke-width="4" d="M16.53 7.269H3.58C1.6 7.269 0 5.645 0 3.634h0C0 1.624 1.6 0 3.58 0h12.95c1.98 0 3.58 1.624 3.58 3.634h0c0 2.01-1.6 3.635-3.58 3.635z" transform="translate(18.55 225.943)"/>
                    <path fill="#81B6A5" fill-rule="nonzero" d="M6.551 20.105c2.438 1.083 3.504 5.335 3.504 5.335s-2.97 2.398-5.484 1.315c-2.438-1.083-4.038-3.48-3.505-5.336.61-1.778 3.047-2.397 5.485-1.314z" transform="translate(18.55 225.943)"/>
                    <path fill="#81B6A5" fill-rule="nonzero" d="M13.483 20.105C11.046 21.188 9.98 25.44 9.98 25.44s2.97 2.398 5.485 1.315c2.437-1.083 4.037-3.48 3.504-5.336-.533-1.778-2.971-2.397-5.485-1.314z" transform="translate(18.55 225.943)"/>
                </g>
                <g fill-rule="nonzero">
                    <path fill="#81B6A5" d="M38.927 40.393c0 10.541-8.693 19.004-19.464 19.004C8.693 59.397 0 50.857 0 40.393 0 29.853 8.693.308 19.463.308c10.694 0 19.464 29.545 19.464 40.085z" transform="translate(121.685 433.333)"/>
                    <g>
                        <path fill="#C3EDED" d="M.615 0H1.615V31.699H.615zM.615 31.699H1.615V56.704H.615z" transform="translate(121.685 433.333) translate(18.463 27.698)"/>
                        <path fill="#9FBFFF" d="M0.615 31.699H1.615V56.704H0.615z" transform="translate(121.685 433.333) translate(18.463 27.698)"/>
                    </g>
                    <g>
                        <path fill="#81B6A5" d="M24.464 26.698c0 6.77-5.385 12.31-12.001 12.31S.462 33.468.462 26.698c0-6.77 5.385-26.006 12-26.006 6.617 0 12.002 19.235 12.002 26.006z" transform="translate(121.685 433.333) translate(36.926 30.006)"/>
                        <g>
                            <path fill="#C3EDED" d="M0 0.077H1V19.081000000000003H0z" transform="translate(121.685 433.333) translate(36.926 30.006) translate(12.309 20.004)"/>
                            <path fill="#C3EDED" d="M0 19.004H1V34.392H0z" transform="translate(121.685 433.333) translate(36.926 30.006) translate(12.309 20.004)"/>
                            <path fill="#9FBFFF" d="M0 19.004H1V34.392H0z" transform="translate(121.685 433.333) translate(36.926 30.006) translate(12.309 20.004)"/>
                        </g>
                    </g>
                    <g>
                        <path fill="#81B6A5" d="M15.77 16.85c0 4.308-3.384 7.848-7.615 7.848-4.232 0-7.616-3.54-7.616-7.848C.539 12.54 3.923.308 8.155.308c4.23 0 7.616 12.156 7.616 16.542z" transform="translate(121.685 433.333) translate(61.544 48.472)"/>
                        <g>
                            <path fill="#C3EDED" d="M0.404 0.385H1.404V12.388H0.404z" transform="translate(121.685 433.333) translate(61.544 48.472) translate(7.693 12.31)"/>
                            <path fill="#C3EDED" d="M0.404 12.387H1.404V22.158H0.404z" transform="translate(121.685 433.333) translate(61.544 48.472) translate(7.693 12.31)"/>
                            <path fill="#9FBFFF" d="M0.404 12.387H1.404V22.158H0.404z" transform="translate(121.685 433.333) translate(61.544 48.472) translate(7.693 12.31)"/>
                        </g>
                    </g>
                    <g fill="#C3EDED">
                        <path d="M-2.088 17.959L12.76 17.958 12.76 18.086 -2.088 18.087z" transform="translate(121.685 433.333) translate(18.463 33.084) rotate(-53.486 5.336 18.022)"/>
                        <path d="M-2.117 6.741L12.731 6.74 12.731 6.868 -2.117 6.869z" transform="translate(121.685 433.333) translate(18.463 33.084) rotate(-53.486 5.307 6.804)"/>
                    </g>
                    <g fill="#C3EDED">
                        <path d="M5.039 10.609L5.168 10.609 5.167 25.457 5.039 25.457z" transform="translate(121.685 433.333) translate(10 33.084) rotate(-36.514 5.103 18.033)"/>
                        <path d="M5.018 -0.617L5.146 -0.617 5.146 14.231 5.017 14.231z" transform="translate(121.685 433.333) translate(10 33.084) rotate(-36.514 5.082 6.807)"/>
                    </g>
                    <g fill="#C3EDED">
                        <path d="M-0.822 10.164L7.794 10.163 7.794 10.164 -0.822 10.164z" transform="translate(121.685 433.333) translate(48.466 53.858) rotate(-53.486 3.486 10.164)"/>
                        <path d="M-0.809 3.695L7.808 3.694 7.808 3.694 -0.809 3.695z" transform="translate(121.685 433.333) translate(48.466 53.858) rotate(-53.486 3.5 3.694)"/>
                    </g>
                    <g fill="#C3EDED">
                        <path d="M3.04 5.953L3.04 5.953 3.039 14.57 3.039 14.57z" transform="translate(121.685 433.333) translate(43.85 53.858) rotate(-36.514 3.04 10.262)"/>
                        <path d="M3.05 -0.513L3.05 -0.513 3.049 8.104 3.049 8.104z" transform="translate(121.685 433.333) translate(43.85 53.858) rotate(-36.514 3.05 3.795)"/>
                    </g>
                    <g fill="#C3EDED">
                        <path d="M-0.618 6.169L4.459 6.169 4.459 6.169 -0.618 6.169z" transform="translate(121.685 433.333) translate(69.237 63.86) rotate(-53.486 1.92 6.17)"/>
                        <path d="M-0.627 2.327L4.451 2.327 4.451 2.327 -0.627 2.327z" transform="translate(121.685 433.333) translate(69.237 63.86) rotate(-53.486 1.912 2.327)"/>
                    </g>
                    <g fill="#C3EDED">
                        <path d="M2.009 3.613L2.009 3.613 2.009 8.691 2.009 8.691z" transform="translate(121.685 433.333) translate(66.16 63.86) rotate(-36.514 2.009 6.152)"/>
                        <path d="M2.003 -0.232L2.003 -0.232 2.002 4.846 2.002 4.846z" transform="translate(121.685 433.333) translate(66.16 63.86) rotate(-36.514 2.002 2.307)"/>
                    </g>
                </g>
                <g transform="translate(45.972 184.004)">
                    <g stroke="#0895FF">
                        <path d="M7.084 10.37L.381 3.919M7.084.23v10.14M7.084 10.37l6.704-6.452" transform="translate(.762)"/>
                    </g>
                    <path fill="#F36B7F" fill-rule="nonzero" d="M15.007 22.432c0 6.837-7.16 12.368-7.16 12.368S.685 29.27.685 22.432c0-6.837 7.16-12.368 7.16-12.368s7.16 5.53 7.16 12.368z"/>
                    <ellipse cx="7.846" cy="38.872" fill="#F8CF60" fill-rule="nonzero" rx="3.961" ry="3.995"/>
                    <path stroke="#0895FF" d="M7.998 101.035l-.152-58.168"/>
                </g>
                <g transform="translate(79.49 216.793)">
                    <path stroke="#F8CF60" d="M9.37 61.987V10.962"/>
                    <path fill="#F8CF60" fill-rule="nonzero" d="M5.866 23.158c2.437 1.081 3.504 5.327 3.504 5.327s-2.971 2.393-5.485 1.312C1.447 28.717-.152 26.323.381 24.47c.61-1.776 3.047-2.393 5.485-1.313zM12.874 23.158c-2.438 1.081-3.504 5.327-3.504 5.327s2.97 2.393 5.484 1.312c2.514-1.08 4.038-3.474 3.504-5.326-.609-1.776-3.047-2.393-5.484-1.313z"/>
                    <ellipse cx="9.37" cy="5.635" fill="#9FBFFF" fill-rule="nonzero" rx="5.256" ry="5.326"/>
                </g>
                <g fill="#5A85DB" fill-rule="nonzero">
                    <path d="M7.343.686h2.37c.077 0 .154 0 .23.077.077.076.077.152.077.228V9.38c0 .076 0 .153-.077.229-.076.076-.153.076-.23.076h-2.37c-.077 0-.153 0-.23-.076-.076-.076-.076-.153-.076-.229V5.338l-.918 1.83-.23.229c-.076.076-.229.076-.305.076h-.918c-.153 0-.306-.076-.383-.153-.076-.076-.153-.152-.153-.228l-.918-1.83v4.04c0 .077 0 .153-.076.23-.077.076-.153.076-.23.076H.536c-.077 0-.154 0-.23-.076-.077-.077-.077-.153-.077-.23V.916c0-.076 0-.152.077-.229C.382.61.459.61.536.61h2.37c.23 0 .46.153.536.381l1.683 3.127L6.807.99c.153-.228.306-.305.536-.305zM15.144 4.041h2.371c1.148 0 2.066.23 2.678.763.611.534.917 1.22.917 2.059 0 .839-.306 1.601-.994 2.059-.612.533-1.53.762-2.677.762h-5.354c-.077 0-.153 0-.23-.076-.076-.076-.076-.153-.076-.229V.991c0-.076 0-.152.076-.228.077-.077.153-.077.23-.077h7.649c.076 0 .153 0 .23.077.076.076.076.152.076.228v1.83c0 .077 0 .153-.077.23-.076.075-.153.075-.23.075h-4.589v.915zm0 2.212v1.296h1.913c.229 0 .382-.076.458-.229.077-.152.153-.305.153-.457 0-.153-.076-.305-.153-.458-.076-.152-.229-.152-.458-.152h-1.913zM25.47 9.76H23.1c-.076 0-.153 0-.23-.076-.076-.076-.076-.152-.076-.229V7.397c0-.077 0-.153.077-.23.076-.075.153-.075.229-.075h1.836c.459 0 .765 0 .841-.077l-2.83-5.795v-.076c0-.229.153-.305.306-.305h2.83c.153 0 .306.076.382.305l1.454 3.431 1.3-3.431c.076-.229.23-.305.459-.305h2.677c.076 0 .153 0 .23.076.076.076.076.153.076.153v.152l-1.912 4.575c-.383.915-.689 1.525-.842 1.907-.23.38-.535.762-.918 1.22-.382.38-.84.686-1.376.838-.536-.076-1.3 0-2.142 0zM51.552.686h2.371c.077 0 .153 0 .23.077.076.076.076.152.076.228V9.38c0 .076 0 .153-.076.229-.077.076-.153.076-.23.076h-2.37c-.077 0-.154 0-.23-.076-.077-.076-.077-.153-.077-.229V5.338l-.918 1.83-.23.229c-.076.076-.229.076-.305.076h-.918c-.153 0-.306-.076-.382-.153-.077-.076-.153-.152-.153-.228l-.918-1.83v4.04c0 .077 0 .153-.077.23-.076.076-.153.076-.23.076h-2.37c-.077 0-.153 0-.23-.076-.076-.077-.076-.153-.076-.23V.916c0-.076 0-.152.076-.229.077-.076.153-.076.23-.076h2.37c.23 0 .46.153.536.381l1.683 3.127L51.017.99c.153-.228.306-.305.535-.305zM65.702 9.303c0 .076.077.076.077.152 0 .077 0 .153-.077.153-.076.076-.153.076-.23.076h-3.365c-.23 0-.382-.076-.459-.229l-2.294-2.821v2.669c0 .076 0 .152-.077.229-.076.076-.153.076-.23.076h-2.676c-.077 0-.153 0-.23-.076-.076-.077-.076-.153-.076-.23V.916c0-.076 0-.152.076-.229.077-.076.153-.076.23-.076h2.677c.076 0 .153 0 .23.076.076.077.076.153.076.229v2.44L61.419.763c.153-.153.306-.23.459-.23h3.136c.076 0 .153 0 .23.077.076.076.076.153.076.229 0 .076 0 .152-.077.152l-3.06 3.737 3.52 4.575zM68.226.686h6.884c.077 0 .153 0 .23.077.076.076.076.152.076.228V6.94h.688c.077 0 .153 0 .23.076.076.077.076.153.076.229v3.66c0 .076 0 .153-.076.229-.077.076-.153.076-.23.076h-2.141c-.077 0-.153 0-.23-.076-.076-.076-.076-.153-.076-.229v-1.22H69.22v1.22c0 .076 0 .153-.077.229-.076.076-.153.076-.23.076H66.85c-.076 0-.153 0-.229-.076-.076-.076-.076-.153-.076-.229v-3.66c0-.076 0-.152.076-.229.076-.076.153-.076.23-.076h.229c.23 0 .382-.076.612-.305.23-.153.306-.458.306-.763V.915c0-.076 0-.152.076-.229h.153zM72.28 3.28h-1.3v2.669c0 .457-.077.838-.153.991h1.453v-3.66zM87.807 9.303c0 .076.076.076.076.152 0 .077 0 .153-.076.153-.077 0-.153.076-.23.076h-3.365c-.23 0-.382-.076-.459-.229l-2.295-2.821v2.669c0 .076 0 .152-.076.229-.077.076-.153.076-.23.076h-2.677c-.076 0-.153 0-.229-.076-.076-.077-.076-.153-.076-.23V.916c0-.076 0-.152.076-.229.076-.076.153-.076.23-.076h2.676c.077 0 .153 0 .23.076.076.077.076.153.076.229v2.44L83.524.763c.153-.153.306-.23.458-.23h3.136c.077 0 .153 0 .23.077.076.076.076.153.076.229 0 .076 0 .152-.076.152l-3.06 3.737 3.519 4.575zM100.427.686h2.448c.076 0 .153 0 .23.077.076.076.076.152.076.228v3.813l2.83-3.889c.153-.152.306-.229.535-.229h2.142c.076 0 .153 0 .23.077.076.076.076.152.076.228V9.38c0 .076 0 .153-.077.229-.076.076-.153.076-.23.076h-2.447c-.076 0-.153 0-.23-.076-.076-.076-.076-.153-.076-.229V5.871l-2.83 3.584c-.153.153-.306.305-.535.305h-2.065c-.077 0-.153 0-.23-.076-.076-.076-.076-.152-.076-.229V1.068c0-.077 0-.153.076-.23 0-.152.077-.152.153-.152zM117.254.686h2.677c.077 0 .153 0 .23.077.076.076.076.152.076.228V9.38c0 .076 0 .153-.076.229-.077.076-.153.076-.23.076h-2.677c-.076 0-.153 0-.23-.076-.076-.076-.076-.153-.076-.229V6.634h-2.6v2.745c0 .076 0 .153-.077.229-.076.076-.153.076-.23.076h-2.676c-.077 0-.153 0-.23-.076-.076-.076-.076-.153-.076-.229V.991c0-.076 0-.152.076-.228.077-.077.153-.077.23-.077h2.677c.076 0 .153 0 .23.077.076.076.076.152.076.228v2.67h2.6V.99c0-.076 0-.152.077-.228.076-.077.153-.077.23-.077zM128.345.686h2.677c.076 0 .153 0 .23.077.076.076.076.152.076.228V9.38c0 .076 0 .153-.077.229-.076.076-.153.076-.23.076h-2.676c-.077 0-.153 0-.23-.076-.076-.076-.076-.153-.076-.229V6.634h-2.6v2.745c0 .076 0 .153-.077.229-.077.076-.153.076-.23.076h-2.753c-.077 0-.153 0-.23-.076-.076-.076-.076-.153-.076-.229V.991c0-.076 0-.152.076-.228.077-.077.153-.077.23-.077h2.677c.076 0 .153 0 .23.077.076.076.076.152.076.228v2.67h2.6V.99c0-.076 0-.152.077-.228.153-.077.23-.077.306-.077zM142.571 4.423v1.525c0 .838-.23 1.601-.612 2.211-.458.61-.994.991-1.682 1.22-.689.229-1.53.381-2.448.381-.918 0-1.759-.152-2.447-.38-.689-.23-1.3-.687-1.683-1.221s-.612-1.296-.612-2.211V4.423c0-1.297.459-2.212 1.377-2.822.918-.61 2.065-.915 3.518-.915 1.453 0 2.6.305 3.519.915.917.61 1.07 1.602 1.07 2.822zm-6.195-.23v1.983c0 .305.153.61.382.763.23.153.536.305.995.305.459 0 .765-.076.994-.305.23-.153.382-.458.382-.763V4.27c0-.305-.153-.61-.382-.762-.23-.153-.535-.305-.994-.305-.46 0-.765.076-.995.305-.23.076-.382.38-.382.686zM144.101 9.76c-.076 0-.153 0-.23-.076-.076-.076-.076-.152-.076-.229V7.397c0-.077 0-.153.077-.23.076-.075.153-.075.23-.075.382 0 .611-.077.764-.23.153-.152.23-.38.23-.762V1.144c0-.076 0-.153.076-.229.076-.076.153-.076.23-.076h7.419c.076 0 .153 0 .23.076.076.076.076.153.076.229v8.388c0 .076 0 .152-.077.228-.076.077-.153.077-.23.077h-2.447c-.076 0-.153 0-.23-.077-.076-.076-.076-.152-.076-.228V3.584h-1.836v2.592c0 1.22-.382 2.212-1.07 2.822-.689.61-1.76.762-3.06.762zM164.676 4.423v1.525c0 .838-.23 1.601-.612 2.211-.382.61-.994.991-1.683 1.22-.688.229-1.53.381-2.447.381-.918 0-1.76-.152-2.448-.38-.688-.23-1.3-.687-1.682-1.221-.383-.534-.612-1.296-.612-2.211V4.423c0-1.297.459-2.212 1.376-2.822.918-.61 2.066-.915 3.519-.915 1.453 0 2.6.305 3.518.915.612.61 1.071 1.602 1.071 2.822zm-6.195-.23v1.983c0 .305.153.61.382.763.23.153.535.305.994.305.383 0 .765-.076.995-.305.23-.153.382-.458.382-.763V4.27c0-.305-.153-.61-.382-.762-.23-.153-.536-.305-.995-.305-.382 0-.764.076-.994.305-.23.076-.382.38-.382.686zM175.843 6.863c0 1.906-1.224 2.821-3.671 2.821h-5.354c-.077 0-.153 0-.23-.076-.076-.076-.076-.153-.076-.229V.991c0-.076 0-.152.076-.228.077-.077.153-.077.23-.077h5.2c1.225 0 2.142.229 2.754.687.612.457.842 1.143.842 1.982v.076c0 .382-.077.763-.306 1.068-.23.305-.46.457-.689.534.306.076.612.305.842.686.23.305.382.686.382 1.144zm-3.824-2.974c.076-.153.153-.229.153-.458 0-.152-.077-.305-.153-.38-.077-.077-.23-.153-.383-.153h-1.759V4.04h1.76c.152 0 .229-.076.382-.152zm-2.142 2.364v1.296h1.912c.23 0 .383-.076.46-.229.076-.152.152-.305.152-.457 0-.153-.076-.305-.153-.458-.076-.152-.23-.152-.459-.152h-1.912zM186.78 4.423v1.525c0 .838-.229 1.601-.611 2.211-.46.61-.994.991-1.683 1.22-.688.229-1.53.381-2.447.381-.918 0-1.76-.152-2.448-.38-.688-.23-1.3-.687-1.683-1.221-.382-.534-.612-1.296-.612-2.211V4.423c0-1.297.46-2.212 1.377-2.822.918-.61 2.065-.915 3.519-.915 1.453 0 2.6.305 3.518.915.918.61 1.07 1.602 1.07 2.822zm-6.195-.23v1.983c0 .305.153.61.383.763.23.153.535.305.994.305.459 0 .765-.076.994-.305.23-.153.383-.458.383-.763V4.27c0-.305-.153-.61-.383-.762-.23-.153-.535-.305-.994-.305-.459 0-.765.076-.994.305-.23.076-.383.38-.383.686z" transform="translate(40.177 508.061)"/>
                </g>
                <g fill="#9FBFFF" fill-rule="nonzero">
                    <path d="M7.723.229h2.371c.077 0 .153 0 .23.076.076.076.076.153.076.229v8.388c0 .076 0 .152-.077.228-.076.077-.152.077-.229.077h-2.37c-.077 0-.153 0-.23-.077-.076-.076-.076-.152-.076-.228V4.88L6.5 6.71l-.23.229c-.076.076-.229.076-.305.076h-.918c-.153 0-.306-.076-.382-.152-.077-.077-.153-.153-.153-.229l-.918-1.83v4.041c0 .077 0 .153-.076.23-.077.075-.153.075-.23.075H.918c-.077 0-.153 0-.23-.076-.076-.076-.076-.152-.076-.229V.458c0-.077 0-.153.076-.23C.765.154.841.154.918.154h2.37c.23 0 .459.152.535.38L5.506 3.66 7.188.534c.077-.153.306-.305.535-.305zM15.447 3.66h2.37c1.148 0 2.065.229 2.677.763.612.533.918 1.22.918 2.058 0 .84-.306 1.602-.995 2.06-.611.533-1.529.762-2.676.762h-5.353c-.076 0-.153 0-.23-.076-.076-.077-.076-.153-.076-.23V.61c0-.076 0-.152.077-.229.076-.076.153-.076.23-.076h7.646c.077 0 .153 0 .23.076.076.077.076.153.076.229v1.83c0 .076 0 .153-.076.229-.077.076-.153.076-.23.076h-4.588v.915zm0 2.135v1.297h1.912c.23 0 .382-.077.459-.23.076-.152.152-.304.152-.457 0-.152-.076-.305-.152-.457-.077-.153-.23-.153-.46-.153h-1.911zM25.847 9.303h-2.37c-.077 0-.154 0-.23-.076-.077-.077-.077-.153-.077-.23V6.864c0-.077 0-.153.077-.229.076-.076.153-.076.23-.076h1.835c.458 0 .764 0 .84-.077L23.324.686V.61c0-.229.153-.305.306-.305h2.83c.153 0 .305.076.382.305l1.453 3.431 1.3-3.431c.076-.229.23-.305.459-.305h2.676c.077 0 .153 0 .23.076.076.077.076.153.076.153v.152l-1.912 4.575c-.382.915-.688 1.525-.84 1.907-.23.381-.536.762-.919 1.22-.382.381-.84.686-1.376.839-.612 0-1.3.076-2.141.076zM51.923.229h2.37c.077 0 .154 0 .23.076.077.076.077.153.077.229v8.388c0 .076 0 .152-.077.228-.076.077-.153.077-.23.077h-2.37c-.076 0-.153 0-.23-.077-.076-.076-.076-.152-.076-.228V4.88L50.7 6.71l-.23.229c-.076.076-.23.076-.306.076h-.917c-.153 0-.306-.076-.383-.152-.076-.077-.153-.153-.153-.229l-.917-1.83v4.041c0 .077 0 .153-.077.23-.076.075-.153.075-.23.075h-2.37c-.076 0-.153 0-.23-.076-.076-.076-.076-.152-.076-.229V.458c0-.077 0-.153.077-.23.076-.075.153-.075.23-.075h2.293c.23 0 .46.152.536.38l1.682 3.127L51.311.534c.153-.153.383-.305.612-.305zM66.07 8.845c0 .077.077.077.077.153s0 .152-.077.152c-.076.077-.153.077-.23.077h-3.364c-.23 0-.382-.077-.459-.23l-2.294-2.82v2.668c0 .077 0 .153-.076.23-.077.075-.153.075-.23.075h-2.676c-.077 0-.153 0-.23-.076-.076-.076-.076-.152-.076-.229V.458c0-.077 0-.153.076-.23.077-.075.153-.075.23-.075h2.676c.077 0 .153 0 .23.076.076.076.076.152.076.229v2.44L61.788.305c.153-.152.306-.229.459-.229h3.135c.076 0 .153 0 .23.077.076.076.076.152.076.228 0 .077 0 .153-.077.153L62.552 4.27l3.518 4.575zM68.517.229H75.4c.077 0 .153 0 .23.076.076.076.076.153.076.229V6.48h.689c.076 0 .152 0 .229.077.076.076.076.152.076.228v3.66c0 .077 0 .153-.076.23-.077.076-.153.076-.23.076h-2.14c-.077 0-.154 0-.23-.077-.077-.076-.077-.152-.077-.228v-1.22h-4.435v1.22c0 .076 0 .152-.076.228-.077.077-.153.077-.23.077h-2.064c-.077 0-.153 0-.23-.077-.076-.076-.076-.152-.076-.228V6.863c0-.077 0-.153.076-.229.077-.076.153-.076.23-.076h.23c.228 0 .381-.077.61-.305.23-.153.307-.458.307-.763V.534c0-.076 0-.153.076-.229.077-.076.077-.076.153-.076zm4.13 2.669h-1.3v2.668c0 .458-.077.84-.153.992h1.452v-3.66zM88.17 8.845c0 .077.076.077.076.153s0 .152-.076.152c-.077.077-.153.077-.23.077h-3.364c-.23 0-.383-.077-.459-.23l-2.294-2.82v2.668c0 .077 0 .153-.077.23-.076.075-.153.075-.229.075h-2.676c-.077 0-.153 0-.23-.076-.076-.076-.076-.152-.076-.229V.458c0-.077 0-.153.076-.23.077-.075.153-.075.23-.075h2.676c.076 0 .153 0 .23.076.076.076.076.152.076.229v2.44L83.888.305c.153-.152.305-.229.458-.229h3.136c.076 0 .153 0 .23.077.076.076.076.152.076.228 0 .077 0 .153-.077.153L84.652 4.27l3.518 4.575zM106.6.229h2.676c.076 0 .153 0 .229.076.076.076.076.153.076.229v8.388c0 .076 0 .152-.076.228-.076.077-.153.077-.23.077H106.6c-.076 0-.153 0-.23-.077-.076-.076-.076-.152-.076-.228V6.176h-2.6v2.746c0 .076 0 .152-.076.228-.077.077-.153.077-.23.077h-2.676c-.076 0-.153 0-.23-.077-.076-.076-.076-.152-.076-.228V.534c0-.076 0-.153.077-.229.076-.076.153-.076.229-.076h2.676c.077 0 .153 0 .23.076.076.076.076.153.076.229v2.669h2.6V.533c0-.075 0-.152.077-.228.076-.076.076-.076.23-.076zM120.823 4.041v1.525c0 .84-.23 1.602-.612 2.212-.459.61-.994.991-1.683 1.22-.688.229-1.529.381-2.447.381-.917 0-1.758-.152-2.447-.381-.688-.229-1.3-.686-1.682-1.22-.382-.534-.612-1.297-.612-2.212V4.041c0-1.296.46-2.21 1.377-2.821.917-.61 2.064-.915 3.517-.915 1.453 0 2.6.305 3.518.915.612.61 1.07 1.525 1.07 2.821zm-6.194-.228v1.982c0 .305.152.61.382.763.23.152.535.305.994.305.382 0 .765-.077.994-.305.23-.229.382-.458.382-.763V3.813c0-.305-.153-.61-.382-.763-.23-.152-.535-.305-.994-.305-.382 0-.765.076-.994.305-.23.153-.382.381-.382.763zM131.987 6.481c0 1.907-1.223 2.822-3.67 2.822h-5.353c-.077 0-.153 0-.23-.076-.076-.077-.076-.153-.076-.23V.61c0-.076 0-.152.076-.229.077-.076.153-.076.23-.076h5.2c1.223 0 2.14.229 2.753.686.611.458.84 1.144.84 1.983v.076c0 .381-.076.763-.305 1.068-.23.305-.459.457-.688.533.306.077.611.305.84.687.23.381.383.686.383 1.143zm-3.9-3.05c.077-.152.153-.228.153-.457 0-.153-.076-.305-.153-.381-.076-.077-.23-.153-.382-.153h-1.759v1.144h1.759c.153.076.306 0 .382-.153zm-2.14 2.364v1.297h1.91c.23 0 .383-.077.46-.23.076-.152.153-.304.153-.457 0-.152-.077-.305-.153-.457-.077-.153-.23-.153-.46-.153h-1.91zM142.922 4.041v1.525c0 .84-.229 1.602-.611 2.212-.46.61-.994.991-1.683 1.22-.688.229-1.53.381-2.447.381s-1.759-.152-2.447-.381c-.688-.229-1.3-.686-1.682-1.22-.382-.534-.612-1.297-.612-2.212V4.041c0-1.296.459-2.21 1.377-2.821.917-.61 2.064-.915 3.517-.915 1.453 0 2.6.305 3.518.915.612.61 1.07 1.525 1.07 2.821zm-6.194-.228v1.982c0 .305.153.61.383.763.23.152.535.305.994.305.382 0 .764-.077.994-.305.23-.229.382-.458.382-.763V3.813c0-.305-.153-.61-.382-.763-.23-.152-.535-.305-.994-.305-.383 0-.765.076-.994.305-.23.153-.383.381-.383.763zM147.893 3.813v1.982c0 .305.153.61.382.763.23.152.536.305.918.305s.688-.077.841-.153c.153-.076.306-.305.459-.534.153-.228.306-.305.459-.305h2.83c.076 0 .152 0 .229.077.076.076.076.152.076.228 0 .763-.382 1.526-1.147 2.136-.382.305-.918.61-1.53.762-.611.153-1.376.305-2.217.305-.841 0-1.606-.152-2.37-.381-.765-.229-1.3-.686-1.76-1.296-.458-.61-.688-1.297-.688-2.136V4.041c0-.838.23-1.6.689-2.135C145.904.84 147.28.23 149.269.23c.765 0 1.53.076 2.142.305.611.229 1.147.457 1.529.762.765.687 1.147 1.373 1.147 2.135 0 .077 0 .153-.076.23-.077.075-.153.075-.23.075h-2.83c-.152 0-.382-.076-.458-.305-.077-.228-.23-.38-.459-.533-.153-.077-.459-.153-.841-.153-.382 0-.688.076-.918.305-.23.153-.382.381-.382.763zM159.21 6.786h5.2c.077 0 .153 0 .23.077.076.076.076.152.076.229v1.83c0 .076 0 .152-.076.228-.077.077-.153.077-.23.077h-8.182c-.076 0-.153 0-.23-.077-.076-.076-.076-.152-.076-.228V.534c0-.076 0-.153.077-.229.076-.076.153-.076.23-.076h8.105c.076 0 .153 0 .23.076.076.076.076.153.076.229v1.83c0 .076 0 .152-.077.229-.076.076-.153.076-.229.076h-5.047v.839h4.359c.076 0 .153 0 .23.076.076.076.076.152.076.229V5.49c0 .076 0 .153-.077.229-.076.076-.153.076-.23.076h-4.358v.991h-.076zM166.552 9.303c-.077 0-.153 0-.23-.076-.076-.077-.076-.153-.076-.23V6.94c0-.076 0-.153.076-.229.077-.076.153-.076.23-.076.382 0 .611-.076.764-.229.153-.152.23-.381.23-.762V.686c0-.076 0-.152.076-.228.077-.077.153-.077.23-.077h7.417c.077 0 .153 0 .23.077.076.076.076.152.076.228v8.388c0 .076 0 .153-.076.229-.077.076-.153.076-.23.076h-2.447c-.076 0-.153 0-.23-.076-.076-.076-.076-.153-.076-.229V3.05h-1.835v2.593c0 1.22-.382 2.211-1.07 2.821-.765.534-1.76.839-3.06.839zM181.922.61v2.516h1.53c1.223 0 2.217.305 2.982.84.765.533 1.147 1.295 1.147 2.287 0 .991-.382 1.754-1.147 2.287-.765.534-1.759.84-2.983.84h-4.511c-.077 0-.153 0-.23-.077-.076-.076-.076-.153-.076-.229V.686c0-.076 0-.152.076-.228.077-.077.153-.077.23-.077h2.676c.077 0 .153 0 .23.077.076.076.076.076.076.152zm0 4.88v1.373h1.53c.305 0 .458-.077.611-.229.153-.153.23-.305.23-.534 0-.457-.306-.686-.842-.686h-1.529v.076zM192.322 6.786h5.2c.076 0 .153 0 .23.077.076.076.076.152.076.229v1.83c0 .076 0 .152-.077.228-.076.077-.153.077-.229.077h-8.182c-.077 0-.153 0-.23-.077-.076-.076-.076-.152-.076-.228V.534c0-.076 0-.153.076-.229.077-.076.153-.076.23-.076h8.106c.076 0 .152 0 .229.076.076.076.076.153.076.229v1.83c0 .076 0 .152-.076.229-.077.076-.153.076-.23.076h-5.047v.839h4.36c.076 0 .152 0 .229.076.076.076.076.152.076.229V5.49c0 .076 0 .153-.076.229-.077.076-.153.076-.23.076h-4.359v.991h-.076z" transform="translate(157.499 313.009)"/>
                </g>
                <g fill="#5A85DB" fill-rule="nonzero">
                    <path d="M3.44 4.194h2.37c1.147 0 2.065.229 2.676.762.612.534.918 1.22.918 2.06 0 .838-.306 1.6-.994 2.058-.612.534-1.53.763-2.676.763H.382c-.076 0-.153 0-.23-.077-.076-.076-.076-.152-.076-.228V1.144c0-.076 0-.153.077-.229C.229.839.306.839.383.839h7.645c.076 0 .153 0 .23.076.076.076.076.153.076.229v1.83c0 .076 0 .152-.077.229-.076.076-.153.076-.23.076H3.44v.915zm0 2.211v1.297h1.912c.23 0 .382-.077.459-.23.076-.152.152-.304.152-.457 0-.152-.076-.305-.152-.457-.077-.153-.23-.153-.46-.153h-1.91zM11.392.839h2.37c.076 0 .153 0 .23.076.076.076.076.153.076.229v3.812l2.829-3.888c.152-.153.305-.23.535-.23h2.14c.077 0 .153 0 .23.077.076.076.076.153.076.229v8.388c0 .076 0 .152-.076.228-.077.077-.153.077-.23.077h-2.446c-.077 0-.153 0-.23-.077-.076-.076-.076-.152-.076-.228V6.024l-2.829 3.584c-.153.152-.306.305-.535.305h-2.064c-.077 0-.153 0-.23-.076-.076-.077-.076-.153-.076-.23V1.22c0-.076 0-.152.076-.229.077-.076.153-.152.23-.152zM25.536 4.194h2.37c1.147 0 2.064.229 2.676.762.612.534.917 1.22.917 2.06 0 .838-.305 1.6-.993 2.058-.612.534-1.53.763-2.676.763h-5.352c-.077 0-.153 0-.23-.077-.076-.076-.076-.152-.076-.228V1.144c0-.076 0-.153.076-.229.077-.076.153-.076.23-.076h7.645c.077 0 .153 0 .23.076.076.076.076.153.076.229v1.83c0 .076 0 .152-.076.229-.077.076-.153.076-.23.076h-4.587v.915zm0 2.211v1.297h1.911c.23 0 .383-.077.459-.23.076-.152.153-.304.153-.457 0-.152-.077-.305-.153-.457-.076-.153-.23-.153-.459-.153h-1.911zM32.952 9.913c-.076 0-.153 0-.23-.076-.076-.077-.076-.153-.076-.23V7.55c0-.076 0-.152.077-.229.076-.076.153-.076.23-.076.381 0 .61-.076.764-.229.153-.152.229-.381.229-.762V1.296c0-.076 0-.152.076-.228.077-.077.153-.077.23-.077h7.416c.076 0 .153 0 .23.077.076.076.076.152.076.228v8.388c0 .076 0 .153-.077.229-.076.076-.153.076-.23.076h-2.446c-.076 0-.153 0-.229-.076-.076-.076-.076-.153-.076-.229V3.736H37.08V6.33c0 1.22-.383 2.211-1.07 2.821-.765.458-1.76.763-3.059.763zM44.497.839h2.446c.077 0 .153 0 .23.076.076.076.076.153.076.229v3.812l2.829-3.888c.153-.153.306-.23.535-.23h2.14c.077 0 .154 0 .23.077.077.076.077.153.077.229v8.388c0 .076 0 .152-.077.228-.076.077-.153.153-.23.153h-2.446c-.076 0-.153 0-.229-.076-.076-.077-.076-.153-.076-.23V6.1l-2.83 3.584c-.152.153-.305.305-.535.305h-2.064c-.076 0-.153 0-.23-.076-.076-.076-.076-.153-.076-.229V1.296c0-.076 0-.152.077-.228.076-.077.076-.23.153-.23zM64.528 4.575V6.1c0 .839-.23 1.602-.612 2.212-.458.61-.994.99-1.682 1.22-.688.228-1.529.38-2.446.38-.918 0-1.759-.152-2.447-.38-.688-.23-1.3-.687-1.682-1.22-.382-.534-.611-1.297-.611-2.212V4.575c0-1.296.458-2.211 1.376-2.821.917-.61 2.064-.915 3.517-.915 1.452 0 2.6.305 3.517.915.611.61 1.07 1.601 1.07 2.821zm-6.116-.229V6.33c0 .305.152.61.382.763.23.152.535.305.994.305.382 0 .764-.077.994-.305.229-.23.382-.458.382-.763V4.423c0-.305-.153-.61-.382-.763-.23-.152-.536-.305-.994-.305-.383 0-.765.076-.994.305-.306.153-.382.381-.382.686zM66.286.839h8.946c.076 0 .153 0 .229.076.076.076.076.153.076.229v2.059c0 .076 0 .152-.076.228-.076.077-.153.077-.23.077h-2.828v5.947c0 .077 0 .153-.077.23-.076.075-.153.075-.229.075h-2.676c-.076 0-.153 0-.23-.076-.076-.076-.076-.152-.076-.229V3.508h-2.829c-.076 0-.153 0-.229-.077-.076-.076-.076-.152-.076-.228v-2.06c0-.075 0-.152.076-.228.076-.076.153-.076.23-.076zM80.813 7.32h5.199c.076 0 .153 0 .23.077.076.076.076.152.076.228v1.83c0 .077 0 .153-.077.23-.076.075-.153.075-.23.075h-8.18c-.076 0-.153 0-.23-.076-.076-.076-.076-.152-.076-.229V1.068c0-.077 0-.153.077-.23.076-.075.153-.075.23-.075h8.103c.077 0 .153 0 .23.076.076.076.076.152.076.229v1.83c0 .076 0 .152-.076.228-.077.077-.153.077-.23.077H80.89v.838h4.358c.077 0 .153 0 .23.077.076.076.076.152.076.228v1.678c0 .076 0 .152-.076.229-.077.076-.153.076-.23.076H80.89v.991h-.076zM98.245 9.455c0 .077.076.077.076.153s0 .152-.076.152c-.077.077-.153.077-.23.077h-3.364c-.23 0-.382-.077-.459-.23L91.9 6.788v2.668c0 .077 0 .153-.077.23-.076.075-.153.075-.229.075h-2.676c-.076 0-.153 0-.23-.076-.076-.076-.076-.152-.076-.229V1.068c0-.077 0-.153.077-.23.076-.075.153-.075.23-.075h2.675c.076 0 .153 0 .23.076.076.076.076.152.076.229v2.44L93.963.915c.153-.152.306-.229.459-.229h3.134c.077 0 .153 0 .23.077.076.076.076.152.076.228 0 .077 0 .153-.076.153L94.728 4.88l3.517 4.575zM101.456 9.913h-2.447c-.076 0-.153 0-.23-.076-.076-.077-.076-.077-.076-.153v-.152l2.83-8.312c.076-.305.305-.457.61-.457h3.594c.306 0 .535.152.612.457l2.829 8.312v.152c0 .076 0 .076-.077.153-.076.076-.153.076-.23.076h-2.446c-.306 0-.459-.153-.611-.458l-.306-.915h-3.135l-.306.915c-.153.305-.382.458-.611.458zm3.44-3.889l-.917-2.669-.918 2.669h1.835zM121.793.839h8.41c.076 0 .153 0 .23.076.076.076.076.153.076.229v8.388c0 .076 0 .152-.077.228-.076.077-.153.077-.23.077h-2.522c-.077 0-.153 0-.23-.077-.076-.076-.076-.152-.076-.228V3.584h-2.6v5.948c0 .076 0 .152-.076.228-.077.077-.153.077-.23.077h-2.522c-.077 0-.153 0-.23-.077-.076-.076-.076-.152-.076-.228V1.144c0-.076 0-.153.076-.229.077-.076 0-.076.077-.076zM135.707 6.786h2.753c.076 0 .153 0 .23.077.076.076.076.152.076.229v2.363c0 .077 0 .153-.077.23-.076.075-.153.075-.23.075h-2.752c-.076 0-.152 0-.229-.076-.076-.076-.076-.152-.076-.229V7.092c0-.077 0-.153.076-.23.077-.076.077-.076.23-.076zM145.647 9.913H143.2c-.076 0-.153 0-.23-.076-.076-.077-.076-.077-.076-.153v-.152l2.829-8.312c.076-.305.306-.457.612-.457h3.593c.306 0 .535.152.612.457l2.829 8.312v.152c0 .076 0 .076-.077.153-.076.076-.153.076-.23.076h-2.446c-.306 0-.459-.153-.611-.458l-.306-.915h-3.135l-.306.915c-.153.305-.382.458-.611.458zm3.44-3.889l-.917-2.669-.918 2.669h1.835zM160.785.839h2.676c.076 0 .152 0 .229.076.076.076.076.153.076.229v8.388c0 .076 0 .152-.076.228-.077.077-.153.077-.23.077h-2.675c-.077 0-.153 0-.23-.077-.076-.076-.076-.152-.076-.228V6.786h-2.6v2.746c0 .076 0 .152-.076.228-.077.077-.153.077-.23.077h-2.675c-.077 0-.153 0-.23-.077-.076-.076-.076-.152-.076-.228V1.144c0-.076 0-.153.076-.229.077-.076.153-.076.23-.076h2.676c.076 0 .152 0 .229.076.076.076.076.153.076.229v2.669h2.6v-2.67c0-.075 0-.152.076-.228.077-.076.153-.076.23-.076zM171.87.839h2.677c.076 0 .152 0 .229.076.076.076.076.153.076.229v8.388c0 .076 0 .152-.076.228-.077.077-.153.077-.23.077h-2.675c-.077 0-.153 0-.23-.077-.076-.076-.076-.152-.076-.228V6.786h-2.6v2.746c0 .076 0 .152-.076.228-.077.077-.153.077-.23.077h-2.675c-.077 0-.153 0-.23-.077-.076-.076-.076-.152-.076-.228V1.144c0-.076 0-.153.076-.229.077-.076.153-.076.23-.076h2.676c.076 0 .152 0 .229.076.076.076.076.153.076.229v2.669h2.6v-2.67c0-.075 0-.152.076-.228.077-.076.077-.076.23-.076zM177.07.839h2.446c.077 0 .153 0 .23.076.076.076.076.153.076.229v3.812l2.829-3.888c.153-.153.306-.23.535-.23h2.14c.077 0 .154 0 .23.077.077.076.077.153.077.229v8.388c0 .076 0 .152-.077.228-.076.077-.153.077-.23.077h-2.446c-.076 0-.153 0-.23-.077-.076-.076-.076-.152-.076-.228V6.024l-2.829 3.584c-.152.152-.305.305-.535.305h-2.064c-.076 0-.153 0-.23-.076-.076-.077-.076-.153-.076-.23V1.22c0-.076 0-.152.077-.229.076-.076.076-.152.153-.152zM193.966.839h2.676c.076 0 .153 0 .23.076.076.076.076.153.076.229v8.388c0 .076 0 .152-.077.228-.076.077-.153.077-.229.077h-2.676c-.076 0-.153 0-.23-.077-.076-.076-.076-.152-.076-.228V6.786h-2.6v2.746c0 .076 0 .152-.076.228-.076.077-.153.077-.229.077h-2.676c-.076 0-.153 0-.23-.077-.076-.076-.076-.152-.076-.228V1.144c0-.076 0-.153.077-.229.076-.076.153-.076.23-.076h2.675c.076 0 .153 0 .23.076.076.076.076.153.076.229v2.669h2.6v-2.67c0-.075 0-.152.076-.228.076-.076.076-.076.23-.076zM208.187 4.575V6.1c0 .839-.23 1.602-.612 2.212-.459.61-.994.99-1.682 1.22-.688.228-1.529.38-2.447.38-.917 0-1.758-.152-2.446-.38-.688-.23-1.3-.687-1.682-1.22-.382-.534-.612-1.297-.612-2.212V4.575c0-1.296.459-2.211 1.376-2.821.918-.61 2.065-.915 3.517-.915 1.453 0 2.6.305 3.517.915.612.61 1.07 1.601 1.07 2.821zm-6.193-.229V6.33c0 .305.153.61.382.763.23.152.535.305.994.305.382 0 .765-.077.994-.305.23-.23.382-.458.382-.763V4.423c0-.305-.153-.61-.382-.763-.23-.152-.535-.305-.994-.305-.382 0-.765.076-.994.305-.23.153-.382.381-.382.686z" transform="translate(24.408 262.545)"/>
                </g>
                <g fill="#DFEFBD" fill-rule="nonzero">
                    <path d="M.996 9.837c-.077 0-.153 0-.23-.077C.69 9.684.69 9.608.69 9.532v-2.06c0-.075 0-.152.076-.228.077-.076.153-.076.23-.076.383 0 .613-.076.766-.229.153-.153.23-.381.23-.763V1.22c0-.076 0-.152.077-.229.076-.076.153-.076.23-.076h7.43c.078 0 .154 0 .23.076.077.077.077.153.077.229v8.388c0 .076 0 .152-.076.229-.077.076-.153.076-.23.076H7.278c-.076 0-.153 0-.23-.076-.076-.077-.076-.153-.076-.23V3.66H5.133v2.593c0 1.22-.383 2.211-1.072 2.821-.767.458-1.84.763-3.065.763zM15.782 7.32h5.21c.077 0 .153 0 .23.077.077.076.077.152.077.228v1.83c0 .077 0 .153-.077.23-.077.075-.153.075-.23.075h-8.198c-.076 0-.153 0-.23-.076-.076-.076-.076-.152-.076-.229V1.068c0-.077 0-.153.077-.23.076-.075.153-.075.23-.075h8.12c.077 0 .154 0 .23.076.077.076.077.152.077.229v1.83c0 .076 0 .152-.077.228-.076.077-.153.077-.23.077H15.86v.838h4.367c.077 0 .153 0 .23.077.076.076.076.152.076.228v1.678c0 .076 0 .152-.076.229-.077.076-.153.076-.23.076h-4.367v.991h-.077zM26.585 4.346V6.33c0 .305.153.61.383.763.23.152.536.305.92.305.382 0 .689-.077.842-.153.153-.076.307-.305.46-.534.153-.229.306-.305.46-.305h2.834c.077 0 .153 0 .23.076.077.077.077.153.077.23 0 .762-.383 1.524-1.15 2.134-.383.305-.919.61-1.532.763-.613.152-1.379.305-2.222.305-.842 0-1.609-.153-2.375-.381-.766-.23-1.302-.687-1.762-1.297-.46-.61-.69-1.296-.69-2.135V4.575c0-.839.23-1.601.69-2.135.843-1.067 2.222-1.677 4.214-1.677.766 0 1.532.076 2.145.305.613.228 1.15.457 1.532.762.767.686 1.15 1.373 1.15 2.135 0 .076 0 .153-.077.229-.077.076-.153.076-.23.076H29.65c-.153 0-.383-.076-.46-.305-.076-.229-.229-.381-.459-.534-.153-.076-.46-.152-.843-.152-.383 0-.69.076-.919.305-.23.152-.383.381-.383.762zM43.746 4.499v1.525c0 .839-.23 1.601-.613 2.211-.46.61-.995.992-1.685 1.22-.69.23-1.532.382-2.452.382-.919 0-1.762-.153-2.451-.382-.69-.228-1.303-.686-1.686-1.22-.383-.533-.613-1.296-.613-2.211V4.499c0-1.296.46-2.211 1.38-2.821.919-.61 2.068-.915 3.524-.915 1.455 0 2.604.305 3.524.915.613.61 1.072 1.6 1.072 2.82zm-6.205-.153V6.33c0 .305.153.61.383.763.23.152.536.305.996.305.383 0 .766-.077.996-.305.23-.23.383-.458.383-.763V4.423c0-.305-.153-.61-.383-.763-.23-.152-.537-.305-.996-.305-.383 0-.766.076-.996.305-.23.076-.383.305-.383.686zM45.738.763h8.428c.076 0 .153 0 .23.076.076.076.076.152.076.229v8.387c0 .077 0 .153-.076.23-.077.075-.154.075-.23.075h-2.528c-.077 0-.154 0-.23-.076-.077-.076-.077-.152-.077-.229V3.508h-2.605v5.947c0 .077 0 .153-.076.23-.077.075-.154.075-.23.075h-2.528c-.077 0-.154 0-.23-.076-.077-.076-.077-.152-.077-.229V1.068c0-.077 0-.153.077-.23.076-.075 0-.075.076-.075zM56.847.763H59.3c.077 0 .153 0 .23.076.076.076.076.152.076.229V4.88L62.44.991c.153-.152.307-.228.536-.228h2.146c.076 0 .153 0 .23.076.076.076.076.152.076.229v8.387c0 .077 0 .153-.077.23-.076.075-.153.075-.23.075H62.67c-.077 0-.153 0-.23-.076-.076-.076-.076-.152-.076-.229V5.948l-2.835 3.584c-.153.152-.307.305-.536.305h-2.069c-.077 0-.153 0-.23-.077-.077-.076-.077-.152-.077-.228V1.144c0-.076 0-.153.077-.229.077-.076.077-.152.153-.152zM67.573.763h9.04c.077 0 .154 0 .23.076.077.076.077.152.077.229v2.058c0 .077 0 .153-.076.23-.077.075-.154.075-.23.075h-2.835V9.38c0 .076 0 .153-.077.229-.076.076-.153.076-.23.076h-2.681c-.077 0-.153 0-.23-.076-.076-.076-.076-.153-.076-.229V3.431H67.65c-.077 0-.153 0-.23-.076-.077-.076-.077-.152-.077-.229V1.068c0-.077 0-.153.077-.23.077-.075.077-.075.153-.075zM88.03 4.499v1.525c0 .839-.23 1.601-.614 2.211-.46.61-.996.992-1.685 1.22-.69.23-1.533.382-2.452.382-.92 0-1.762-.153-2.452-.382-.69-.228-1.302-.686-1.685-1.22-.383-.533-.613-1.296-.613-2.211V4.499c0-1.296.46-2.211 1.379-2.821.92-.61 2.069-.915 3.524-.915 1.456 0 2.605.305 3.525.915.612.61 1.072 1.6 1.072 2.82zm-6.207-.153V6.33c0 .305.154.61.383.763.23.152.537.305.996.305.384 0 .767-.077.996-.305.23-.23.383-.458.383-.763V4.423c0-.305-.153-.61-.383-.763-.23-.152-.536-.305-.996-.305-.383 0-.766.076-.996.305-.23.076-.383.305-.383.686zM96.457.763h2.375c.076 0 .153 0 .23.076.076.076.076.152.076.229v8.387c0 .077 0 .153-.077.23-.076.075-.153.075-.23.075h-2.298c-.076 0-.153 0-.23-.076-.076-.076-.076-.152-.076-.229V5.414l-.92 1.83-.23.229c-.076.076-.23.076-.306.076h-.92c-.152 0-.306-.076-.382-.152-.077-.077-.154-.153-.154-.23l-.919-1.83V9.38c0 .076 0 .153-.077.229-.076.076-.153.076-.23.076h-2.374c-.077 0-.154 0-.23-.076-.077-.076-.077-.153-.077-.229V.991c0-.076 0-.152.077-.228.076-.077.153-.077.23-.077h2.375c.23 0 .46.153.536.382l1.685 3.126 1.686-3.126c.077-.23.23-.305.46-.305zM106.953.763h2.681c.077 0 .153 0 .23.076.077.076.077.152.077.229v8.387c0 .077 0 .153-.077.23-.077.075-.153.075-.23.075h-2.681c-.077 0-.154 0-.23-.076-.077-.076-.077-.152-.077-.229V6.71h-2.605v2.745c0 .077 0 .153-.076.23-.077.075-.153.075-.23.075h-2.682c-.076 0-.153 0-.23-.076-.076-.076-.076-.152-.076-.229V1.068c0-.077 0-.153.077-.23.076-.075.153-.075.23-.075h2.68c.078 0 .154 0 .23.076.077.076.077.152.077.229v2.668h2.605V1.068c0-.077 0-.153.077-.23.076-.075.153-.075.23-.075zM112.239.763h2.452c.076 0 .153 0 .23.076.076.076.076.152.076.229V4.88l2.835-3.889c.153-.152.306-.228.536-.228h2.145c.077 0 .154 0 .23.076.077.076.077.152.077.229v8.387c0 .077 0 .153-.077.23-.076.075-.153.075-.23.075h-2.528c-.077 0-.153 0-.23-.076-.076-.076-.076-.152-.076-.229V5.948l-2.835 3.584c-.153.152-.307.305-.536.305h-2.069c-.077 0-.153 0-.23-.077-.076-.076-.076-.152-.076-.228V1.144c0-.076 0-.153.076-.229.077-.076.077-.152.23-.152zM132.848 9.38c0 .075.077.075.077.152 0 .076 0 .152-.077.152-.077.076-.153.076-.23.076h-3.37c-.23 0-.384-.076-.46-.228l-2.299-2.822v2.67c0 .075 0 .152-.076.228-.077.076-.154.076-.23.076H123.5c-.076 0-.153 0-.23-.076-.076-.076-.076-.153-.076-.229V.991c0-.076 0-.152.076-.228.077-.077.154-.077.23-.077h2.682c.076 0 .153 0 .23.077.076.076.076.152.076.228v2.44L128.558.84c.153-.153.306-.229.46-.229h3.14c.077 0 .154 0 .23.076.077.077.077.153.077.229 0 .076 0 .153-.077.153l-3.064 3.736 3.524 4.575z" transform="translate(88.788 569.325)"/>
                </g>
                <g fill="#DFEFBD" fill-rule="nonzero">
                    <path d="M.686.95H4.723V61.95H.686zM7.922.95H11.959V61.95H7.922zM14.778.95H18.815V61.95H14.778zM21.862.95H25.898999999999997V61.95H21.862z" transform="translate(283.654 517.211)"/>
                </g>
                <path fill="#DFEFBD" fill-rule="nonzero" d="M338 577.876c0-12.556 9.98-22.672 22.473-22.873l.38-.003.38.003c12.492.201 22.473 10.317 22.473 22.873H338z"/>
                <path fill="#FEF1E1" fill-rule="nonzero" d="M135.408 337.41v80.827H54.662c0-44.812 35.978-80.827 80.746-80.827z"/>
                <g fill-rule="nonzero">
                    <path fill="#F36B7F" d="M0.025 0.706L56.241 0.706 56.37 14.488 0.154 14.488z" transform="translate(9.408 271.695) rotate(-180 28.198 7.597)"/>
                    <path fill="#FFE2D8" d="M0.012 2.779H28.12V12.311H0.012z" transform="translate(9.408 271.695) rotate(-180 14.066 7.545)"/>
                    <path fill="#FFB8A0" d="M0.012 10.491H28.12V11.491H0.012z" transform="translate(9.408 271.695) rotate(-180 14.066 10.682)"/>
                    <path fill="#FFB8A0" d="M0.012 8.355H28.12V9.355H0.012z" transform="translate(9.408 271.695) rotate(-180 14.066 8.545)"/>
                </g>
                <g fill-rule="nonzero">
                    <path fill="#F8CF60" d="M0 0L41.135 0 41.135 8.388 0 8.388z" transform="translate(58.16 277.795)"/>
                    <path fill="#FFE2D8" d="M20.644 1.22H41.211V7.015H20.644z" transform="translate(58.16 277.795)"/>
                    <path fill="#FFB8A0" d="M20.644 2.135H41.211V3.135H20.644zM20.644 3.431H41.211V4.431H20.644z" transform="translate(58.16 277.795)"/>
                </g>
                <g fill-rule="nonzero">
                    <path fill="#81B6A5" d="M0 0L63.226 0 63.226 12.2 0 12.2z" transform="translate(200.982 94.153) rotate(-180 31.613 6.1)"/>
                    <path fill="#FFE2D8" d="M0.391 2.056H31.773000000000003V10.673000000000002H0.391z" transform="translate(200.982 94.153) rotate(-180 16.082 6.364)"/>
                    <path fill="#FFB8A0" d="M0.391 8.966H31.773000000000003V9.966H0.391z" transform="translate(200.982 94.153) rotate(-180 16.082 9.118)"/>
                    <path fill="#FFB8A0" d="M0.391 7.073H31.773000000000003V8.073H0.391z" transform="translate(200.982 94.153) rotate(-180 16.082 7.225)"/>
                </g>
                <g fill-rule="nonzero">
                    <path fill="#F36B7F" d="M0.498 0.061H83.676V17.675H0.498z" transform="translate(193.364 76.614) rotate(-180 42.087 8.868)"/>
                    <path fill="#FFE2D8" d="M0.487 2.738H42.076V15.014999999999999H0.487z" transform="translate(193.364 76.614) rotate(-180 21.281 8.876)"/>
                    <path fill="#FFB8A0" d="M0.487 12.613H42.076V13.613H0.487z" transform="translate(193.364 76.614) rotate(-180 21.281 12.841)"/>
                    <path fill="#FFB8A0" d="M0.487 9.932H42.076V10.932H0.487z" transform="translate(193.364 76.614) rotate(-180 21.281 10.161)"/>
                </g>
                <g fill-rule="nonzero">
                    <path fill="#F8CF60" d="M0.308 0.534L76.861 0.534 76.938 18.301 0.385 18.301z" transform="translate(290.107 88.052)"/>
                    <path fill="#FFE2D8" d="M38.088 3.05H76.326V15.174H38.088z" transform="translate(290.107 88.052)"/>
                    <path fill="#FFB8A0" d="M38.088 5.338H76.326V6.338H38.088zM38.088 7.625H76.326V8.625H38.088z" transform="translate(290.107 88.052)"/>
                </g>
                <g fill-rule="nonzero">
                    <path fill="#F7F6FC" d="M0.381 0L73.51 0 73.51 11.819 0.384 11.972z" transform="translate(305.343 76.614)"/>
                    <path fill="#FFE2D8" d="M44.64 1.906H73.587V10.218H44.64z" transform="translate(305.343 76.614)"/>
                    <path fill="#FFB8A0" d="M44.64 3.203H73.587V4.202999999999999H44.64zM44.64 5.033H73.587V6.033H44.64z" transform="translate(305.343 76.614)"/>
                </g>
                <g fill-rule="nonzero">
                    <path fill="#DFEFBD" d="M0.012 0.453H18.142V5.0280000000000005H0.012z" transform="translate(191.468 277.033) rotate(-180 9.077 2.74)"/>
                    <path fill="#FFE2D8" d="M0.026 1.065H9.091V3.581H0.026z" transform="translate(191.468 277.033) rotate(-180 4.559 2.323)"/>
                    <path fill="#FFB8A0" d="M0.026 3.1H9.091V4.1H0.026z" transform="translate(191.468 277.033) rotate(-180 4.559 3.15)"/>
                    <path fill="#FFB8A0" d="M0.026 2.568H9.091V3.568H0.026z" transform="translate(191.468 277.033) rotate(-180 4.559 2.618)"/>
                </g>
                <g fill-rule="nonzero">
                    <path fill="#9FBFFF" d="M0.317 0.68H30.102V5.864999999999999H0.317z" transform="translate(188.421 271.695) rotate(-180 15.21 3.272)"/>
                    <path fill="#FFE2D8" d="M0.355 1.521H12.391V5.105H0.355z" transform="translate(188.421 271.695) rotate(-180 6.372 3.313)"/>
                    <path fill="#FFB8A0" d="M0.355 4.398H12.391V5.398H0.355z" transform="translate(188.421 271.695) rotate(-180 6.372 4.474)"/>
                    <path fill="#FFB8A0" d="M0.355 3.619H12.391V4.619H0.355z" transform="translate(188.421 271.695) rotate(-180 6.372 3.695)"/>
                </g>
                <g fill-rule="nonzero">
                    <path fill="#81B6A5" d="M0.147 0H34.655V4.575H0.147z" transform="translate(186.136 281.608) rotate(-180 17.4 2.288)"/>
                    <path fill="#FFE2D8" d="M0.103 0.688H17.395000000000003V3.891H0.103z" transform="translate(186.136 281.608) rotate(-180 8.749 2.29)"/>
                    <path fill="#FFB8A0" d="M0.103 3.224H17.395000000000003V4.224H0.103z" transform="translate(186.136 281.608) rotate(-180 8.749 3.3)"/>
                    <path fill="#FFB8A0" d="M0.103 2.476H17.395000000000003V3.476H0.103z" transform="translate(186.136 281.608) rotate(-180 8.749 2.552)"/>
                </g>
                <g fill-rule="nonzero">
                    <path fill="#F8CF60" d="M0 0.686L26.281 0.763 26.281 6.176 0 6.1z" transform="translate(136.242 280.083)"/>
                    <path fill="#FFE2D8" d="M12.95 1.22H26.128V4.956H12.95z" transform="translate(136.242 280.083)"/>
                    <path fill="#FFB8A0" d="M12.95 1.754H26.128V2.754H12.95z" transform="translate(136.242 280.083)"/>
                    <path fill="#FFB8A0" d="M12.95 2.593H26.128V3.593H12.95z" transform="translate(136.242 280.083)"/>
                </g>
                <g fill-rule="nonzero">
                    <path fill="#9FBFFF" d="M0.076 0.076L30.547 0.076 30.47 4.575 0 4.575z" transform="translate(133.575 276.27)"/>
                    <path fill="#FFE2D8" d="M15.311 0.686H30.546V3.584H15.311z" transform="translate(133.575 276.27)"/>
                    <path fill="#FFB8A0" d="M15.311 1.144H30.546V2.144H15.311z" transform="translate(133.575 276.27)"/>
                    <path fill="#FFB8A0" d="M15.311 1.754H30.546V2.754H15.311z" transform="translate(133.575 276.27)"/>
                </g>
                <path fill="#81B6A5" fill-rule="nonzero" d="M79.647 329.022c-12.036 0-21.938 9.997-21.938 22.148v22.303c0 12.074 9.674 21.917 21.481 22.148v-17.534h.838v17.534c11.884-.23 21.482-10.074 21.482-22.148V351.17c.076-12.228-9.827-22.148-21.863-22.148z"/>
                <path fill="#DFEFBD" fill-rule="nonzero" d="M79.266 378.01H80.266V395.544H79.266z"/>
                <path fill="#9FBFFF" fill-rule="nonzero" d="M79.266 395.544L79.266 395.621 79.266 418 80.104 418 80.104 395.621 80.104 395.544z"/>
                <g fill-rule="nonzero">
                    <path fill="#81B6A5" d="M13.617 0C6.147 0 0 6.238 0 13.82v13.914c0 7.534 6.005 13.675 13.333 13.82v-10.94h.52v10.94c7.376-.145 13.334-6.286 13.334-13.82V13.82C27.234 6.19 21.087 0 13.617 0z" transform="translate(28 362.573)"/>
                    <path fill="#DFEFBD" d="M13.381 30.565H14.381V41.505H13.381z" transform="translate(28 362.573)"/>
                    <path fill="#9FBFFF" d="M13.381 41.505L13.381 41.553 13.381 55.516 13.901 55.516 13.901 41.553 13.901 41.505z" transform="translate(28 362.573)"/>
                </g>
                <g fill-rule="nonzero">
                    <path fill="#F36B7F" d="M0.744 0L23.216 0 23.198 3.899 0.744 3.889z" transform="translate(130.528 272.458) rotate(-180 11.98 1.95)"/>
                    <path fill="#FFE2D8" d="M0.676 0.622H9.817V3.291H0.676z" transform="translate(130.528 272.458) rotate(-180 5.246 1.956)"/>
                    <path fill="#FFB8A0" d="M0.676 2.829H9.817V3.829H0.676z" transform="translate(130.528 272.458) rotate(-180 5.246 2.88)"/>
                    <path fill="#FFB8A0" d="M0.676 2.231H9.817V3.231H0.676z" transform="translate(130.528 272.458) rotate(-180 5.246 2.281)"/>
                </g>
                <ellipse cx="98.088" cy="110.126" fill="#F8CF60" fill-rule="nonzero" rx="38.088" ry="38.126"/>
                <g transform="translate(54 23)">
                    <mask id="prefix__d" fill="#fff">
                        <use xlink:href="#prefix__c"/>
                    </mask>
                    <path fill="#F1F1F1" fill-rule="nonzero" d="M6 19h56c0-5.362-3.605-11.667-12.378-12.845-9.854-1.296-13.038 5.951-18.506 6.658-7.992 1.06-6.73-1.944-14.721-2.062C10.326 10.633 6 14.64 6 19z" mask="url(#prefix__d)"/>
                </g>
                <g fill="#81B6A5" fill-rule="nonzero">
                    <path d="M3.371 3.508h2.375c1.15 0 2.069.228 2.682.762s.92 1.22.92 2.059c0 .915-.307 1.601-.997 2.059-.613.534-1.532.762-2.681.762H.306c-.076 0-.153 0-.23-.076C0 8.998 0 8.922 0 8.845V.458C0 .38 0 .305.077.228.153.154.23.154.307.154h7.661c.077 0 .153 0 .23.076.077.076.077.152.077.229v1.83c0 .076 0 .152-.077.228-.077.077-.153.077-.23.077H3.371v.915zm0 2.135v1.296h1.916c.23 0 .383-.076.46-.229.076-.152.153-.305.153-.457 0-.153-.077-.305-.154-.458-.076-.152-.23-.152-.46-.152H3.372zM11.34.076h2.451c.077 0 .153 0 .23.077.077.076.077.152.077.228v3.813L16.932.305c.154-.152.307-.229.537-.229h2.145c.077 0 .153 0 .23.077.077.076.077.152.077.228V8.77c0 .076 0 .153-.077.229-.077.076-.153.076-.23.076h-2.452c-.076 0-.153 0-.23-.076-.076-.076-.076-.153-.076-.229V5.261L14.02 8.845c-.153.153-.306.305-.536.305h-2.069c-.077 0-.153 0-.23-.076-.076-.076-.076-.152-.076-.229V.458c0-.077 0-.153.076-.23-.076-.075 0-.152.153-.152zM25.514 3.508h2.375c1.149 0 2.068.228 2.681.762s.92 1.22.92 2.059c0 .915-.307 1.601-.996 2.059-.613.534-1.533.762-2.682.762H22.45c-.077 0-.153 0-.23-.076-.077-.076-.077-.152-.077-.229V.458c0-.077 0-.153.077-.23.077-.075.153-.075.23-.075h7.662c.076 0 .153 0 .23.076.076.076.076.152.076.229v1.83c0 .076 0 .152-.076.228-.077.077-.154.077-.23.077h-4.597v.915zm0 2.135v1.296h1.915c.23 0 .383-.076.46-.229.076-.152.153-.305.153-.457 0-.153-.077-.305-.153-.458-.077-.152-.23-.152-.46-.152h-1.915zM32.946 9.15c-.077 0-.154 0-.23-.076-.077-.076-.077-.152-.077-.229V6.786c0-.076 0-.152.077-.228.076-.077.153-.077.23-.077.383 0 .612-.076.766-.228.153-.153.23-.382.23-.763V.534c0-.076 0-.153.076-.229.077-.076.153-.076.23-.076h7.432c.077 0 .153 0 .23.076.076.076.076.153.076.229v8.388c0 .076 0 .152-.076.228-.077.077-.153.077-.23.077h-2.452c-.076 0-.153 0-.23-.077-.076-.076-.076-.152-.076-.228V2.898h-1.84V5.49c0 1.22-.382 2.212-1.072 2.822-.843.533-1.839.838-3.064.838zM44.515.076h2.452c.076 0 .153 0 .23.077.076.076.076.152.076.228v3.813L50.108.305c.153-.152.306-.229.536-.229h2.145c.077 0 .154 0 .23.077.077.076.077.152.077.228V8.77c0 .076 0 .153-.077.229-.076.076-.153.076-.23.076h-2.451c-.077 0-.154 0-.23-.076-.077-.076-.077-.153-.077-.229V5.261l-2.835 3.584c-.153.153-.306.305-.536.305h-2.145c-.077 0-.153 0-.23-.076-.077-.076-.077-.152-.077-.229V.458c0-.077 0-.153.077-.23.077-.075.153-.152.23-.152zM64.589 3.889v1.525c0 .839-.23 1.601-.613 2.211-.46.61-.996.992-1.686 1.22-.69.23-1.532.382-2.452.382-.92 0-1.762-.153-2.452-.382-.69-.228-1.302-.686-1.685-1.22-.383-.533-.613-1.296-.613-2.211V3.889c0-1.296.46-2.211 1.38-2.821.918-.61 2.068-.915 3.523-.915 1.456 0 2.605.305 3.525.915.613.61 1.073 1.525 1.073 2.82zm-6.206-.229v1.983c0 .305.153.61.383.762.23.153.536.305.996.305.383 0 .766-.076.996-.305.23-.229.383-.457.383-.762V3.66c0-.305-.153-.61-.383-.762-.23-.153-.537-.305-.996-.305-.383 0-.767.076-.996.305-.23.152-.383.457-.383.762zM66.35.076h8.965c.077 0 .153 0 .23.077.076.076.076.152.076.228v2.06c0 .075 0 .152-.076.228-.077.076-.153.076-.23.076H72.48v5.948c0 .076 0 .152-.076.229-.077.076-.154.076-.23.076h-2.682c-.077 0-.153 0-.23-.076-.076-.077-.076-.153-.076-.23V2.899H66.35c-.077 0-.154 0-.23-.077-.077-.076-.077-.152-.077-.228V.533c0-.075 0-.152.077-.228 0-.152.076-.229.23-.229zM80.908 6.634h5.21c.077 0 .153 0 .23.076.077.076.077.153.077.229v1.83c0 .076 0 .153-.077.229-.077.076-.153.076-.23.076H77.92c-.077 0-.153 0-.23-.076-.077-.076-.077-.153-.077-.229V.381c0-.076 0-.152.077-.228.077-.077.153-.077.23-.077h8.121c.077 0 .154 0 .23.077.077.076.077.152.077.228v1.83c0 .077 0 .153-.077.23-.076.075-.153.075-.23.075h-5.056v.84h4.367c.076 0 .153 0 .23.075.076.077.076.153.076.23v1.677c0 .076 0 .152-.076.228-.077.077-.154.077-.23.077h-4.367v.991h-.077zM98.3 8.693c0 .076.077.076.077.152 0 .077 0 .153-.077.153-.076.076-.153.076-.23.076H94.7c-.23 0-.384-.076-.46-.229L91.94 6.024v2.669c0 .076 0 .152-.077.229-.076.076-.153.076-.23.076h-2.681c-.077 0-.153 0-.23-.076-.077-.077-.077-.153-.077-.23V.306c0-.076 0-.152.077-.229C88.8 0 88.876 0 88.953 0h2.681c.077 0 .154 0 .23.076.077.077.077.153.077.229v2.593L94.01.305c.153-.152.306-.229.46-.229h3.14c.077 0 .154 0 .23.077.077.076.077.152.077.228 0 .077 0 .153-.076.153L94.776 4.27 98.3 8.693zM101.595 9.15h-2.452c-.077 0-.153 0-.23-.076-.076-.076-.076-.076-.076-.152v-.153L101.67.458c.077-.305.307-.458.613-.458h3.601c.307 0 .537.153.613.458l2.835 8.311v.153c0 .076 0 .076-.076.152-.077.076-.154.076-.23.076h-2.452c-.307 0-.46-.152-.613-.457l-.307-.915h-3.14l-.307.915c-.154.305-.383.457-.613.457zm3.37-3.889l-.918-2.668-.92 2.668h1.839zM3.474 21.503H.792c-.077 0-.153 0-.23-.076-.076-.076-.076-.152-.076-.229V12.81c0-.076 0-.152.076-.228.077-.077.153-.077.23-.077h7.049c.076 0 .153 0 .23.077.076.076.076.152.076.228v2.06c0 .076 0 .152-.076.228-.077.076-.154.076-.23.076H3.78v5.948c0 .076 0 .153-.078.229-.076.152-.153.152-.23.152zM13.127 18.453h2.759c.076 0 .153 0 .23.076.076.077.076.153.076.23v2.363c0 .076 0 .153-.076.229-.077.076-.154.076-.23.076h-2.759c-.076 0-.153 0-.23-.076-.076-.076-.076-.153-.076-.229v-2.364c0-.076 0-.152.077-.229.076-.076.153-.076.23-.076zM21.402 12.43h8.428c.077 0 .153 0 .23.075.076.077.076.153.076.23v8.387c0 .076 0 .153-.076.229-.077.076-.153.076-.23.076h-2.528c-.077 0-.154 0-.23-.076-.077-.076-.077-.153-.077-.229v-5.871H24.39v5.947c0 .077 0 .153-.076.229-.077.076-.154.076-.23.076h-2.682c-.077 0-.153 0-.23-.076-.076-.076-.076-.152-.076-.229V12.81c0-.076 0-.152.076-.228.077-.077.153-.153.23-.153zM35.27 18.453h2.758c.077 0 .153 0 .23.076.077.077.077.153.077.23v2.363c0 .076 0 .153-.077.229-.077.076-.153.076-.23.076H35.27c-.077 0-.153 0-.23-.076-.077-.076-.077-.153-.077-.229v-2.364c0-.076 0-.152.077-.229.077-.076.153-.076.23-.076zM49.367 12.43h2.682c.077 0 .153 0 .23.075.077.077.077.153.077.23v8.387c0 .076 0 .153-.077.229-.077.076-.153.076-.23.076h-2.682c-.076 0-.153 0-.23-.076-.076-.076-.076-.153-.076-.229v-2.745h-2.605v2.745c0 .076 0 .153-.077.229-.076.076-.153.076-.23.076h-2.681c-.077 0-.153 0-.23-.076-.077-.076-.077-.153-.077-.229v-8.388c0-.076 0-.152.077-.229.077-.076.153-.076.23-.076h2.682c.076 0 .153 0 .23.076.076.077.076.153.076.23v2.668h2.605v-2.669c0-.076 0-.152.077-.229.076 0 .153-.076.23-.076zM63.618 16.242v1.525c0 .839-.23 1.601-.613 2.211-.46.61-.996.991-1.685 1.22-.69.229-1.533.382-2.452.382-.92 0-1.762-.153-2.452-.382s-1.302-.686-1.685-1.22c-.383-.534-.613-1.296-.613-2.211v-1.525c0-1.296.46-2.211 1.379-2.822.92-.61 2.069-.915 3.524-.915 1.456 0 2.605.305 3.525.915.69.61 1.072 1.526 1.072 2.822zm-6.13-.229v1.983c0 .305.154.61.384.762.23.153.536.305.996.305.383 0 .766-.076.996-.305.23-.229.383-.457.383-.762v-1.983c0-.305-.153-.61-.383-.762-.23-.153-.536-.305-.996-.305-.383 0-.766.076-.996.305-.306.152-.383.457-.383.762zM74.881 18.682c0 1.906-1.226 2.821-3.678 2.821H65.84c-.076 0-.153 0-.23-.076-.076-.076-.076-.152-.076-.229V12.81c0-.076 0-.152.076-.228.077-.077.154-.077.23-.077h5.21c1.226 0 2.146.23 2.758.687.613.457.843 1.144.843 1.982v.077c0 .38-.076.762-.306 1.067-.23.305-.46.458-.69.534.307.076.613.305.843.686.23.381.383.686.383 1.144zm-3.907-2.974c.076-.152.153-.229.153-.457 0-.23-.077-.305-.153-.382-.077-.076-.23-.152-.383-.152h-1.763v1.144h1.763c.153 0 .306-.077.383-.153zm-2.146 2.288v1.296h1.916c.23 0 .383-.076.46-.229.076-.152.153-.305.153-.457 0-.153-.077-.305-.154-.458-.076-.152-.23-.152-.46-.152h-1.915zM85.76 16.242v1.525c0 .839-.23 1.601-.612 2.211-.46.61-.996.991-1.686 1.22-.69.229-1.532.382-2.452.382-.919 0-1.762-.153-2.451-.382-.69-.229-1.303-.686-1.686-1.22-.383-.534-.613-1.296-.613-2.211v-1.525c0-1.296.46-2.211 1.38-2.822.919-.61 2.068-.915 3.524-.915 1.455 0 2.605.305 3.524.915.69.61 1.073 1.526 1.073 2.822zm-6.129-.229v1.983c0 .305.154.61.383.762.23.153.537.305.996.305.384 0 .767-.076.997-.305.23-.229.383-.457.383-.762v-1.983c0-.305-.154-.61-.383-.762-.23-.153-.537-.305-.997-.305-.383 0-.766.076-.996.305-.306.152-.383.457-.383.762zM90.818 16.013v1.983c0 .305.153.61.383.762.23.153.536.305.919.305s.69-.076.843-.152c.153-.077.306-.305.46-.534.153-.229.306-.305.46-.305h2.834c.077 0 .153 0 .23.076.077.076.077.153.077.229 0 .762-.384 1.525-1.15 2.135-.383.305-.92.61-1.532.763-.613.228-1.38.305-2.222.305-.843 0-1.609-.153-2.375-.382s-1.303-.686-1.762-1.296c-.46-.61-.69-1.296-.69-2.135v-1.525c0-.839.23-1.601.69-2.135.842-1.068 2.222-1.678 4.214-1.678.766 0 1.532.076 2.145.305.613.229 1.15.458 1.532.763.766.686 1.15 1.372 1.15 2.135 0 .076 0 .152-.077.229-.077.076-.153.076-.23.076h-2.835c-.153 0-.383-.076-.46-.305-.153-.229-.23-.381-.46-.534-.152-.076-.459-.152-.842-.152-.383 0-.69.076-.92.305-.23.152-.382.457-.382.762zM102.157 18.987h5.21c.077 0 .153 0 .23.076.076.076.076.153.076.229v1.83c0 .076 0 .153-.076.229-.077.076-.153.076-.23.076h-8.198c-.077 0-.153 0-.23-.076-.077-.076-.077-.153-.077-.229v-8.388c0-.076 0-.152.077-.229.077-.076.153-.076.23-.076h8.045c.076 0 .153 0 .23.076.076.077.076.153.076.23v1.83c0 .076 0 .152-.076.228-.077.076-.154.076-.23.076h-5.057v.84h4.367c.077 0 .153 0 .23.075.077.077.077.153.077.23v1.677c0 .076 0 .152-.077.228-.077.077-.153.077-.23.077h-4.367v.99zM109.512 21.503c-.076 0-.153 0-.23-.076-.076-.076-.076-.152-.076-.229V19.14c0-.076 0-.152.076-.228.077-.077.154-.077.23-.077.383 0 .613-.076.766-.228.154-.153.23-.382.23-.763v-4.956c0-.077 0-.153.077-.229.076-.076.153-.076.23-.076h7.432c.076 0 .153 0 .23.076.076.076.076.152.076.229v8.388c0 .076 0 .152-.077.228-.076.077-.153.077-.23.077h-2.451c-.077 0-.153 0-.23-.077-.077-.076-.077-.152-.077-.228V15.25h-1.838v2.592c0 1.22-.384 2.211-1.073 2.821-.843.534-1.839.84-3.065.84zM124.912 12.81v2.517h1.533c1.226 0 2.222.305 2.988.839.766.533 1.149 1.296 1.149 2.287 0 .991-.383 1.754-1.15 2.288-.765.534-1.761.839-2.987.839h-4.52c-.077 0-.154 0-.23-.077-.077-.076-.077-.152-.077-.228v-8.388c0-.077 0-.153.076-.229.077-.076.154-.076.23-.076h2.682c.076 0 .153 0 .23.076.076 0 .076.076.076.152zm0 4.88v1.373h1.533c.306 0 .46-.076.613-.229.153-.152.23-.305.23-.533 0-.458-.307-.687-.843-.687h-1.533v.077zM135.332 18.987h5.21c.077 0 .154 0 .23.076.077.076.077.153.077.229v1.83c0 .076 0 .153-.077.229-.076.076-.153.076-.23.076h-8.198c-.076 0-.153 0-.23-.076-.076-.076-.076-.153-.076-.229v-8.388c0-.076 0-.152.076-.229.077-.076.154-.076.23-.076h8.122c.076 0 .153 0 .23.076.076.077.076.153.076.23v1.83c0 .076 0 .152-.076.228-.077.076-.154.076-.23.076h-5.057v.84h4.367c.077 0 .153 0 .23.075.077.077.077.153.077.23v1.677c0 .076 0 .152-.077.228-.077.077-.153.077-.23.077h-4.367v.99h-.077z" transform="translate(201.743 43.063)"/>
                </g>
                <path fill="#81B6A5" fill-rule="nonzero" d="M383.73 437.189v-19.215H261.087v100h46.674c41.906 0 75.97-36.14 75.97-80.785z"/>
                <g fill-rule="nonzero">
                    <g fill="#5A85DB">
                        <path d="M33.898 37.843L.457 37.843 17.14 18.998 17.14 18.998zM15.997 56.764H17.521V117.76400000000001H15.997z" transform="translate(261.087 460.784)"/>
                        <path d="M33.898 57.19L.457 57.19 17.14 37.364zM33.898 18.921L.457 18.921 17.14 0 17.14 0z" transform="translate(261.087 460.784)"/>
                    </g>
                    <path fill="#9FBFFF" d="M34.279 19.063L17.52 19.063 17.52 0 25.367 9.067zM34.279 38.126L17.52 38.126 17.52 19.063 25.367 28.089z" transform="translate(261.087 460.784)"/>
                    <path fill="#9FBFFF" d="M34.279 57.19L17.52 57.19 17.52 37.364 25.367 46.286z" transform="translate(261.087 460.784)"/>
                </g>
                <g fill="#DFEFBD" fill-rule="nonzero">
                    <path d="M12.569 14.183L.457 14.183 6.475 7.397 6.475 7.397zM6.094 20.969H7.094V31.949H6.094zM12.569 20.969L.457 20.969 6.475 14.183 6.475 14.183zM12.569 7.397L.457 7.397 6.475.534 6.475.534z" transform="translate(231.237 547.211)"/>
                </g>
                <g fill="#DFEFBD" fill-rule="nonzero">
                    <path d="M12.645 14.183L.533 14.183 6.627 7.397 6.627 7.397zM6.17 20.969H7.17V31.949H6.17zM12.645 20.969L.533 20.969 6.627 14.183 6.627 14.183zM12.645 7.397L.533 7.397 6.627.534 6.627.534z" transform="translate(244.949 547.211)"/>
                </g>
                <g fill="#DFEFBD" fill-rule="nonzero">
                    <path d="M12.188 14.183L0 14.183 6.094 7.397 6.094 7.397zM5.637 20.969H6.637V31.949H5.637zM12.188 20.969L0 20.969 6.094 14.183 6.094 14.183zM12.188 7.397L0 7.397 6.094.534 6.094.534z" transform="translate(258.66 547.211)"/>
                </g>
                <g transform="translate(53 527)">
                    <mask id="prefix__f" fill="#fff">
                        <use xlink:href="#prefix__e"/>
                    </mask>
                    <path fill="#F1F1F1" fill-rule="nonzero" d="M3 11h39c0-3.71-2.524-8.089-8.58-8.893-6.882-.894-9.085 4.111-12.893 4.603-5.552.76-4.68-1.341-10.232-1.43C5.982 5.19 3 7.96 3 11z" mask="url(#prefix__f)" transform="matrix(-1 0 0 1 45 0)"/>
                </g>
                <g transform="translate(92 543)">
                    <mask id="prefix__h" fill="#fff">
                        <use xlink:href="#prefix__g"/>
                    </mask>
                    <path fill="#F1F1F1" fill-rule="nonzero" d="M3 7h22c0-2.06-1.424-4.494-4.84-4.94-3.882-.497-5.125 2.283-7.273 2.557-3.132.422-2.64-.745-5.772-.795C4.682 3.772 3 5.312 3 7z" mask="url(#prefix__h)" transform="matrix(-1 0 0 1 28 0)"/>
                </g>
                <ellipse cx="98.088" cy="110.126" fill="#F36B7F" fill-rule="nonzero" rx="4.571" ry="4.575"/>
                <ellipse cx="98.088" cy="110.126" stroke="#F36B7F" rx="34.279" ry="34.314"/>
                <g transform="translate(112 126)">
                    <mask id="prefix__j" fill="#fff">
                        <use xlink:href="#prefix__i"/>
                    </mask>
                    <path fill="#FFF" fill-rule="nonzero" d="M43.22 14.937H3.608c0-4.403 2.573-9.58 8.738-10.548 6.99-1.065 9.223 4.887 13.107 5.467 5.631.871 4.757-1.596 10.388-1.693 4.32-.097 7.379 3.193 7.379 6.774z" mask="url(#prefix__j)"/>
                </g>
                <g transform="translate(162 9)">
                    <mask id="prefix__l" fill="#fff">
                        <use xlink:href="#prefix__k"/>
                    </mask>
                    <path fill="#F1F1F1" fill-rule="nonzero" d="M48.706 14.2H3C3 9.168 5.969 3.251 13.082 2.145 21.148.93 23.724 7.73 28.205 8.395c6.498.994 5.49-1.826 11.987-1.936 4.985-.111 8.514 3.65 8.514 7.741z" mask="url(#prefix__l)"/>
                </g>
                <path fill="#FFF" fill-rule="nonzero" d="M116.816 203.063h79.223c0-7.81-5.077-17.106-17.46-18.824-13.922-1.953-18.46 8.67-26.228 9.764-11.23 1.562-9.46-2.812-20.844-3.047-8.615-.156-14.691 5.702-14.691 12.107zM369.42 47.438H326c0-4.717 2.772-10.257 9.546-11.305 7.622-1.123 10.085 5.24 14.397 5.84 6.159.973 5.235-1.723 11.394-1.797 4.696-.15 8.083 3.369 8.083 7.262z"/>
                <g transform="translate(255 121)">
                    <mask id="prefix__n" fill="#fff">
                        <use xlink:href="#prefix__m"/>
                    </mask>
                    <path fill="#F1F1F1" fill-rule="nonzero" d="M5 22.063h79.223c0-7.81-5.077-17.106-17.46-18.824-13.922-1.953-18.46 8.67-26.228 9.764-11.23 1.562-9.46-2.812-20.844-3.047C11.076 9.8 5 15.736 5 22.063z" mask="url(#prefix__n)"/>
                </g>
                <g fill="#BCE8FA" fill-rule="nonzero">
                    <path d="M0 .763L122.566.686 122.566 5.185 0 5.261zM0 8.083L122.566 8.235 122.566 12.734 0 12.582z" transform="translate(261.087 427.233)"/>
                </g>
                <g fill-rule="nonzero">
                    <path fill="#DFEFBD" d="M0.491 0.234L59.821 0.234 59.711 12.2 0.381 12.2z" transform="translate(300.01 64.414) rotate(-180 30.101 6.217)"/>
                    <path fill="#FFE2D8" d="M0.548 2.07H30.174999999999997V10.305H0.548z" transform="translate(300.01 64.414) rotate(-180 15.361 6.188)"/>
                    <path fill="#FFB8A0" d="M0.548 8.746H30.174999999999997V9.746H0.548z" transform="translate(300.01 64.414) rotate(-180 15.361 8.898)"/>
                    <path fill="#FFB8A0" d="M0.548 6.862H30.174999999999997V7.862H0.548z" transform="translate(300.01 64.414) rotate(-180 15.361 7.014)"/>
                </g>
                <g fill-rule="nonzero">
                    <path fill="#9FBFFF" d="M0.376 0.153H83.408V12.43H0.376z" transform="translate(201.743 64.414)"/>
                    <path fill="#FFE2D8" d="M52.026 2.059H83.408V10.599H52.026z" transform="translate(201.743 64.414)"/>
                    <path fill="#FFB8A0" d="M52.026 3.355H83.408V4.355H52.026zM52.026 5.261H83.408V6.261H52.026z" transform="translate(201.743 64.414)"/>
                </g>
                <g fill-rule="nonzero">
                    <path fill="#9FBFFF" d="M42.378 11.636L57.431 11.636 57.43 44.835 42.378 44.835z" transform="translate(135.408 373.248) rotate(-.124 49.904 28.235)"/>
                    <path fill="#F7F6FC" d="M1.776 11.714L42.301 11.713 42.301 44.912 1.775 44.913z" transform="translate(135.408 373.248) rotate(-.124 22.038 28.313)"/>
                    <path fill="#9FBFFF" d="M57.353 11.635L41.683 11.713 49.48 0.078 49.48 0.078z" transform="translate(135.408 373.248)"/>
                    <g>
                        <path fill="#A9C8FF" d="M0.232 0.466L3.088 0.466 3.088 6.206 0.232 6.206z" transform="translate(135.408 373.248) translate(6.947 18.616) rotate(-.124 1.66 3.336)"/>
                        <path fill="#BCE8FA" d="M13.354 0.466L16.21 0.466 16.21 6.206 13.354 6.206z" transform="translate(135.408 373.248) translate(6.947 18.616) rotate(-.124 14.782 3.336)"/>
                        <path fill="#DFEFBD" d="M26.477 0.389L29.333 0.389 29.333 6.129 26.477 6.129z" transform="translate(135.408 373.248) translate(6.947 18.616) rotate(-.124 27.905 3.259)"/>
                    </g>
                    <g>
                        <path fill="#DFEFBD" d="M0.232 0.699L3.088 0.699 3.088 6.439 0.232 6.439z" transform="translate(135.408 373.248) translate(6.947 30.251) rotate(-.124 1.66 3.569)"/>
                        <path fill="#A9C8FF" d="M13.354 0.699L16.21 0.699 16.21 6.439 13.354 6.439z" transform="translate(135.408 373.248) translate(6.947 30.251) rotate(-.124 14.782 3.569)"/>
                        <path fill="#BCE8FA" d="M26.477 0.621L29.333 0.621 29.333 6.361 26.477 6.361z" transform="translate(135.408 373.248) translate(6.947 30.251) rotate(-.124 27.905 3.491)"/>
                    </g>
                    <path fill="#9FBFFF" d="M1.775 9.463L44.154 9.386 41.683 11.713 1.775 11.79z" transform="translate(135.408 373.248)"/>
                    <path fill="#E2F5FD" d="M10.189 0.233L49.48 0.078 43.227 9.386 0 9.463z" transform="translate(135.408 373.248)"/>
                </g>
                <g fill="#5A85DB" fill-rule="nonzero">
                    <path d="M7.117.381H9.49c.076 0 .153 0 .23.077.076.076.076.152.076.228v8.388c0 .076 0 .153-.077.229-.076.076-.153.076-.23.076H7.118c-.076 0-.153 0-.23-.076-.076-.076-.076-.153-.076-.229V5.033l-.918 1.83-.23.229c-.076.076-.23.076-.306.076h-.918c-.153 0-.306-.076-.383-.153-.077-.076-.153-.152-.153-.229l-.918-1.83v4.042c0 .076 0 .152-.077.229-.076.076-.153.076-.23.076H.306c-.076 0-.153 0-.23-.076C0 9.15 0 9.074 0 8.997V.61C0 .534 0 .458.077.381.153.305.23.305.307.305h2.371c.23 0 .46.153.536.381l1.684 3.127L6.58.686c.154-.152.307-.305.536-.305zM14.923 3.813h2.372c1.148 0 2.067.228 2.679.762.612.534.918 1.22.918 2.059 0 .839-.306 1.601-.995 2.059-.612.534-1.53.762-2.678.762h-5.357c-.077 0-.153 0-.23-.076-.076-.076-.076-.152-.076-.229V.763c0-.077 0-.153.076-.23.077-.075.153-.075.23-.075h7.653c.076 0 .153 0 .23.076.076.076.076.152.076.229v1.83c0 .076 0 .152-.077.228-.076.077-.153.077-.23.077h-4.59v.915zm0 2.135v1.296h1.913c.23 0 .383-.076.46-.229.076-.152.153-.305.153-.457 0-.153-.077-.305-.154-.458-.076-.152-.23-.152-.459-.152h-1.913zM25.254 9.455h-2.372c-.076 0-.153 0-.23-.076-.076-.076-.076-.152-.076-.229V7.092c0-.077 0-.153.076-.23.077-.076.154-.076.23-.076h1.837c.459 0 .765 0 .842-.076L22.729.915V.839c0-.229.153-.305.306-.305h2.832c.153 0 .306.076.382.305l1.454 3.431L29.004.84c.077-.229.23-.305.46-.305h2.678c.077 0 .153 0 .23.076.076.076.076.153.076.153v.152L30.535 5.49c-.383.915-.689 1.525-.842 1.907-.23.38-.536.762-.918 1.22-.383.38-.842.686-1.378.838-.612-.076-1.3 0-2.143 0zM51.35.381h2.373c.077 0 .153 0 .23.077.076.076.076.152.076.228v8.388c0 .076 0 .153-.076.229-.077.076-.153.076-.23.076h-2.372c-.077 0-.153 0-.23-.076-.076-.076-.076-.153-.076-.229V5.033l-.919 1.83-.23.229c-.076.076-.229.076-.306.076h-.918c-.153 0-.306-.076-.382-.153-.077-.076-.154-.152-.154-.229l-.918-1.83v4.042c0 .076 0 .152-.076.229-.077.076-.153.076-.23.076h-2.449c-.076 0-.153 0-.23-.076-.076-.077-.076-.153-.076-.23V.61c0-.076 0-.152.076-.229.077-.076.154-.076.23-.076h2.372c.23 0 .46.153.536.381l1.684 3.127L50.738.686c.23-.152.383-.305.613-.305zM65.508 8.998c0 .076.077.076.077.152 0 .077 0 .153-.077.153-.076.076-.153.076-.23.076h-3.366c-.23 0-.383-.076-.46-.229L59.157 6.33v2.669c0 .076 0 .152-.077.229-.076.076-.153.076-.23.076h-2.678c-.077 0-.153 0-.23-.076-.076-.077-.076-.153-.076-.23V.61c0-.076 0-.152.076-.229.077-.076.153-.076.23-.076h2.678c.077 0 .154 0 .23.076.077.077.077.153.077.229v2.44L61.223.458c.153-.153.306-.23.459-.23h3.138c.076 0 .153 0 .23.077.076.076.076.153.076.229 0 .076 0 .152-.077.152l-3.06 3.737 3.52 4.575zM68.034.381h6.887c.077 0 .153 0 .23.077.077.076.077.152.077.228v5.948h.688c.077 0 .153 0 .23.076.076.076.076.153.076.229v3.66c0 .076 0 .153-.076.229-.077.076-.153.076-.23.076h-2.142c-.077 0-.154 0-.23-.076-.077-.076-.077-.153-.077-.229V9.38H69.03v1.22c0 .076 0 .153-.077.229-.076.076-.153.076-.23.076h-2.066c-.076 0-.153 0-.23-.076-.076-.076-.076-.153-.076-.229V6.94c0-.076 0-.153.077-.229.076-.076.153-.076.23-.076h.229c.23 0 .383-.076.612-.305.23-.153.306-.458.306-.763V.763c0-.077 0-.153.077-.23.076-.075 0-.152.153-.152zm4.056 2.67h-1.301v2.668c0 .457-.077.839-.153.991h1.454V3.05zM87.625 8.998c0 .076.077.076.077.152 0 .077 0 .153-.077.153-.076.076-.153.076-.23.076h-3.367c-.23 0-.382-.076-.459-.229L81.273 6.33v2.669c0 .076 0 .152-.076.229-.077.076-.153.076-.23.076H78.29c-.077 0-.153 0-.23-.076-.076-.077-.076-.153-.076-.23V.61c0-.076 0-.152.076-.229.077-.076.153-.076.23-.076h2.678c.077 0 .153 0 .23.076.076.077.076.153.076.229v2.44L83.34.458c.153-.153.306-.23.459-.23h3.137c.077 0 .153 0 .23.077.077.076.077.153.077.229 0 .076 0 .152-.077.152l-3.061 3.737 3.52 4.575zM101.936 9.455h-2.449c-.076 0-.153 0-.23-.076-.076-.076-.076-.076-.076-.152v-.153l2.832-8.311c.076-.305.306-.458.612-.458h3.597c.306 0 .535.153.612.458l2.831 8.311v.153c0 .076 0 .076-.076.152-.077.076-.153.076-.23.076h-2.449c-.306 0-.459-.152-.612-.457l-.306-.915h-3.138l-.306.915c-.153.305-.306.457-.612.457zm3.444-3.889l-.919-2.668-.918 2.668h1.837zM117.089.381h2.678c.077 0 .153 0 .23.077.076.076.076.152.076.228v8.388c0 .076 0 .153-.076.229-.077.076-.153.076-.23.076h-2.678c-.077 0-.153 0-.23-.076-.076-.076-.076-.153-.076-.229V6.33h-2.602v2.745c0 .076 0 .153-.077.229-.076.076-.153.076-.23.076h-2.678c-.077 0-.153 0-.23-.076-.076-.076-.076-.153-.076-.229V.686c0-.076 0-.152.076-.228.077-.077.153-.077.23-.077h2.678c.077 0 .154 0 .23.077.077.076.077.152.077.228v2.67h2.602V.762c0-.077 0-.153.076-.23.077-.075.153-.152.23-.152zM128.185.381h2.679c.076 0 .153 0 .23.077.076.076.076.152.076.228v8.388c0 .076 0 .153-.077.229-.076.076-.153.076-.23.076h-2.678c-.076 0-.153 0-.23-.076-.076-.076-.076-.153-.076-.229V6.33h-2.602v2.745c0 .076 0 .153-.076.229-.077.076-.153.076-.23.076h-2.678c-.077 0-.153 0-.23-.076-.077-.076-.077-.153-.077-.229V.686c0-.076 0-.152.077-.228.077-.077.153-.077.23-.077h2.678c.077 0 .153 0 .23.077.076.076.076.152.076.228v2.67h2.602V.762c0-.077 0-.153.077-.23.076-.075.076-.152.23-.152zM133.39.381h2.448c.077 0 .153 0 .23.077.076.076.076.152.076.228V4.5L138.976.61c.153-.152.306-.229.536-.229h2.142c.077 0 .153 0 .23.077.076.076.076.152.076.228v8.388c0 .076 0 .153-.076.229-.077.076-.153.076-.23.076h-2.449c-.076 0-.153 0-.23-.076-.076-.076-.076-.153-.076-.229V5.566l-2.831 3.584c-.153.153-.306.305-.536.305h-2.066c-.077 0-.153 0-.23-.076-.076-.076-.076-.152-.076-.229V.763c0-.077 0-.153.076-.23.077-.075.077-.152.153-.152zM150.302.381h2.679c.076 0 .153 0 .23.077.076.076.076.152.076.228v8.388c0 .076 0 .153-.077.229-.076.076-.153.076-.23.076h-2.678c-.076 0-.153 0-.23-.076-.076-.076-.076-.153-.076-.229V6.33h-2.602v2.745c0 .076 0 .153-.077.229-.076.076-.153.076-.23.076h-2.678c-.076 0-.153 0-.23-.076-.076-.076-.076-.153-.076-.229V.686c0-.076 0-.152.077-.228.076-.077.153-.077.23-.077h2.678c.076 0 .153 0 .23.077.076.076.076.152.076.228v2.67h2.602V.762c0-.077 0-.153.076-.23.077-.075.077-.152.23-.152zM164.536 4.194v1.525c0 .839-.23 1.601-.612 2.211-.459.61-.995.992-1.684 1.22-.688.23-1.53.382-2.448.382-.919 0-1.76-.153-2.45-.382-.688-.228-1.3-.686-1.683-1.22-.383-.533-.612-1.296-.612-2.211V4.194c0-1.296.459-2.211 1.377-2.821.919-.61 2.067-.915 3.52-.915 1.455 0 2.603.305 3.521.915.612.61 1.071 1.525 1.071 2.82zm-6.198-.229v1.983c0 .305.153.61.382.762.23.153.536.305.995.305.383 0 .765-.076.995-.305.23-.229.383-.457.383-.762V4.04c0-.305-.153-.61-.383-.762-.23-.153-.536-.305-.995-.305-.383 0-.765.076-.995.305-.23.076-.382.305-.382.686z" transform="translate(198.744 159.442)"/>
                </g>
                <path fill="#F7F6FC" fill-rule="nonzero" d="M.091 5.338H114.091V8.364H.091zM.091 11.438H114.091V14.464H.091zM.091 17.538H108.091V20.564H.091z"/>
                <path fill="#9FBFFF" fill-rule="nonzero" d="M240 248H331V249.575H240z"/>
                <g fill="#DFEFBD" fill-rule="nonzero">
                    <path d="M0 0H91V1H0zM0 3H91V4H0z" transform="translate(240 277)"/>
                </g>
                <ellipse cx="225.713" cy="216.719" fill="#FEF1E1" fill-rule="nonzero" rx="5.713" ry="5.719"/>
                <ellipse cx="333.084" cy="376.956" fill="#F8CF60" fill-rule="nonzero" rx="3.428" ry="4.956"/>
                <g fill="#F7F6FC" fill-rule="nonzero">
                    <path d="M.457 12.048H22.091V13.048H.457zM.457 10.599H22.091V11.599H.457zM.457 9.227H22.091V10.227H.457zM.457 7.778H22.091V8.777999999999999H.457zM.457 6.329H22.091V7.329H.457zM.457 4.956H22.091V5.956H.457zM.457 3.508H22.091V4.508H.457zM.457 2.059H22.091V3.059H.457zM.457.686H22.091V1.686H.457z" transform="translate(241.292 404.512)"/>
                </g>
                <g fill="#F7F6FC" fill-rule="nonzero">
                    <path d="M.457 11.59H22.091V12.59H.457zM.381 10.142H22.015V11.142H.381zM.381 8.769H22.015V9.769H.381zM.381 7.32H22.015V8.32H.381zM.381 5.871H22.015V6.871H.381zM.381 4.499H22.015V5.499H.381zM.381 3.05H22.015V4.05H.381zM.381 1.601H22.015V2.601H.381zM.381.229H22.015V1.229H.381z" transform="translate(241.292 387.736)"/>
                </g>
                <g fill-rule="nonzero">
                    <g>
                        <path fill="#BCE8FA" d="M22.32.461C10.284.461.38 10.46.38 22.61v22.302c0 12.074 9.675 21.918 21.482 22.149V49.526h.838v17.535c11.884-.231 21.482-10.075 21.482-22.149V22.61C44.258 10.382 34.355.46 22.32.46z" transform="translate(305 488) translate(35.04)"/>
                        <path fill="#CDFDC9" d="M21.939 49.45H22.939V66.98400000000001H21.939z" transform="translate(305 488) translate(35.04)"/>
                        <path fill="#D9F4F3" d="M21.939 66.984L21.939 67.061 21.939 89.44 22.777 89.44 22.777 67.061 22.777 66.984z" transform="translate(305 488) translate(35.04)"/>
                        <path fill="#0855FF" d="M21.939 66.984L21.939 67.061 21.939 89.44 22.777 89.44 22.777 67.061 22.777 66.984z" transform="translate(305 488) translate(35.04)"/>
                    </g>
                    <g>
                        <path fill="#BCE8FA" d="M15.768.309C7.39.309.61 7.256.61 15.67v15.516c0 8.337 6.704 15.208 14.855 15.362V34.351h.61v12.197c8.226-.154 14.853-7.025 14.853-15.362V15.67C31.004 7.18 24.147.31 15.768.31z" transform="translate(305 488) translate(0 27.451)"/>
                        <path fill="#CDFDC9" d="M15.54 34.351H16.54V46.548H15.54z" transform="translate(305 488) translate(0 27.451)"/>
                        <path fill="#D9F4F3" d="M15.54 46.471L15.54 46.548 15.54 62.064 16.073 62.064 16.073 46.548 16.073 46.471z" transform="translate(305 488) translate(0 27.451)"/>
                        <path fill="#0855FF" d="M15.54 46.471L15.54 46.548 15.54 62.064 16.073 62.064 16.073 46.548 16.073 46.471z" transform="translate(305 488) translate(0 27.451)"/>
                    </g>
                </g>
                <g fill="#F7F6FC" fill-rule="nonzero">
                    <path d="M.457 11.819H22.091V12.819H.457zM.381 10.37H22.015V11.37H.381zM.381 8.998H22.015V9.998H.381zM.381 7.549H22.015V8.549H.381zM.381 6.1H22.015V7.1H.381zM.381 4.728H22.015V5.728H.381zM.381 3.279H22.015V4.279H.381zM.381 1.83H22.015V2.83H.381zM.381.458H22.015V1.458H.381z" transform="translate(241.292 370.198)"/>
                </g>
                <g fill="#DFEFBD" fill-rule="nonzero">
                    <path d="M12.188 14.488L0 14.488 6.056 7.625 6.056 7.625zM6.094 21.351H7.094V32.025999999999996H6.094zM12.188 21.351L0 21.351 6.056 14.488 6.056 14.488zM12.188 7.625L0 7.625 6.056.763 6.056.763z" transform="translate(54.51 547.211)"/>
                </g>
                <g fill="#DFEFBD" fill-rule="nonzero">
                    <path d="M12.188 14.488L0 14.488 6.094 7.625 6.094 7.625zM6.094 21.351H7.094V32.025999999999996H6.094zM12.188 21.351L0 21.351 6.094 14.488 6.094 14.488zM12.188 7.625L0 7.625 6.094.763 6.094.763z" transform="translate(68.983 547.211)"/>
                </g>
                <g fill="#DFEFBD" fill-rule="nonzero">
                    <path d="M12.188 14.488L0 14.488 6.056 7.625 6.056 7.625zM6.094 21.351H7.094V32.025999999999996H6.094zM12.188 21.351L0 21.351 6.056 14.488 6.056 14.488zM12.188 7.625L0 7.625 6.056.763 6.056.763z" transform="translate(26 547.211)"/>
                </g>
                <g fill="#DFEFBD" fill-rule="nonzero">
                    <path d="M12.188 14.488L0 14.488 6.056 7.625 6.056 7.625zM6.094 21.351H7.094V32.025999999999996H6.094zM12.188 21.351L0 21.351 6.056 14.488 6.056 14.488zM12.188 7.625L0 7.625 6.056.763 6.056.763z" transform="translate(12 547.211)"/>
                </g>
                <g fill="#DFEFBD" fill-rule="nonzero">
                    <path d="M12.188 14.488L0 14.488 6.094 7.625 6.094 7.625zM6.094 21.351H7.094V32.025999999999996H6.094zM12.188 21.351L0 21.351 6.094 14.488 6.094 14.488zM12.188 7.625L0 7.625 6.094.763 6.094.763z" transform="translate(40.473 547.211)"/>
                </g>
                <ellipse cx="219.952" cy="455.447" fill="#F8CF60" fill-rule="nonzero" rx="15.235" ry="15.251"/>
            </g>
        </g>
    </g>
</svg>
