<svg xmlns="http://www.w3.org/2000/svg" width="33" height="22" viewBox="0 0 33 22">
  <path fill="#23286B" fill-rule="evenodd" d="M359.495694,43 C360.046109,43 360.492308,43.4426603 360.492308,43.9989566 L360.492308,45.0010434 C360.492308,45.5527519 360.053113,46 359.495694,46 L342.196613,46 C341.646199,46 341.2,45.5573397 341.2,45.0010434 L341.2,43.9989566 C341.2,43.4472481 341.639195,43 342.196613,43 L359.495694,43 Z M359.99194,33.5 C360.548676,33.5 361,33.9426603 361,34.4989566 L361,35.5010434 C361,36.0527519 360.553044,36.5 359.99194,36.5 L329.515752,36.5 C328.959016,36.5 328.507692,36.0573397 328.507692,35.5010434 L328.507692,34.4989566 C328.507692,33.9472481 328.954649,33.5 329.515752,33.5 L359.99194,33.5 Z M346.295694,24 C346.846109,24 347.292308,24.4426603 347.292308,24.9989566 L347.292308,26.0010434 C347.292308,26.5527519 346.853113,27 346.295694,27 L328.996613,27 C328.446199,27 328,26.5573397 328,26.0010434 L328,24.9989566 C328,24.4472481 328.439195,24 328.996613,24 L346.295694,24 Z" transform="translate(-328 -24)"/>
</svg>
