<svg xmlns="http://www.w3.org/2000/svg" width="33" height="22" viewBox="0 0 33 22">
  <path fill="#23286B" fill-rule="evenodd" d="M345.506183,43 C346.055053,43 346.5,43.4426603 346.5,43.9989566 L346.5,45.0010434 C346.5,45.5527519 346.056077,46 345.506183,46 L327.993817,46 C327.444947,46 327,45.5573397 327,45.0010434 L327,43.9989566 C327,43.4472481 327.443923,43 327.993817,43 L345.506183,43 Z M358.994357,33.5 C359.549758,33.5 360,33.9426603 360,34.4989566 L360,35.5010434 C360,36.0527519 359.558456,36.5 358.994357,36.5 L328.005643,36.5 C327.450242,36.5 327,36.0573397 327,35.5010434 L327,34.4989566 C327,33.9472481 327.441544,33.5 328.005643,33.5 L358.994357,33.5 Z M358.997577,24 C359.5512,24 360,24.4426603 360,24.9989566 L360,26.0010434 C360,26.5527519 359.545606,27 358.997577,27 L341.856269,27 C341.302646,27 340.853846,26.5573397 340.853846,26.0010434 L340.853846,24.9989566 C340.853846,24.4472481 341.30824,24 341.856269,24 L358.997577,24 Z" transform="translate(-327 -24)"/>
</svg>
