<svg xmlns="http://www.w3.org/2000/svg" xmlns:xlink="http://www.w3.org/1999/xlink" width="17" height="26" viewBox="0 0 17 26">
    <defs>
        <path id="prefix__a" d="M0 0H17V26H0z"/>
    </defs>
    <g fill="none" fill-rule="evenodd">
        <mask id="prefix__b" fill="#fff">
            <use xlink:href="#prefix__a"/>
        </mask>
        <g fill="#FFF" fill-rule="nonzero" mask="url(#prefix__b)">
            <path d="M13.7 26H.4V15.2h2.9c5.8 0 10.4 4.7 10.4 10.5v.3zM3.3 6.2c-2.9 3.9-3.4 8-2.7 8.2 0 0 2.5-3.1 5.4-6.9 2.9-3.9 5-7.1 5-7.1-.5-.3-4.8 1.9-7.7 5.8M8 6.6c-3.3 3.5-4.3 7.5-3.7 7.9 0 0 3.1-2.5 6.4-6C14 5 16.3 1.8 16.3 1.8c-.5-.4-4.9 1.3-8.3 4.8"/>
        </g>
    </g>
</svg>
